<svg width="30" height="30" viewBox="0 0 30 30" fill="none" xmlns="http://www.w3.org/2000/svg">
<rect width="30" height="30" rx="15" transform="matrix(1.19249e-08 -1 -1 -1.19249e-08 30 30)" fill="#FCFFFD"/>
<path d="M9.01 19.1361L7.141 7.00015H6C5.73478 7.00015 5.48043 6.8948 5.29289 6.70726C5.10536 6.51973 5 6.26538 5 6.00016C5 5.73495 5.10536 5.48059 5.29289 5.29306C5.48043 5.10553 5.73478 5.00017 6 5.00017H7.985C8.22624 4.99572 8.46086 5.07925 8.645 5.23517C8.834 5.3941 8.9573 5.61753 8.991 5.86216L9.319 8.00014H17V10.0001H9.627L10.857 18.0001H20.256L21.756 13.0001H23.844L21.958 19.287C21.8963 19.4931 21.7697 19.6738 21.5971 19.8023C21.4245 19.9307 21.2151 20.0001 21 20H10.016C9.76792 20.0046 9.52711 19.9161 9.341 19.752C9.15969 19.5935 9.04178 19.3747 9.009 19.1361H9.01ZM13 23C13 23.5304 12.7893 24.0391 12.4142 24.4142C12.0391 24.7893 11.5304 25 11 25C10.4696 25 9.96086 24.7893 9.58579 24.4142C9.21071 24.0391 9 23.5304 9 23C9 22.4696 9.21071 21.9609 9.58579 21.5858C9.96086 21.2107 10.4696 21 11 21C11.5304 21 12.0391 21.2107 12.4142 21.5858C12.7893 21.9609 13 22.4696 13 23ZM22 23C22 23.5304 21.7893 24.0391 21.4142 24.4142C21.0391 24.7893 20.5304 25 20 25C19.4696 25 18.9609 24.7893 18.5858 24.4142C18.2107 24.0391 18 23.5304 18 23C18 22.4696 18.2107 21.9609 18.5858 21.5858C18.9609 21.2107 19.4696 21 20 21C20.5304 21 21.0391 21.2107 21.4142 21.5858C21.7893 21.9609 22 22.4696 22 23ZM22 5.00017C22.2652 5.00017 22.5196 5.10553 22.7071 5.29306C22.8946 5.48059 23 5.73495 23 6.00016V7.00015H24C24.2652 7.00015 24.5196 7.10551 24.7071 7.29304C24.8946 7.48058 25 7.73493 25 8.00014C25 8.26536 24.8946 8.51971 24.7071 8.70724C24.5196 8.89478 24.2652 9.00014 24 9.00014H23V10.0001C23 10.2653 22.8946 10.5197 22.7071 10.7072C22.5196 10.8948 22.2652 11.0001 22 11.0001C21.7348 11.0001 21.4804 10.8948 21.2929 10.7072C21.1054 10.5197 21 10.2653 21 10.0001V9.00014H20C19.7348 9.00014 19.4804 8.89478 19.2929 8.70724C19.1054 8.51971 19 8.26536 19 8.00014C19 7.73493 19.1054 7.48058 19.2929 7.29304C19.4804 7.10551 19.7348 7.00015 20 7.00015H21V6.00016C21 5.73495 21.1054 5.48059 21.2929 5.29306C21.4804 5.10553 21.7348 5.00017 22 5.00017Z" fill="#0F8235"/>
</svg>
