<svg width="25" height="25" viewBox="0 0 25 25" fill="none" xmlns="http://www.w3.org/2000/svg">
<g clip-path="url(#clip0_990_741)">
<path d="M-7.64949e-07 7.5L-3.27835e-07 17.5C-1.47034e-07 21.6363 3.36375 25 7.5 25L23.75 25C24.0815 25 24.3995 24.8683 24.6339 24.6339C24.8683 24.3995 25 24.0815 25 23.75L25 7.5C25 3.36375 21.6362 -9.45751e-07 17.5 -7.64949e-07L7.5 -3.27835e-07C3.36375 -1.47034e-07 -9.45751e-07 3.36375 -7.64949e-07 7.5ZM13.75 6.25L13.75 11.25L18.75 11.25L18.75 13.75L13.75 13.75L13.75 18.75L11.25 18.75L11.25 13.75L6.25 13.75L6.25 11.25L11.25 11.25L11.25 6.25L13.75 6.25Z" fill="white"/>
</g>
<defs>
<clipPath id="clip0_990_741">
<rect width="25" height="25" fill="white" transform="translate(0 25) rotate(-90)"/>
</clipPath>
</defs>
</svg>
