<svg width="26" height="26" viewBox="0 0 26 26" fill="none" xmlns="http://www.w3.org/2000/svg">
<path d="M5.213 18.3769L2.7833 2.6002H1.3C0.955218 2.6002 0.624558 2.46324 0.380761 2.21944C0.136964 1.97564 0 1.64499 0 1.30021C0 0.955431 0.136964 0.624773 0.380761 0.380978C0.624558 0.137183 0.955218 0.000220125 1.3 0.000220125H3.8805C4.19412 -0.00556969 4.49911 0.103027 4.7385 0.305717C4.98421 0.512333 5.14449 0.802784 5.1883 1.12081L5.6147 3.90019H15.6V6.50016H6.0151L7.6141 16.9001H19.8328L21.7828 10.4001H24.4972L22.0454 18.5732C21.9651 18.8411 21.8006 19.0759 21.5763 19.2429C21.3519 19.4099 21.0797 19.5001 20.8 19.5001H6.5208C6.19829 19.506 5.88525 19.391 5.6433 19.1777C5.40759 18.9715 5.25431 18.6871 5.2117 18.3769H5.213ZM10.4 23.4C10.4 24.0896 10.1261 24.7509 9.63848 25.2385C9.15088 25.7261 8.48956 26 7.8 26C7.11044 26 6.44912 25.7261 5.96152 25.2385C5.47393 24.7509 5.2 24.0896 5.2 23.4C5.2 22.7105 5.47393 22.0492 5.96152 21.5616C6.44912 21.074 7.11044 20.8 7.8 20.8C8.48956 20.8 9.15088 21.074 9.63848 21.5616C10.1261 22.0492 10.4 22.7105 10.4 23.4ZM22.1 23.4C22.1 24.0896 21.8261 24.7509 21.3385 25.2385C20.8509 25.7261 20.1896 26 19.5 26C18.8104 26 18.1491 25.7261 17.6615 25.2385C17.1739 24.7509 16.9 24.0896 16.9 23.4C16.9 22.7105 17.1739 22.0492 17.6615 21.5616C18.1491 21.074 18.8104 20.8 19.5 20.8C20.1896 20.8 20.8509 21.074 21.3385 21.5616C21.8261 22.0492 22.1 22.7105 22.1 23.4ZM22.1 0.000220125C22.4448 0.000220125 22.7754 0.137183 23.0192 0.380978C23.263 0.624773 23.4 0.955431 23.4 1.30021V2.6002H24.7C25.0448 2.6002 25.3754 2.73716 25.6192 2.98096C25.863 3.22475 26 3.55541 26 3.90019C26 4.24497 25.863 4.57562 25.6192 4.81942C25.3754 5.06321 25.0448 5.20018 24.7 5.20018H23.4V6.50016C23.4 6.84494 23.263 7.1756 23.0192 7.4194C22.7754 7.66319 22.4448 7.80015 22.1 7.80015C21.7552 7.80015 21.4246 7.66319 21.1808 7.4194C20.937 7.1756 20.8 6.84494 20.8 6.50016V5.20018H19.5C19.1552 5.20018 18.8246 5.06321 18.5808 4.81942C18.337 4.57562 18.2 4.24497 18.2 3.90019C18.2 3.55541 18.337 3.22475 18.5808 2.98096C18.8246 2.73716 19.1552 2.6002 19.5 2.6002H20.8V1.30021C20.8 0.955431 20.937 0.624773 21.1808 0.380978C21.4246 0.137183 21.7552 0.000220125 22.1 0.000220125Z" fill="white"/>
</svg>
