<svg width="15" height="15" viewBox="0 0 15 15" fill="none" xmlns="http://www.w3.org/2000/svg">
<path d="M7.50108 15C6.51584 15.001 5.54008 14.8077 4.62963 14.4311C3.71918 14.0545 2.89191 13.5021 2.19519 12.8054C1.49846 12.1087 0.945944 11.2815 0.569267 10.371C0.19259 9.46059 -0.000848323 8.48478 1.32449e-06 7.49946C-0.000706378 6.51424 0.192855 5.53855 0.569595 4.62821C0.946335 3.71787 1.49887 2.89076 2.19558 2.1942C2.89229 1.49765 3.71948 0.945312 4.62986 0.568807C5.54024 0.192301 6.51593 -0.000987172 7.50108 3.59855e-06C8.48605 -0.000704125 9.46152 0.192792 10.3716 0.569425C11.2818 0.946057 12.1087 1.49844 12.8052 2.19497C13.5017 2.8915 14.054 3.71851 14.4306 4.62871C14.8072 5.5389 15.0007 6.51442 15 7.49946C15.0008 8.48459 14.8075 9.46023 14.4309 10.3705C14.0544 11.2809 13.5021 12.108 12.8056 12.8047C12.1091 13.5013 11.2821 14.0538 10.3719 14.4305C9.46168 14.8072 8.48615 15.0007 7.50108 15ZM7.50108 11.8379L12.8821 7.50054L7.50108 3.19545L7.50108 6.42427L3.1963 6.42427L3.1963 8.57681L7.50108 8.57681L7.50108 11.8379Z" fill="#0F8235"/>
</svg>
