<svg xmlns="http://www.w3.org/2000/svg" width="320" height="250" fill="none" viewBox="0 0 320 250">
  <g clip-path="url(#a)">
    <path fill="#BBD8A4" d="M258.466 0H217.6v53.41h40.866V0Zm0 53.41h1.326V0h-1.326v53.41Z"/>
    <path fill="#292A2E" d="M258.466 53.41h1.326V0h-1.326v53.41Zm-7.444-43.68h-25.978v33.95h25.978V9.73Z" opacity=".05"/>
    <path fill="#292A2E" d="M251.021 9.73h-1.354v33.95h1.354V9.73Z" opacity=".03"/>
    <path fill="#BBD8A4" d="M291.888 66.545h-33.422v33.867h33.422V66.545Z"/>
    <path fill="#292A2E" d="M285.8 72.715h-21.246v21.528H285.8V72.715Z" opacity=".05"/>
    <path fill="#BBD8A4" d="M291.888 100.412h1.325V66.545h-1.325v33.867Z"/>
    <path fill="#292A2E" d="M291.888 100.412h1.325V66.545h-1.325v33.867Z" opacity=".05"/>
    <path fill="#292A2E" d="M285.8 72.715h-1.354v21.528h1.354V72.715Z" opacity=".03"/>
    <path fill="#73EBA3" d="M181.766 5.56H61.523v120.736h120.243V5.56Zm1.378 0h-1.378v120.736h1.378V5.56Z"/>
    <path fill="#43D8A2" d="M183.144 5.56h-1.378v120.736h1.378V5.56Zm-30.508 83.197V57.168h-25.77v18.353H86.949v32.495H69.983v18.28h105.999V88.757h-23.346Z" opacity=".05"/>
    <path fill="#179D0C" d="M148.94 60.598h-18.766v3.43h18.766v-3.43Zm0 7.108h-18.766v3.43h18.766v-3.43Zm0 7.107h-18.766v3.43h18.766v-3.43Zm23.714 17.273h-3.459v3.43h3.459v-3.43Zm0 7.108h-3.459v3.429h3.459v-3.43Zm0 7.107h-3.459v3.43h3.459v-3.43Zm-6.399-14.215h-3.459v3.43h3.459v-3.43Zm0 7.108h-3.459v3.429h3.459v-3.43Zm0 7.107h-3.459v3.43h3.459v-3.43Zm-6.226-14.215h-3.458v3.43h3.458v-3.43Zm0 7.108h-3.458v3.429h3.458v-3.43Zm0 7.107h-3.458v3.43h3.458v-3.43Z" opacity=".34"/>
    <path fill="#fff" d="M181.766 65.25h-24.195V5.56h-2.001v59.69H90.217V5.56h-2.001v59.69H61.523v2.01h26.693v59.036h2.001V67.26h65.353v59.036h2.001V67.26h24.195v-2.01Z"/>
    <path fill="#73EBA3" d="M186.556 126.151H56.732v4.015h129.824v-4.015Z"/>
    <path fill="#43D8A2" d="M186.556 126.151H56.732v4.015h129.824v-4.015Zm1.874 0h-1.874v4.015h1.874v-4.015Z" opacity=".1"/>
    <path fill="#43D8A2" d="M188.43 126.151h-1.874v4.015h1.874v-4.015Z" opacity=".1"/>
    <path fill="#7CDA86" d="M244.448 244.748h-6.869v4.606h6.869v-4.606Zm43.12 0h-6.869v4.606h6.869v-4.606Z" opacity=".05"/>
    <path fill="#B1DB9D" d="M293.865 174.569h-62.582v70.179h62.582v-70.179Z"/>
    <path fill="#7CDA86" d="M293.865 174.569h-62.582v70.179h62.582v-70.179Z" opacity=".03"/>
    <path fill="#B1DB9D" d="M277.244 174.569h-62.582v70.179h62.582v-70.179Z"/>
    <path fill="#7CDA86" d="M227.827 244.748h-6.869v4.606h6.869v-4.606Zm43.121 0h-6.869v4.606h6.869v-4.606Z" opacity=".05"/>
    <path fill="#6AB67B" d="M273.877 178.908h-55.848v17.8h55.848v-17.8Zm0 22.156h-55.848v17.799h55.848v-17.799Zm0 22.155h-55.848v17.8h55.848v-17.8Z" opacity=".7"/>
    <path fill="#7CDA86" d="M245.953 190.298c1.37 0 2.48-1.115 2.48-2.49 0-1.375-1.11-2.49-2.48-2.49a2.486 2.486 0 0 0-2.481 2.49 2.486 2.486 0 0 0 2.481 2.49Zm0 22.156c1.37 0 2.48-1.115 2.48-2.49a2.485 2.485 0 0 0-2.48-2.491 2.486 2.486 0 0 0-2.481 2.491 2.486 2.486 0 0 0 2.481 2.49Zm0 22.156c1.37 0 2.48-1.115 2.48-2.491 0-1.375-1.11-2.49-2.48-2.49a2.486 2.486 0 0 0-2.481 2.49 2.486 2.486 0 0 0 2.481 2.491Z" opacity=".05"/>
    <path fill="#292A2E" d="M231.042 26.479h-81.597c-6.75 0-12.222 5.495-12.222 12.272v192.602c0 6.778 5.472 12.273 12.222 12.273h81.597c6.75 0 12.222-5.495 12.222-12.273V38.751c0-6.777-5.472-12.272-12.222-12.272Z"/>
    <path fill="#fff" d="M231.003 30.311h-81.519c-4.635 0-8.393 3.773-8.393 8.427V231.08c0 4.654 3.758 8.427 8.393 8.427h81.519c4.635 0 8.393-3.773 8.393-8.427V38.738c0-4.654-3.758-8.427-8.393-8.427Z"/>
    <path fill="#292A2E" d="M170.11 28.726h40.267v4.184a4.544 4.544 0 0 1-1.319 3.2 4.507 4.507 0 0 1-3.187 1.326h-31.255a4.497 4.497 0 0 1-3.186-1.325c-.845-.849-1.32-2-1.32-3.2v-4.185Z"/>
    <path fill="#0F8235" d="M213.56 163.417h-46.633c-2.748 0-4.976 2.236-4.976 4.995v13.415c0 2.759 2.228 4.996 4.976 4.996h46.633c2.748 0 4.976-2.237 4.976-4.996v-13.415c0-2.759-2.228-4.995-4.976-4.995Z" opacity=".8"/>
    <path fill="#7AD25A" d="M218.534 181.827v2.299a5.019 5.019 0 0 1-1.457 3.532 4.978 4.978 0 0 1-3.518 1.463h-46.633a4.961 4.961 0 0 1-3.518-1.463 4.994 4.994 0 0 1-1.457-3.532v-2.299c0 1.325.524 2.595 1.457 3.532a4.963 4.963 0 0 0 3.518 1.463h46.633a4.961 4.961 0 0 0 3.518-1.463 4.994 4.994 0 0 0 1.457-3.532Z"/>
    <path fill="#fff" d="M187.134 182.034a.812.812 0 0 1-.532-.197l-5.338-4.593a.826.826 0 0 1-.089-1.158.816.816 0 0 1 1.154-.09l4.736 4.076 11.021-12.108a.813.813 0 0 1 1.155-.052.825.825 0 0 1 .052 1.16l-11.554 12.695a.814.814 0 0 1-.605.267Z"/>
    <path fill="#25B655" d="M226.134 102.623c0 3.721-3.6 6.824-4.686 10.18-1.125 3.481-.068 8.108-2.167 11.004-2.119 2.925-6.845 3.336-9.758 5.464-2.884 2.108-4.721 6.505-8.186 7.635-3.343 1.09-7.388-1.346-11.094-1.346-3.705 0-7.751 2.437-11.093 1.346-3.467-1.13-5.303-5.527-8.187-7.635-2.913-2.128-7.638-2.539-9.758-5.464-2.098-2.896-1.041-7.524-2.166-11.004-1.086-3.356-4.687-6.46-4.687-10.18 0-3.719 3.601-6.824 4.687-10.18 1.125-3.479.068-8.107 2.166-11.003 2.12-2.925 6.845-3.336 9.758-5.464 2.884-2.108 4.722-6.505 8.187-7.635 3.343-1.09 7.388 1.346 11.093 1.346s7.751-2.437 11.094-1.346c3.467 1.13 5.302 5.527 8.186 7.635 2.913 2.128 7.639 2.539 9.758 5.464 2.099 2.896 1.042 7.524 2.167 11.003 1.086 3.356 4.686 6.46 4.686 10.18Z" opacity=".5"/>
    <path fill="#095622" d="M201.057 124.327h9.214V83.479h-9.214v40.848Z"/>
    <path fill="#367CFF" d="M193.696 92.579a9.065 9.065 0 0 1-5.051-1.539 9.122 9.122 0 0 1-3.349-4.097 9.164 9.164 0 0 1 1.971-9.949 9.076 9.076 0 0 1 4.655-2.498 9.056 9.056 0 0 1 5.253.52 9.1 9.1 0 0 1 4.08 3.362 9.157 9.157 0 0 1 1.533 5.072 9.162 9.162 0 0 1-2.666 6.452 9.085 9.085 0 0 1-6.426 2.677Zm0-17.273a8.088 8.088 0 0 0-4.506 1.372 8.13 8.13 0 0 0-2.987 3.655 8.174 8.174 0 0 0 1.758 8.875 8.082 8.082 0 0 0 8.839 1.765 8.122 8.122 0 0 0 3.64-2.999 8.168 8.168 0 0 0-1.012-10.28 8.102 8.102 0 0 0-5.732-2.389Z"/>
    <path fill="#0F8235" d="M194.728 83.479v-.03a9.149 9.149 0 0 0-2.663-6.455 9.074 9.074 0 0 0-6.429-2.673 9.074 9.074 0 0 0-6.429 2.673 9.149 9.149 0 0 0-2.663 6.456v.029h-6.328v40.848h30.84V83.479h-6.328Zm-17.203-.03c0-2.16.855-4.23 2.376-5.758a8.094 8.094 0 0 1 5.735-2.385c2.151 0 4.214.858 5.735 2.385a8.162 8.162 0 0 1 2.376 5.759v.029h-16.222l.001-.03h-.001Z"/>
    <path fill="#0F8235" d="M194.337 83.232v-.028a9.144 9.144 0 0 0-2.663-6.456 9.072 9.072 0 0 0-6.428-2.674 9.072 9.072 0 0 0-6.429 2.674 9.148 9.148 0 0 0-2.663 6.456v.028h-6.329v40.849h30.84V83.232h-6.328Zm-17.202-.028a8.16 8.16 0 0 1 2.375-5.76 8.098 8.098 0 0 1 5.736-2.385c2.151 0 4.214.859 5.735 2.386a8.16 8.16 0 0 1 2.375 5.759v.028h-16.221v-.028Z"/>
    <path fill="#E98862" d="m26.305 243.274-.707 4.499a2.085 2.085 0 0 1-2.032 1.76l-18.01.176a1.141 1.141 0 0 1-1.12-.882 1.148 1.148 0 0 1 .61-1.292l10.812-5.29 10.447 1.029Z"/>
    <path fill="#494949" d="M291.528 206.935a.329.329 0 0 1-.231-.096c-.461-.462-1.212-8.951-3.235-34.225-.828-10.342-1.61-20.11-2.18-26.046-.041-.424-.205-.474-.259-.49-.78-.233-3.156 1.644-4.482 3.291a.325.325 0 0 1-.46.049.329.329 0 0 1-.049-.462c.877-1.089 3.734-3.94 5.18-3.507.291.088.654.342.721 1.056.571 5.941 1.353 15.712 2.181 26.056 1.229 15.359 2.622 32.758 3.08 33.854a.325.325 0 0 1 .06.167.333.333 0 0 1-.155.305.335.335 0 0 1-.171.048Z"/>
    <path fill="#0CBC8B" d="M285.041 157.46c5.427-4.368 7.226-11.166 4.018-15.185-3.208-4.018-10.208-3.735-15.635.633s-7.226 11.166-4.018 15.185 10.209 3.735 15.635-.633Z"/>
    <path fill="#fff" d="M285.041 157.46c5.427-4.368 7.226-11.166 4.018-15.185-3.208-4.018-10.208-3.735-15.635.633s-7.226 11.166-4.018 15.185 10.209 3.735 15.635-.633Z" opacity=".2"/>
    <path fill="#fff" d="M270.928 159.115a.17.17 0 0 1-.088-.025.167.167 0 0 1-.075-.16.164.164 0 0 1 .037-.084l15.466-18.727a.164.164 0 0 1 .111-.059.173.173 0 0 1 .12.037.165.165 0 0 1 .021.232l-15.467 18.727a.162.162 0 0 1-.125.059Z"/>
    <path fill="#494949" d="M294.901 202.92a.33.33 0 0 1-.294-.185.331.331 0 0 1-.014-.251l5.809-16.776a3.118 3.118 0 0 1 2.205-2.006 3.1 3.1 0 0 1 2.874.775l3.071 2.946a.327.327 0 0 1 .085.36.325.325 0 0 1-.429.187.34.34 0 0 1-.108-.072l-3.071-2.946a2.444 2.444 0 0 0-3.34-.043 2.458 2.458 0 0 0-.669 1.014l-5.809 16.777a.33.33 0 0 1-.31.22Z"/>
    <path fill="#0CBC8B" d="M317.134 196.711c4.022-3.196 3.783-10.226-.534-15.702-4.317-5.476-11.076-7.324-15.098-4.128-4.022 3.197-3.783 10.227.534 15.703 4.316 5.476 11.076 7.324 15.098 4.127Z"/>
    <path fill="#494949" d="M288.889 205.865a.33.33 0 0 1-.318-.252l-9.749-40.931a1.559 1.559 0 0 0-1.984-1.123 1.56 1.56 0 0 0-.702.466l-3.005 3.484a.327.327 0 1 1-.495-.429l3.005-3.488a2.206 2.206 0 0 1 3.817.936l9.749 40.931a.327.327 0 0 1-.242.396.386.386 0 0 1-.076.01Z"/>
    <path fill="#0CBC8B" d="M285.293 176.605c1.186-6.881-1.951-13.172-7.005-14.049-5.054-.878-10.112 3.989-11.298 10.871-1.185 6.882 1.952 13.172 7.006 14.049 5.054.878 10.112-3.989 11.297-10.871Z"/>
    <path fill="#494949" d="M291.529 206.935a.323.323 0 0 1-.258-.126.325.325 0 0 1-.067-.242l6.225-50.755a2.882 2.882 0 0 1 2.006-2.409 2.866 2.866 0 0 1 3.012.849l7.115 8.092a.329.329 0 0 1-.265.545.324.324 0 0 1-.225-.11l-7.116-8.093a2.226 2.226 0 0 0-2.327-.655c-.41.127-.774.37-1.049.701-.275.33-.449.733-.502 1.16l-6.225 50.755a.325.325 0 0 1-.324.288Z"/>
    <path fill="#0CBC8B" d="M316.861 166.841c2.482-4.507-.439-10.901-6.525-14.281-6.086-3.381-13.032-2.467-15.515 2.039-2.483 4.507.438 10.901 6.524 14.281 6.086 3.381 13.033 2.468 15.516-2.039Z"/>
    <path fill="#fff" d="M317.134 196.711c4.022-3.196 3.783-10.226-.534-15.702-4.317-5.476-11.076-7.324-15.098-4.128-4.022 3.197-3.783 10.227.534 15.703 4.316 5.476 11.076 7.324 15.098 4.127Z" opacity=".2"/>
    <path fill="#fff" d="M285.293 176.605c1.186-6.881-1.951-13.172-7.005-14.049-5.054-.878-10.112 3.989-11.298 10.871-1.185 6.882 1.952 13.172 7.006 14.049 5.054.878 10.112-3.989 11.297-10.871Zm31.568-9.764c2.482-4.507-.439-10.901-6.525-14.281-6.086-3.381-13.032-2.467-15.515 2.039-2.483 4.507.438 10.901 6.524 14.281 6.086 3.381 13.033 2.468 15.516-2.039Z" opacity=".5"/>
    <path fill="#292A2E" d="M299.491 250h-15.925l-2.64-51.164h21.204L299.491 250Z"/>
    <path fill="#fff" d="M299.491 250h-15.925l-2.64-51.164h21.204L299.491 250Z" opacity=".3"/>
    <path fill="#fff" d="M317.134 196.874a.165.165 0 0 1-.129-.062l-15.632-19.831a.17.17 0 0 1-.035-.121.177.177 0 0 1 .02-.06.165.165 0 0 1 .098-.079.196.196 0 0 1 .064-.005.169.169 0 0 1 .109.061l15.633 19.831a.16.16 0 0 1 .034.084.172.172 0 0 1-.015.089.165.165 0 0 1-.147.093Zm-1.313-28.445a.157.157 0 0 1-.096-.033l-20.004-14.666a.179.179 0 0 1-.044-.047.166.166 0 0 1-.021-.06.153.153 0 0 1 .002-.064.164.164 0 0 1 .134-.124.162.162 0 0 1 .122.03l20.004 14.668a.168.168 0 0 1 .057.183.165.165 0 0 1-.154.113Zm-42.638 18.833a.193.193 0 0 1-.042-.005.168.168 0 0 1-.1-.077.167.167 0 0 1-.016-.124l6.368-23.957a.164.164 0 0 1 .076-.099.168.168 0 0 1 .124-.018.169.169 0 0 1 .099.077.162.162 0 0 1 .016.124l-6.366 23.957a.164.164 0 0 1-.159.122Z"/>
    <path fill="#262626" d="M47.372 220.342s-.121 26.539 19.006 28.996l18.007-16.548 11.164-22.36-41.788 4.63-6.389 5.282Z"/>
    <path fill="#333" d="m46.857 218.896-.057.015s-.185-1.126.057-.015Z"/>
    <path fill="#E98862" d="M120.597 141.844c-.002-.011-.013-.019-.018-.029l.228-.338a1.196 1.196 0 0 0-.101-1.51 1.153 1.153 0 0 0-.934-.349 1.156 1.156 0 0 0-.861.504l-.531.777c-.003-.003-.003-.009-.007-.012-.005-.003-.013 0-.018-.004a1.172 1.172 0 0 0-.423-1.394c-.537-.424-1.278-.027-1.621.476l-3.162 4.466.295-1.55a1.221 1.221 0 0 0-.149-.878 1.21 1.21 0 0 0-.704-.54 1.164 1.164 0 0 0-1.422.917l-1.6 8.467c-.188.993.018 2.02.573 2.864a3.869 3.869 0 0 0 2.398 1.654 5.862 5.862 0 0 0 6.094-2.424s2.387-11.488 1.963-11.097Z"/>
    <path fill="#E98862" d="m117.843 129.031.961.094a.723.723 0 0 1 .52.251.746.746 0 0 1 .179.551l-2.448 19.88a.828.828 0 0 1-.898.679l-1.101-.081 2.787-21.374Z"/>
    <path fill="#E98862" d="m115.231 150.426-2.039-.155a.67.67 0 0 1-.65-.726l2.447-20.054a.749.749 0 0 1 .814-.615l2.04.155a.662.662 0 0 1 .481.222.67.67 0 0 1 .169.504l-2.447 20.053a.75.75 0 0 1-.815.616Z"/>
    <path fill="#fff" d="m115.023 150.013-1.806-.15a.451.451 0 0 1-.331-.152.458.458 0 0 1-.116-.346l2.427-19.692a.514.514 0 0 1 .559-.423l1.783.151a.456.456 0 0 1 .446.499l-2.403 19.69a.513.513 0 0 1-.559.423Z"/>
    <path fill="#E98862" d="m117.087 130.063-.791-.06a.246.246 0 0 1-.24-.268l.075-.61 1.33.101-.074.61a.275.275 0 0 1-.3.227Zm-3.368 13.913a1.164 1.164 0 0 1 1.235-.528c0-.021.006-.042.018-.06a.106.106 0 0 1 .098-.031l-.752-.645a1.212 1.212 0 0 1-.268-1.571 1.162 1.162 0 0 1 1.51-.396c0-.011.007-.022.01-.032l-.31-.265a1.2 1.2 0 0 1-.294-1.486 1.165 1.165 0 0 1 1.773-.321l.715.612c.003-.005 0-.01.004-.014s.012-.005.017-.009a1.174 1.174 0 0 1 .045-1.457c.408-.549 1.227-.361 1.688.035l1.359 1.36a1.808 1.808 0 0 1 .493 1.63c-.5 2.522-1.963 9.079-3.437 7.815l-3.63-3.108a1.25 1.25 0 0 1-.274-1.529Z"/>
    <path fill="#00924C" d="m106.164 153.846-5.438 27.36-13.635-21.101-10.417 12.288L98.4 202.192l.184.173a8.896 8.896 0 0 0 3.95 2.088 8.885 8.885 0 0 0 8.317-2.358 8.954 8.954 0 0 0 2.279-3.854l8.128-43.333-3.019 1.469-4.528-.507h-5.032l-2.515-2.024Z"/>
    <path fill="#0C0C0C" d="M100.49 181.983a.161.161 0 0 1-.142-.083.163.163 0 0 1-.016-.124l.74-2.687a.16.16 0 0 1 .077-.099.162.162 0 0 1 .223.061.165.165 0 0 1 .015.125l-.74 2.687a.166.166 0 0 1-.058.087.17.17 0 0 1-.099.033Z"/>
    <path fill="#000" d="M43.003 132.065s-.858 7.714-2.717 10.442c-5.35 7.858-7.202 16.884-2.416 21.859 4.787 4.974 36.663 6.473 39.565-4.344 2.443-9.106-1.876-10.291-2.6-17.926-.327-3.455-1.328-10.713-1.328-10.713"/>
    <path fill="#E98862" d="M71.793 154.574c-.056.004 1.382 10.104-10.339 11.61-8.114 1.043-12.7-6.884-12.883-6.846.824-.362 2.182-.981 2.56-1.211 1.435-.871 2.533-1.965 2.438-4.502-.055-1.462-1.93-8.616-2.098-10.072l12.828.225c.445 3.058.675 10.31 5.134 10.685a37.9 37.9 0 0 0 2.36.111Z"/>
    <path fill="#000" d="M66.186 152.148a9.134 9.134 0 0 1-.76-1.836 20.88 20.88 0 0 1-.827-4.463 13.687 13.687 0 0 1-7.388-1.587c-.055.891-.555 4.84-.044 5.571.965 1.382 4.553 3.234 9.019 2.315Z" opacity=".52"/>
    <path fill="#E98862" d="M62.932 151.079c-4.953.258-11.246-2.01-12.274-8.664l-.928-6.004c-1.028-6.653 1.62-12.59 7.859-13.562 6.239-.972 11.736 3.696 12.764 10.35l.41 2.658c.395 2.553 1.006 14.762-7.831 15.222Z"/>
    <path fill="#0C0C0C" d="M65.196 141.976h.012c.253-.041.503-.096.75-.164.368-.106.852-.285.801-.618-.058-.379-1.725-4.308-1.915-4.755a.158.158 0 0 0-.087-.086.16.16 0 0 0-.207.211c.71 1.675 1.853 4.424 1.893 4.68-.045.116-.658.319-1.285.417a.16.16 0 0 0-.077.282.162.162 0 0 0 .113.036l.002-.003Zm-1.013 2.824a6.489 6.489 0 0 0 2.857-.982.16.16 0 0 0 .02-.273.146.146 0 0 0-.059-.026.158.158 0 0 0-.065-.001.182.182 0 0 0-.06.026c-1.863 1.134-3.684 1.267-5.263.384a1.138 1.138 0 0 0-.098-.051.16.16 0 0 0-.207.09.16.16 0 0 0 .09.207l.06.033c.83.466 1.779.672 2.725.593Z" opacity=".52"/>
    <path fill="#000" d="m44.701 138.326 5.593-.838c4.266-1.571 5.78-8.846 5.78-8.846s4.948 5.175 17.433 2.741c0 0-1.912-17.434-20.384-12.998-5.957 1.43-10.39 7.262-10.126 15.262.185 5.606 1.704 4.679 1.704 4.679Z"/>
    <path fill="#E98862" d="M51.359 144.382c-1.897.296-3.748-1.502-4.042-3.406-.295-1.904 1.08-3.193 2.976-3.488l1.174 1.123 1.521 5.517-1.63.254Z"/>
    <path fill="#3C3C3C" d="M66.084 133.312a3.645 3.645 0 0 1 1.858-.522c.322-.003.643.041.952.134.306.089.6.217.874.381a.167.167 0 0 1-.155.296l-.011-.006a3.454 3.454 0 0 0-.804-.308 2.8 2.8 0 0 0-.845-.079 3.186 3.186 0 0 0-1.584.516l-.015.01a.248.248 0 0 1-.347-.068.251.251 0 0 1 .067-.348l.01-.006Zm-4.995 1.007a3.186 3.186 0 0 0-1.665-.017c-.276.069-.541.18-.785.328a3.43 3.43 0 0 0-.675.535l-.009.009a.168.168 0 0 1-.181.036.164.164 0 0 1-.103-.154.166.166 0 0 1 .048-.118 3.79 3.79 0 0 1 .72-.627c.267-.18.56-.319.869-.412a3.627 3.627 0 0 1 1.928-.06.25.25 0 0 1 .182.304.25.25 0 0 1-.303.183l-.01-.003-.016-.004Z"/>
    <path fill="#0C0C0C" d="M64.349 146.309c.184-.015.366-.046.545-.092a.158.158 0 0 0 .094-.074.158.158 0 0 0 .017-.118.156.156 0 0 0-.071-.097.158.158 0 0 0-.118-.021c-1.076.273-1.668-.155-1.694-.174a.186.186 0 0 0-.056-.027.162.162 0 0 0-.166.059.16.16 0 0 0 .03.224c.422.268.923.381 1.419.32Z" opacity=".52"/>
    <path fill="#0C0C0C" d="m50.308 137.417-.05-.156c7.13-2.305 5.633-9.301 5.617-9.371l.16-.037c.016.072 1.543 7.214-5.727 9.564Z"/>
    <path fill="#0C0C0C" d="M60.182 142.297c.816-.061 1.441-.597 1.397-1.198-.045-.601-.742-1.039-1.558-.979-.816.061-1.441.598-1.397 1.199.044.601.742 1.039 1.558.978Zm8.682-2.005c.046.6.744 1.038 1.56.978a2.1 2.1 0 0 0 .416-.075c.07-.71.102-1.395.11-2.03a1.854 1.854 0 0 0-.687-.071c-.817.059-1.443.596-1.399 1.198Z" opacity=".1"/>
    <path fill="#0C0C0C" d="M68.862 136.339c.43 0 .778-.349.778-.781a.78.78 0 0 0-.778-.781.78.78 0 0 0-.778.781c0 .432.348.781.778.781Zm-7.699.781a.78.78 0 0 0 .778-.781.78.78 0 0 0-.778-.781.78.78 0 0 0-.777.781.78.78 0 0 0 .777.781Z"/>
    <path fill="#00924C" d="M90.617 173.588c.512 4.364 4.204 31.486 4.932 36.841l-48.177 9.913c-1.244-4.709-6.718-25.292-9.651-34.398-2.8-8.688-5.446-13.108-4.768-17.325.792-4.922 7.265-6.893 11.459-8.367 2.56-.9 6.47-1.971 6.47-1.971s1.726 6.745 9.802 5.478c10.994-1.724 8.694-9.283 8.748-9.295 1.763-.361 10.563-.963 13.328-.003 7.533 2.611 6.774 9.879 7.857 19.127Z"/>
    <path fill="#0C0C0C" d="m91.118 176.521-.324.047 2.441 16.851.324-.047-2.441-16.851Z"/>
    <path fill="#00924C" d="m28.838 246.118-15.754-4.402c7.288-26.295 19.12-69.545 19.843-73.653a6.74 6.74 0 0 0-.078 1.175l16.35-.232c.023 1.617.037 2.594-10.308 40.54a10344.5 10344.5 0 0 1-10.053 36.572Z"/>
    <path fill="#0C0C0C" d="M44.901 184.812 41.6 199.747l.32.072 3.302-14.936-.32-.071Z"/>
    <path fill="#262626" d="M80 214.855s42.959-22.284 54.858-26.406c3.082-1.068 8.714-2.05 13.542.784 14.402 8.455 52.432 42.883 52.432 42.883l-9.238 13.861-50.241-36.127s-24.072 17.244-45.804 24.829l-21.935-2.603 6.387-17.221Z"/>
    <path fill="#00924C" d="M206.48 236.126s7.694-1.256 8.331-8.436c.638-7.18 6.299-5.451 6.299-5.451l-.807 27.485-13.677-.404-.146-13.194Z"/>
    <path fill="#262626" d="M66.378 249.337s-2.298-.155 2.92.018c19.458.644 141.641.322 141.641.322l.062-18.404-144.582-10.302-.041 28.366Z"/>
    <path fill="#fff" d="M118.351 224.775h-.02l-14.251-1.804a.164.164 0 0 1 .041-.326l14.251 1.804a.165.165 0 0 1 .153.174.161.161 0 0 1-.055.113.162.162 0 0 1-.119.041v-.002Zm81.232 5.722h-.012l-34.241-2.435a.165.165 0 0 1-.096-.288.16.16 0 0 1 .118-.04l34.242 2.436a.192.192 0 0 1 .062.014.162.162 0 0 1 .085.092.176.176 0 0 1 .011.064.17.17 0 0 1-.052.114.164.164 0 0 1-.118.044l.001-.001Z"/>
    <path fill="#292A2E" d="M311.758 250H.241a.237.237 0 0 1-.176-.068.233.233 0 0 1-.074-.174.247.247 0 0 1 .074-.174.24.24 0 0 1 .176-.068h311.517a.238.238 0 0 1 .176.068c.023.022.042.05.055.079a.256.256 0 0 1 0 .19.244.244 0 0 1-.231.147Z"/>
  </g>
  <defs>
    <clipPath id="a">
      <path fill="#fff" d="M0 0h320v250H0z"/>
    </clipPath>
  </defs>
</svg>
