<svg xmlns="http://www.w3.org/2000/svg" width="29" height="31" fill="none" viewBox="0 0 29 31">
  <path fill="#000" d="M8.695 6.137h11.251c.563 0 1.023-.46 1.023-1.023V3.07A3.078 3.078 0 0 0 17.901 0h-7.16a3.078 3.078 0 0 0-3.07 3.069v2.045c0 .563.461 1.023 1.024 1.023Z"/>
  <path fill="#000" d="M25.572 2.557H24.55c-.306 0-.511.205-.511.512v2.045a4.104 4.104 0 0 1-4.092 4.092H8.695a4.104 4.104 0 0 1-4.092-4.092V3.07c0-.307-.205-.512-.511-.512H3.069A3.078 3.078 0 0 0 0 5.626v21.992a3.078 3.078 0 0 0 3.069 3.069h22.503a3.078 3.078 0 0 0 3.069-3.069V5.626a3.078 3.078 0 0 0-3.069-3.069Zm-2.66 12.275-9.819 9.82c-.256.255-.563.409-.92.409-.359 0-.717-.154-.972-.41L5.728 19.18c-.256-.256-.256-.563 0-.818l1.074-1.074c.256-.256.563-.256.819 0l4.5 4.5 8.848-8.847c.256-.256.563-.256.819 0l1.074 1.074c.255.255.255.613.05.818Z"/>
</svg>
