<svg width="25" height="25" viewBox="0 0 25 25" fill="none" xmlns="http://www.w3.org/2000/svg">
<path d="M12.5 0C5.5875 0 0 5.5875 0 12.5C0 19.4125 5.5875 25 12.5 25C19.4125 25 25 19.4125 25 12.5C25 5.5875 19.4125 0 12.5 0ZM17.875 17.875C17.3875 18.3625 16.6 18.3625 16.1125 17.875L12.5 14.2625L8.8875 17.875C8.4 18.3625 7.6125 18.3625 7.125 17.875C6.6375 17.3875 6.6375 16.6 7.125 16.1125L10.7375 12.5L7.125 8.8875C6.6375 8.4 6.6375 7.6125 7.125 7.125C7.6125 6.6375 8.4 6.6375 8.8875 7.125L12.5 10.7375L16.1125 7.125C16.6 6.6375 17.3875 6.6375 17.875 7.125C18.3625 7.6125 18.3625 8.4 17.875 8.8875L14.2625 12.5L17.875 16.1125C18.35 16.5875 18.35 17.3875 17.875 17.875Z" fill="white"/>
</svg>
