<svg width="20" height="20" viewBox="0 0 20 20" fill="none" xmlns="http://www.w3.org/2000/svg">
<path d="M5.91997 11.4697C7.32996 11.4697 8.45996 12.6107 8.45996 14.0307V17.4397C8.45996 18.8497 7.32996 19.9997 5.91997 19.9997H2.53999C1.13999 19.9997 0 18.8497 0 17.4397V14.0307C0 12.6107 1.13999 11.4697 2.53999 11.4697H5.91997ZM17.46 11.4697C18.86 11.4697 20 12.6107 20 14.0307V17.4397C20 18.8497 18.86 19.9997 17.46 19.9997H14.08C12.67 19.9997 11.54 18.8497 11.54 17.4397V14.0307C11.54 12.6107 12.67 11.4697 14.08 11.4697H17.46ZM5.91997 0C7.32996 0 8.45996 1.15 8.45996 2.561V5.97C8.45996 7.39 7.32996 8.53 5.91997 8.53H2.53999C1.13999 8.53 0 7.39 0 5.97V2.561C0 1.15 1.13999 0 2.53999 0H5.91997ZM17.46 0C18.86 0 20 1.15 20 2.561V5.97C20 7.39 18.86 8.53 17.46 8.53H14.08C12.67 8.53 11.54 7.39 11.54 5.97V2.561C11.54 1.15 12.67 0 14.08 0H17.46Z" fill="white"/>
</svg>
