<svg width="30" height="30" viewBox="0 0 30 30" fill="none" xmlns="http://www.w3.org/2000/svg">
<path d="M0 5.74676C0 2.57291 2.57291 0 5.74676 0H24.2533C27.4271 0 30 2.57291 30 5.74676V24.2533C30 27.4271 27.4271 30 24.2533 30H5.74676C2.57291 30 0 27.4271 0 24.2533V5.74676ZM23.2577 10.4005C23.676 9.98205 23.676 9.30366 23.2577 8.88525C22.8392 8.46681 22.1608 8.46681 21.7423 8.88525L11.7857 18.8419L8.25761 15.3137C7.83919 14.8954 7.16081 14.8954 6.74239 15.3137C6.32396 15.7322 6.32396 16.4106 6.74239 16.8291L11.0281 21.1149C11.4465 21.5331 12.1249 21.5331 12.5433 21.1149L23.2577 10.4005Z" fill="#0E5B28"/>
</svg>
