<svg width="30" height="30" viewBox="0 0 30 30" fill="none" xmlns="http://www.w3.org/2000/svg">
<path d="M23.6113 10.754L23.6113 10.754C24.2248 10.1403 24.2248 9.14541 23.6113 8.53175L23.6112 8.53167C22.9975 7.91801 22.0025 7.91801 21.3888 8.53167L21.3887 8.5317L11.7857 18.1348L8.61117 14.9602L8.61112 14.9601C7.99746 14.3466 7.00254 14.3466 6.38888 14.9601L6.38881 14.9602C5.77515 15.5739 5.77515 16.5689 6.38881 17.1827L6.38884 17.1827L10.6746 21.4684L10.6746 21.4685C11.2883 22.0819 12.2832 22.0819 12.8968 21.4685L12.8969 21.4684L18.2541 16.1112L23.6113 10.754ZM0.5 5.74676C0.5 2.84905 2.84905 0.5 5.74676 0.5H24.2533C27.1509 0.5 29.5 2.84905 29.5 5.74676V24.2533C29.5 27.1509 27.1509 29.5 24.2533 29.5H5.74676C2.84905 29.5 0.5 27.1509 0.5 24.2533V5.74676Z" stroke="#0E5B28"/>
</svg>
