<svg width="25" height="25" viewBox="0 0 25 25" fill="none" xmlns="http://www.w3.org/2000/svg">
<path d="M12.5 0C5.59642 0 0 5.59642 0 12.5C0 19.4036 5.59642 25 12.5 25C19.4036 25 25 19.4036 25 12.5C25 5.59642 19.4036 0 12.5 0ZM12.5 2.41935C18.0712 2.41935 22.5806 6.92797 22.5806 12.5C22.5806 18.0712 18.072 22.5806 12.5 22.5806C6.92883 22.5806 2.41935 18.072 2.41935 12.5C2.41935 6.92883 6.92797 2.41935 12.5 2.41935ZM19.5667 8.98523L18.4308 7.84017C18.1956 7.60302 17.8127 7.60146 17.5755 7.83674L10.4509 14.9041L7.4372 11.8659C7.20197 11.6288 6.819 11.6272 6.58185 11.8624L5.43674 12.9983C5.1996 13.2336 5.19803 13.6165 5.43332 13.8537L10.009 18.4664C10.2442 18.7036 10.6272 18.7051 10.8643 18.4699L19.5634 9.84063C19.8005 9.60534 19.802 9.22238 19.5667 8.98523Z" fill="white"/>
</svg>
