<svg width="18" height="20" viewBox="0 0 18 20" fill="none" xmlns="http://www.w3.org/2000/svg">
<path d="M1.80053 3.47542L1.8 14.1667C1.8 16.3758 3.65676 18.1834 6.00412 18.3245L6.3 18.3333L14.2459 18.3345C13.8749 19.3049 12.8751 20 11.7 20H5.4C2.41766 20 0 17.7614 0 15V5.83333C0 4.74464 0.751578 3.81848 1.80053 3.47542ZM15.3 0C16.7912 0 18 1.11929 18 2.5V14.1667C18 15.5474 16.7912 16.6667 15.3 16.6667H6.3C4.80883 16.6667 3.6 15.5474 3.6 14.1667V2.5C3.6 1.11929 4.80883 0 6.3 0H15.3ZM15.3 1.66667H6.3C5.80294 1.66667 5.4 2.03976 5.4 2.5V14.1667C5.4 14.6269 5.80294 15 6.3 15H15.3C15.7971 15 16.2 14.6269 16.2 14.1667V2.5C16.2 2.03976 15.7971 1.66667 15.3 1.66667Z" fill="black"/>
</svg>
