<svg width="32" height="22" viewBox="0 0 32 22" fill="none" xmlns="http://www.w3.org/2000/svg">
<path d="M4.57143 0C2.0467 0 0 1.96995 0 4.4V6.6H32V4.4C32 1.96995 29.9534 0 27.4286 0H4.57143Z" fill="#212121"/>
<path d="M0 17.5999V8.79993H32V17.5999C32 20.03 29.9534 21.9999 27.4286 21.9999H4.57143C2.0467 21.9999 0 20.03 0 17.5999ZM21.7143 15.3999C21.0832 15.3999 20.5714 15.8925 20.5714 16.4999C20.5714 17.1073 21.0832 17.5999 21.7143 17.5999H26.2857C26.9168 17.5999 27.4286 17.1073 27.4286 16.4999C27.4286 15.8925 26.9168 15.3999 26.2857 15.3999H21.7143Z" fill="#212121"/>
</svg>
