<svg width="27" height="27" viewBox="0 0 27 27" fill="none" xmlns="http://www.w3.org/2000/svg">
<path d="M12.1821 3.6355H3.48492C2.82588 3.6355 2.19383 3.8973 1.72782 4.36332C1.2618 4.82934 1 5.46139 1 6.12044V23.515C1 24.174 1.2618 24.8061 1.72782 25.2721C2.19383 25.7381 2.82588 25.9999 3.48492 25.9999H20.8793C21.5384 25.9999 22.1704 25.7381 22.6364 25.2721C23.1025 24.8061 23.3643 24.174 23.3643 23.515V14.8177" stroke="white" stroke-linecap="round" stroke-linejoin="round"/>
<path d="M21.5004 1.77197C21.9947 1.27769 22.6651 1 23.3641 1C24.0631 1 24.7335 1.27769 25.2278 1.77197C25.7221 2.26626 25.9998 2.93665 25.9998 3.63567C25.9998 4.3347 25.7221 5.00509 25.2278 5.49938L13.4244 17.3028L8.45459 18.5453L9.69705 13.5754L21.5004 1.77197Z" stroke="white" stroke-linecap="round" stroke-linejoin="round"/>
</svg>
