<svg width="35" height="35" viewBox="0 0 35 35" fill="none" xmlns="http://www.w3.org/2000/svg">
<g clip-path="url(#clip0_1015_778)">
<path d="M27.7222 3.88892H11.7222C11.1917 3.88892 10.683 4.11468 10.308 4.51654C9.93288 4.91841 9.72217 5.46345 9.72217 6.03177H27.7222V31.7461H11.7222V21.2461H9.72217V31.7461C9.72217 32.3144 9.93288 32.8594 10.308 33.2613C10.683 33.6632 11.1917 33.8889 11.7222 33.8889H27.7222C28.2526 33.8889 28.7613 33.6632 29.1364 33.2613C29.5115 32.8594 29.7222 32.3144 29.7222 31.7461V6.03177C29.7222 5.46345 29.5115 4.91841 29.1364 4.51654C28.7613 4.11468 28.2526 3.88892 27.7222 3.88892Z" fill="white"/>
<path d="M13.5466 17.5542C13.4382 17.6279 13.3502 17.7185 13.2881 17.8204C13.2259 17.9224 13.191 18.0334 13.1855 18.1466C13.18 18.2598 13.204 18.3726 13.2561 18.478C13.3081 18.5835 13.3871 18.6793 13.4879 18.7593C13.5888 18.8394 13.7095 18.9021 13.8423 18.9434C13.9752 18.9847 14.1173 19.0038 14.2599 18.9994C14.4025 18.995 14.5423 18.9673 14.6708 18.918C14.7992 18.8687 14.9134 18.7988 15.0062 18.7128L21 13.9552L15.0166 9.19758C14.8185 9.06297 14.5638 8.99263 14.3033 9.00061C14.0427 9.0086 13.7956 9.09433 13.6112 9.24067C13.4269 9.38701 13.3189 9.58318 13.3088 9.78998C13.2987 9.99678 13.3873 10.199 13.5569 10.3562L17.0455 13.0678H2.0352C1.76065 13.0678 1.49734 13.1543 1.3032 13.3084C1.10907 13.4625 1 13.6715 1 13.8894C1 14.1074 1.10907 14.3164 1.3032 14.4705C1.49734 14.6246 1.76065 14.7111 2.0352 14.7111H17.0455L13.5466 17.5542Z" fill="white"/>
</g>
<defs>
<clipPath id="clip0_1015_778">
<rect width="35" height="35" fill="white"/>
</clipPath>
</defs>
</svg>
