<svg width="30" height="30" viewBox="0 0 30 30" fill="none" xmlns="http://www.w3.org/2000/svg">
<path d="M14.121 3.83203C13.0253 4.06641 12.1288 4.59375 11.4257 5.41992C10.0839 7.00195 9.94909 9.29883 11.0975 11.0098L11.3964 11.4551L10.9276 11.6895C10.2714 12.0117 9.66784 12.6211 9.328 13.3008C8.95886 14.0449 8.89441 14.4316 8.91784 15.9434C8.93542 17.3438 8.94128 17.3672 9.33972 17.6602C9.56823 17.8301 10.119 17.8301 10.3475 17.6602C10.746 17.3672 10.746 17.3496 10.7811 15.8613C10.8163 14.5723 10.8221 14.4844 10.9569 14.209C11.1385 13.8398 11.4901 13.4824 11.8651 13.3008L12.1581 13.1543H14.9999C17.83 13.1543 17.8417 13.1543 18.1053 13.2891C18.5272 13.4941 18.7733 13.7285 18.9901 14.1328L19.1893 14.502L19.2186 15.8613C19.2479 17.1152 19.2596 17.2324 19.371 17.3789C19.5995 17.6895 19.787 17.7832 20.1561 17.7832C20.5253 17.7832 20.7128 17.6895 20.9413 17.3789C21.0585 17.2266 21.0643 17.1387 21.0643 15.7734C21.0643 14.4434 21.0526 14.291 20.9354 13.916C20.6366 12.9785 19.91 12.1055 19.0721 11.6895L18.6034 11.4551L18.9022 11.0039C20.1268 9.19336 19.869 6.69141 18.3104 5.12695C17.7128 4.53516 16.9979 4.13086 16.1132 3.88477C15.6561 3.76172 14.5897 3.73242 14.121 3.83203ZM15.6737 5.71289C16.787 6.00586 17.6073 6.92578 17.7714 8.0625C17.9764 9.45703 17.0624 10.7988 15.6737 11.1621C14.203 11.543 12.6678 10.6113 12.2753 9.11133C11.7538 7.10156 13.6639 5.19141 15.6737 5.71289Z" fill="white"/>
<path d="M4.42383 17.871C3.58008 18.0234 2.8418 18.4218 2.19141 19.0663C1.66406 19.5937 1.35352 20.0917 1.125 20.789C0.996094 21.1816 0.972656 21.3398 0.972656 22.0312C0.972656 22.7226 0.996094 22.8808 1.125 23.2734C1.35352 23.9706 1.66406 24.4687 2.19141 24.996C2.71875 25.5234 3.2168 25.8339 3.91406 26.0624C4.30664 26.1913 4.46484 26.2148 5.15625 26.2089C5.85352 26.2089 6 26.1913 6.41602 26.0566C7.08984 25.8339 7.58203 25.5234 8.11523 24.9902C8.92969 24.1757 9.32226 23.2968 9.33984 22.2538C9.3457 21.6386 9.29297 21.5097 8.94141 21.246C8.71289 21.0761 8.16211 21.0761 7.93359 21.246C7.63477 21.4687 7.55273 21.6386 7.49414 22.1542C7.39453 23.0917 6.91992 23.7714 6.10547 24.1581C5.74805 24.328 5.66016 24.3456 5.15625 24.3456C4.65234 24.3456 4.56445 24.328 4.20703 24.1581C3.66211 23.9003 3.32227 23.5722 3.05859 23.039C2.85352 22.6171 2.8418 22.5644 2.8418 22.037C2.8418 21.5273 2.85937 21.4394 3.0293 21.0819C3.41602 20.2675 4.0957 19.7929 5.0332 19.6933C5.54883 19.6347 5.71875 19.5527 5.94141 19.2538C6.11133 19.0253 6.11133 18.4745 5.94141 18.246C5.71289 17.9355 5.53125 17.8476 5.10937 17.83C4.89258 17.8241 4.58789 17.8417 4.42383 17.871Z" fill="white"/>
<path d="M14.2676 17.871C13.4238 18.0234 12.6855 18.4218 12.0352 19.0663C11.5078 19.5937 11.1973 20.0917 10.9687 20.789C10.8398 21.1816 10.8164 21.3398 10.8164 22.0312C10.8164 22.7226 10.8398 22.8808 10.9687 23.2734C11.1973 23.9706 11.5078 24.4687 12.0352 24.996C12.5625 25.5234 13.0605 25.8339 13.7578 26.0624C14.1504 26.1913 14.3086 26.2148 15 26.2089C15.6973 26.2089 15.8437 26.1913 16.2598 26.0566C16.9336 25.8339 17.4258 25.5234 17.959 24.9902C18.7734 24.1757 19.166 23.2968 19.1836 22.2538C19.1895 21.6386 19.1367 21.5097 18.7852 21.246C18.5566 21.0761 18.0059 21.0761 17.7773 21.246C17.4785 21.4687 17.3965 21.6386 17.3379 22.1542C17.2383 23.0917 16.7637 23.7714 15.9492 24.1581C15.5918 24.328 15.5039 24.3456 15 24.3456C14.4961 24.3456 14.4082 24.328 14.0508 24.1581C13.5059 23.9003 13.166 23.5722 12.9023 23.039C12.6973 22.6171 12.6855 22.5644 12.6855 22.037C12.6855 21.5273 12.7031 21.4394 12.873 21.0819C13.2598 20.2675 13.9395 19.7929 14.877 19.6933C15.3926 19.6347 15.5625 19.5527 15.7852 19.2538C15.9551 19.0253 15.9551 18.4745 15.7852 18.246C15.5566 17.9355 15.375 17.8476 14.9531 17.83C14.7363 17.8241 14.4316 17.8417 14.2676 17.871Z" fill="white"/>
<path d="M24.1113 17.871C23.2676 18.0234 22.5293 18.4218 21.8789 19.0663C21.3516 19.5937 21.041 20.0917 20.8125 20.789C20.6836 21.1816 20.6602 21.3398 20.6602 22.0312C20.6602 22.7226 20.6836 22.8808 20.8125 23.2734C21.041 23.9706 21.3516 24.4687 21.8789 24.996C22.4062 25.5234 22.9043 25.8339 23.6016 26.0624C23.9941 26.1913 24.1523 26.2148 24.8437 26.2089C25.541 26.2089 25.6875 26.1913 26.1035 26.0566C26.7773 25.8339 27.2695 25.5234 27.8027 24.9902C28.6172 24.1757 29.0098 23.2968 29.0273 22.2538C29.0332 21.6386 28.9805 21.5097 28.6289 21.246C28.4004 21.0761 27.8496 21.0761 27.6211 21.246C27.3223 21.4687 27.2402 21.6386 27.1816 22.1542C27.082 23.0917 26.6074 23.7714 25.793 24.1581C25.4355 24.328 25.3477 24.3456 24.8437 24.3456C24.3398 24.3456 24.252 24.328 23.8945 24.1581C23.3496 23.9003 23.0098 23.5722 22.7461 23.039C22.541 22.6171 22.5293 22.5644 22.5293 22.037C22.5293 21.5273 22.5469 21.4394 22.7168 21.0819C23.1035 20.2675 23.7832 19.7929 24.7207 19.6933C25.2363 19.6347 25.4062 19.5527 25.6289 19.2538C25.7988 19.0253 25.7988 18.4745 25.6289 18.246C25.4004 17.9355 25.2187 17.8476 24.7969 17.83C24.5801 17.8241 24.2754 17.8417 24.1113 17.871Z" fill="white"/>
<path d="M7.67582 18.791C7.58207 18.8085 7.08402 19.2597 6.34574 19.998L5.16215 21.1699L4.92777 20.9589C4.61136 20.6777 4.29496 20.5839 3.97269 20.6777C3.47465 20.83 3.1934 21.3281 3.33402 21.8085C3.44535 22.1777 4.62308 23.3496 4.93363 23.4081C5.45511 23.5078 5.47269 23.496 7.16605 21.8085C8.82425 20.1503 8.96488 19.9746 8.88285 19.5585C8.77738 18.9902 8.29105 18.6796 7.67582 18.791Z" fill="white"/>
<path d="M17.5196 18.791C17.4258 18.8085 16.9278 19.2597 16.1895 19.998L15.0059 21.1699L14.7715 20.9589C14.4551 20.6777 14.1387 20.5839 13.8164 20.6777C13.3184 20.83 13.0371 21.3281 13.1778 21.8085C13.2891 22.1777 14.4668 23.3496 14.7774 23.4081C15.2989 23.5078 15.3164 23.496 17.0098 21.8085C18.668 20.1503 18.8086 19.9746 18.7266 19.5585C18.6211 18.9902 18.1348 18.6796 17.5196 18.791Z" fill="white"/>
<path d="M27.3633 18.791C27.2696 18.8085 26.7715 19.2597 26.0332 19.998L24.8496 21.1699L24.6153 20.9589C24.2989 20.6777 23.9825 20.5839 23.6602 20.6777C23.1621 20.83 22.8809 21.3281 23.0215 21.8085C23.1328 22.1777 24.3106 23.3496 24.6211 23.4081C25.1426 23.5078 25.1602 23.496 26.8536 21.8085C28.5118 20.1503 28.6524 19.9746 28.5703 19.5585C28.4649 18.9902 27.9786 18.6796 27.3633 18.791Z" fill="white"/>
</svg>
