<svg width="35" height="35" viewBox="0 0 35 35" fill="none" xmlns="http://www.w3.org/2000/svg">
<g clip-path="url(#clip0_1035_822)">
<path d="M16.8962 7.6792C19.5682 7.6792 22.0861 8.86373 23.9312 10.7155V10.7209C23.9312 9.8317 24.5295 9.15904 25.3564 9.15904H25.5664C26.8712 9.15904 27.1326 10.3895 27.1326 10.7778L27.1381 24.5973C27.0473 25.503 28.0732 25.9711 28.6431 25.3892C30.8579 23.1109 33.5125 13.6653 27.2639 8.19654C21.4364 3.09201 13.615 3.93529 9.45652 6.80092C5.03668 9.85467 2.21152 16.5998 4.95574 22.9392C7.95262 29.8506 16.52 31.9123 21.619 29.8561C24.2003 28.8137 25.3903 32.2984 22.7073 33.4392C18.6637 35.164 7.3948 34.9879 2.13168 25.8737C-1.4241 19.717 -1.23598 8.8867 8.19871 3.27576C15.4098 -1.01939 24.9243 0.170607 30.66 6.15889C36.6537 12.425 36.307 24.1489 30.4554 28.7065C27.8053 30.7792 23.87 28.7634 23.8984 25.7436L23.8689 24.7592C22.0237 26.5869 19.5682 27.6587 16.8962 27.6587C11.6101 27.6587 6.95621 23.0037 6.95621 17.7231C6.95621 12.3856 11.6101 7.68139 16.8962 7.68139V7.6792ZM23.5451 17.3414C23.345 13.4728 20.4739 11.1431 17.0045 11.1431H16.8732C12.8745 11.1431 10.6531 14.2931 10.6531 17.8642C10.6531 21.8684 13.3361 24.3972 16.8568 24.3972C20.7867 24.3972 23.3668 21.5217 23.555 18.1201L23.5451 17.3414Z" fill="white"/>
</g>
<defs>
<clipPath id="clip0_1035_822">
<rect width="35" height="35" fill="white"/>
</clipPath>
</defs>
</svg>
