<svg width="35" height="35" viewBox="0 0 35 35" fill="none" xmlns="http://www.w3.org/2000/svg">
<path d="M17.4998 2.91663C9.44546 2.91663 2.9165 9.44558 2.9165 17.5C2.9165 25.5543 9.44546 32.0833 17.4998 32.0833C25.5542 32.0833 32.0832 25.5543 32.0832 17.5C32.0832 9.44558 25.5542 2.91663 17.4998 2.91663Z" stroke="white" stroke-width="1.5" stroke-linecap="round" stroke-linejoin="round"/>
<path d="M6.22852 26.7546C6.22852 26.7546 9.47914 22.6042 17.5 22.6042C25.5208 22.6042 28.7729 26.7546 28.7729 26.7546H6.22852ZM17.5 17.5C18.6603 17.5 19.7731 17.0391 20.5936 16.2186C21.414 15.3981 21.875 14.2853 21.875 13.125C21.875 11.9647 21.414 10.8519 20.5936 10.0314C19.7731 9.21094 18.6603 8.75 17.5 8.75C16.3397 8.75 15.2269 9.21094 14.4064 10.0314C13.5859 10.8519 13.125 11.9647 13.125 13.125C13.125 14.2853 13.5859 15.3981 14.4064 16.2186C15.2269 17.0391 16.3397 17.5 17.5 17.5V17.5Z" stroke="white" stroke-width="1.5" stroke-linecap="round" stroke-linejoin="round"/>
</svg>
