<svg width="35" height="35" viewBox="0 0 35 35" fill="none" xmlns="http://www.w3.org/2000/svg">
<path d="M28.4374 2.1875H32.8124V6.5625H28.4374V2.1875ZM28.4374 8.75H32.8124V13.125H28.4374V8.75ZM21.8749 2.1875H26.2499V6.5625H21.8749V2.1875ZM21.8749 8.75H26.2499V13.125H21.8749V8.75ZM27.3436 32.8125H27.1577C5.66551 31.5766 2.61395 13.4422 2.18739 7.90781C2.12072 7.04019 2.40141 6.18162 2.96774 5.52095C3.53406 4.86027 4.33962 4.45161 5.20723 4.38484C5.294 4.37828 5.38114 4.375 5.46864 4.375H11.2327C11.6708 4.37458 12.099 4.50571 12.4617 4.75143C12.8244 4.99714 13.105 5.34611 13.2671 5.75313L14.9296 9.84375C15.0896 10.2414 15.1294 10.6773 15.0438 11.0973C14.9583 11.5173 14.7512 11.9029 14.4483 12.2063L12.1186 14.5578C12.4811 16.6265 13.4709 18.5336 14.954 20.0206C16.4371 21.5075 18.3416 22.5024 20.4093 22.8703L22.7827 20.5188C23.0906 20.2192 23.4798 20.017 23.9019 19.9372C24.324 19.8575 24.7602 19.9038 25.1561 20.0703L29.2796 21.7219C29.6805 21.8891 30.0225 22.1719 30.2621 22.5342C30.5017 22.8965 30.628 23.3219 30.6249 23.7562V29.5312C30.6249 30.4015 30.2792 31.2361 29.6638 31.8514C29.0485 32.4668 28.2139 32.8125 27.3436 32.8125ZM5.46864 6.5625C5.325 6.56207 5.18269 6.58993 5.04983 6.6445C4.91696 6.69907 4.79614 6.77927 4.69428 6.88053C4.59241 6.98179 4.51148 7.10212 4.45612 7.23466C4.40075 7.36719 4.37204 7.50934 4.3716 7.65297C4.3716 7.68359 4.3716 7.71312 4.37489 7.74375C4.87801 14.2188 8.10457 29.5312 27.278 30.625C27.5675 30.6423 27.852 30.544 28.069 30.3516C28.286 30.1592 28.4177 29.8885 28.4352 29.5991L28.4374 29.5312V23.7562L24.3139 22.1047L21.1749 25.2219L20.6499 25.1562C11.1343 23.9641 9.84364 14.4484 9.84364 14.35L9.77801 13.825L12.8843 10.6859L11.2436 6.5625H5.46864Z" fill="white"/>
</svg>
