<svg width="35" height="35" viewBox="0 0 35 35" fill="none" xmlns="http://www.w3.org/2000/svg">
<path d="M17.4998 33.177C26.1581 33.177 33.1769 26.1582 33.1769 17.5C33.1769 8.84175 26.1581 1.82288 17.4998 1.82288C8.84162 1.82288 1.82275 8.84175 1.82275 17.5C1.82275 26.1582 8.84162 33.177 17.4998 33.177Z" stroke="white" stroke-linecap="round" stroke-linejoin="round"/>
<path d="M16.771 19.8523L18.3212 21.3522H20.2425V23.4135H22.2769V25.4195H25.3314V22.532L19.8481 16.7176L19.8889 16.6403C20.2837 15.5008 20.2812 14.2613 19.8817 13.1234C19.4823 11.9856 18.7094 11.0165 17.689 10.3738C16.6726 9.73831 15.4684 9.47227 14.2789 9.62047C13.0894 9.76868 11.9872 10.3221 11.1579 11.1876C10.3226 12.0588 9.80616 13.1866 9.69233 14.3881C9.5785 15.5897 9.87396 16.7944 10.5308 17.807C11.1804 18.8152 12.1571 19.5694 13.2969 19.9428C14.4367 20.3163 15.6703 20.2864 16.7907 19.8581L16.771 19.8523Z" stroke="white" stroke-linecap="round" stroke-linejoin="round"/>
<path d="M13.0615 14.2553C13.765 14.2553 14.3353 13.6807 14.3353 12.9719C14.3353 12.2632 13.765 11.6886 13.0615 11.6886C12.3579 11.6886 11.7876 12.2632 11.7876 12.9719C11.7876 13.6807 12.3579 14.2553 13.0615 14.2553Z" stroke="white" stroke-linecap="round" stroke-linejoin="round"/>
</svg>
