<svg width="20" height="20" viewBox="0 0 20 20" fill="none" xmlns="http://www.w3.org/2000/svg">
<path d="M0.47619 3.3221H3.85238C3.96838 3.9854 4.31417 4.58648 4.82892 5.01962C5.34366 5.45276 5.9944 5.69021 6.66667 5.69021C7.33893 5.69021 7.98967 5.45276 8.50442 5.01962C9.01916 4.58648 9.36495 3.9854 9.48095 3.3221H19.5238C19.6501 3.3221 19.7712 3.27185 19.8605 3.18239C19.9498 3.09294 20 2.97161 20 2.84511C20 2.7186 19.9498 2.59728 19.8605 2.50782C19.7712 2.41837 19.6501 2.36811 19.5238 2.36811H9.48095C9.36495 1.70482 9.01916 1.10373 8.50442 0.670593C7.98967 0.237453 7.33893 0 6.66667 0C5.9944 0 5.34366 0.237453 4.82892 0.670593C4.31417 1.10373 3.96838 1.70482 3.85238 2.36811H0.47619C0.349897 2.36811 0.228776 2.41837 0.139473 2.50782C0.0501699 2.59728 0 2.7186 0 2.84511C0 2.97161 0.0501699 3.09294 0.139473 3.18239C0.228776 3.27185 0.349897 3.3221 0.47619 3.3221V3.3221ZM6.66667 0.937136C7.04339 0.937136 7.41166 1.04904 7.7249 1.25869C8.03813 1.46834 8.28227 1.76632 8.42644 2.11496C8.5706 2.46359 8.60832 2.84722 8.53483 3.21733C8.46133 3.58744 8.27992 3.92741 8.01354 4.19425C7.74715 4.46108 7.40775 4.6428 7.03827 4.71642C6.66878 4.79004 6.2858 4.75225 5.93775 4.60784C5.5897 4.46343 5.29221 4.21888 5.08292 3.90512C4.87362 3.59135 4.7619 3.22247 4.7619 2.84511C4.7619 2.33908 4.96258 1.85378 5.3198 1.49597C5.67701 1.13815 6.16149 0.937136 6.66667 0.937136V0.937136ZM19.5238 9.52301H16.1476C16.0316 8.85971 15.6858 8.25863 15.1711 7.82549C14.6563 7.39235 14.0056 7.15489 13.3333 7.15489C12.6611 7.15489 12.0103 7.39235 11.4956 7.82549C10.9808 8.25863 10.6351 8.85971 10.519 9.52301H0.47619C0.349897 9.52301 0.228776 9.57326 0.139473 9.66272C0.0501699 9.75217 0 9.87349 0 10C0 10.1265 0.0501699 10.2478 0.139473 10.3373C0.228776 10.4267 0.349897 10.477 0.47619 10.477H10.519C10.6351 11.1403 10.9808 11.7414 11.4956 12.1745C12.0103 12.6077 12.6611 12.8451 13.3333 12.8451C14.0056 12.8451 14.6563 12.6077 15.1711 12.1745C15.6858 11.7414 16.0316 11.1403 16.1476 10.477H19.5238C19.6501 10.477 19.7712 10.4267 19.8605 10.3373C19.9498 10.2478 20 10.1265 20 10C20 9.87349 19.9498 9.75217 19.8605 9.66272C19.7712 9.57326 19.6501 9.52301 19.5238 9.52301ZM13.3333 11.908C12.9566 11.908 12.5883 11.7961 12.2751 11.5864C11.9619 11.3768 11.7177 11.0788 11.5736 10.7301C11.4294 10.3815 11.3917 9.99788 11.4652 9.62777C11.5387 9.25766 11.7201 8.9177 11.9865 8.65086C12.2528 8.38403 12.5922 8.20231 12.9617 8.12869C13.3312 8.05507 13.7142 8.09285 14.0623 8.23726C14.4103 8.38167 14.7078 8.62622 14.9171 8.93999C15.1264 9.25375 15.2381 9.62264 15.2381 10C15.2381 10.506 15.0374 10.9913 14.6802 11.3491C14.323 11.707 13.8385 11.908 13.3333 11.908V11.908ZM19.5238 16.6779H9.48095C9.36495 16.0146 9.01916 15.4135 8.50442 14.9804C7.98967 14.5472 7.33893 14.3098 6.66667 14.3098C5.9944 14.3098 5.34366 14.5472 4.82892 14.9804C4.31417 15.4135 3.96838 16.0146 3.85238 16.6779H0.47619C0.349897 16.6779 0.228776 16.7282 0.139473 16.8176C0.0501699 16.9071 0 17.0284 0 17.1549C0 17.2814 0.0501699 17.4027 0.139473 17.4922C0.228776 17.5816 0.349897 17.6319 0.47619 17.6319H3.85238C3.96838 18.2952 4.31417 18.8963 4.82892 19.3294C5.34366 19.7625 5.9944 20 6.66667 20C7.33893 20 7.98967 19.7625 8.50442 19.3294C9.01916 18.8963 9.36495 18.2952 9.48095 17.6319H19.5238C19.6501 17.6319 19.7712 17.5816 19.8605 17.4922C19.9498 17.4027 20 17.2814 20 17.1549C20 17.0284 19.9498 16.9071 19.8605 16.8176C19.7712 16.7282 19.6501 16.6779 19.5238 16.6779ZM6.66667 19.0629C6.28994 19.0629 5.92167 18.951 5.60844 18.7413C5.2952 18.5317 5.05106 18.2337 4.9069 17.885C4.76273 17.5364 4.72501 17.1528 4.7985 16.7827C4.872 16.4126 5.05341 16.0726 5.3198 15.8058C5.58618 15.5389 5.92558 15.3572 6.29507 15.2836C6.66455 15.21 7.04754 15.2477 7.39559 15.3922C7.74364 15.5366 8.04112 15.7811 8.25042 16.0949C8.45972 16.4086 8.57143 16.7775 8.57143 17.1549C8.57143 17.6609 8.37075 18.1462 8.01354 18.504C7.65632 18.8618 7.17184 19.0629 6.66667 19.0629Z" fill="white"/>
</svg>
