<svg width="15" height="20" viewBox="0 0 15 20" fill="none" xmlns="http://www.w3.org/2000/svg">
<path d="M13.958 7.14395L13.6429 16.8939C13.6161 17.7289 13.2721 18.5204 12.6839 19.1003C12.0957 19.6802 11.3096 20.0029 10.4925 20H4.50669C3.69012 20.003 2.90451 19.6807 2.31639 19.1015C1.72828 18.5222 1.3839 17.7316 1.35626 16.8971L1.04122 7.14395C1.03432 6.93037 1.11069 6.72273 1.25352 6.56672C1.39636 6.41071 1.59395 6.31911 1.80284 6.31206C2.01172 6.30501 2.21479 6.3831 2.36737 6.52914C2.51995 6.67518 2.60954 6.87721 2.61643 7.0908L2.93148 16.8431C2.94717 17.2595 3.12003 17.6534 3.41375 17.9422C3.70748 18.2309 4.09922 18.3921 4.50669 18.3918H10.4925C10.9005 18.392 11.2927 18.2304 11.5865 17.941C11.8803 17.6515 12.0528 17.2568 12.0677 16.8399L12.3828 7.0908C12.3897 6.87721 12.4793 6.67518 12.6318 6.52914C12.7844 6.3831 12.9875 6.30501 13.1964 6.31206C13.4053 6.31911 13.6029 6.41071 13.7457 6.56672C13.8885 6.72273 13.9649 6.93037 13.958 7.14395V7.14395ZM15 3.89934C15 4.11292 14.917 4.31776 14.7693 4.46878C14.6216 4.61981 14.4213 4.70465 14.2124 4.70465H0.787608C0.578722 4.70465 0.37839 4.61981 0.230685 4.46878C0.0829797 4.31776 0 4.11292 0 3.89934C0 3.68576 0.0829797 3.48092 0.230685 3.3299C0.37839 3.17887 0.578722 3.09402 0.787608 3.09402H3.22919C3.47875 3.09471 3.71962 3.00044 3.90495 2.82956C4.09027 2.65867 4.20679 2.4234 4.23182 2.16952C4.28994 1.57398 4.56282 1.0219 4.99729 0.620831C5.43176 0.219766 5.9967 -0.00154887 6.58204 8.16015e-06H8.41717C9.00251 -0.00154887 9.56745 0.219766 10.0019 0.620831C10.4364 1.0219 10.7093 1.57398 10.7674 2.16952C10.7924 2.4234 10.9089 2.65867 11.0943 2.82956C11.2796 3.00044 11.5205 3.09471 11.77 3.09402H14.2116C14.4205 3.09402 14.6208 3.17887 14.7685 3.3299C14.9162 3.48092 14.9992 3.68576 14.9992 3.89934H15ZM5.59911 3.09402H9.40168C9.29818 2.85222 9.23049 2.59601 9.20084 2.33381C9.18133 2.1353 9.09045 1.95127 8.94581 1.81737C8.80117 1.68347 8.61307 1.60922 8.41796 1.60903H6.58283C6.38771 1.60922 6.19961 1.68347 6.05498 1.81737C5.91034 1.95127 5.81946 2.1353 5.79995 2.33381C5.77004 2.59605 5.70209 2.85227 5.59832 3.09402H5.59911ZM6.39223 15.2953V8.43809C6.39223 8.22451 6.30925 8.01967 6.16154 7.86864C6.01384 7.71762 5.81351 7.63277 5.60462 7.63277C5.39573 7.63277 5.1954 7.71762 5.0477 7.86864C4.89999 8.01967 4.81701 8.22451 4.81701 8.43809V15.2986C4.81701 15.5121 4.89999 15.717 5.0477 15.868C5.1954 16.019 5.39573 16.1039 5.60462 16.1039C5.81351 16.1039 6.01384 16.019 6.16154 15.868C6.30925 15.717 6.39223 15.5121 6.39223 15.2986V15.2953ZM10.1838 15.2953V8.43809C10.1838 8.22451 10.1008 8.01967 9.95309 7.86864C9.80538 7.71762 9.60505 7.63277 9.39617 7.63277C9.18728 7.63277 8.98695 7.71762 8.83924 7.86864C8.69154 8.01967 8.60856 8.22451 8.60856 8.43809V15.2986C8.60856 15.5121 8.69154 15.717 8.83924 15.868C8.98695 16.019 9.18728 16.1039 9.39617 16.1039C9.60505 16.1039 9.80538 16.019 9.95309 15.868C10.1008 15.717 10.1838 15.5121 10.1838 15.2986V15.2953Z" fill="white"/>
</svg>
