<svg width="25" height="25" viewBox="0 0 25 25" fill="none" xmlns="http://www.w3.org/2000/svg">
<path d="M8.33333 0H2.77778C1.24365 0 0 1.24365 0 2.77778V8.33333C0 9.86746 1.24365 11.1111 2.77778 11.1111H8.33333C9.86746 11.1111 11.1111 9.86746 11.1111 8.33333V2.77778C11.1111 1.24365 9.86746 0 8.33333 0Z" fill="#E9F3D0"/>
<path d="M22.2222 0H16.6667C15.1325 0 13.8889 1.24365 13.8889 2.77778V8.33333C13.8889 9.86746 15.1325 11.1111 16.6667 11.1111H22.2222C23.7563 11.1111 25 9.86746 25 8.33333V2.77778C25 1.24365 23.7563 0 22.2222 0Z" fill="#E9F3D0"/>
<path d="M22.2222 13.8889H16.6666C15.1325 13.8889 13.8889 15.1326 13.8889 16.6667V22.2222C13.8889 23.7564 15.1325 25 16.6666 25H22.2222C23.7563 25 25 23.7564 25 22.2222V16.6667C25 15.1326 23.7563 13.8889 22.2222 13.8889Z" fill="#E9F3D0"/>
<path d="M8.33333 13.8889H2.77778C1.24365 13.8889 0 15.1326 0 16.6667V22.2222C0 23.7564 1.24365 25 2.77778 25H8.33333C9.86746 25 11.1111 23.7564 11.1111 22.2222V16.6667C11.1111 15.1326 9.86746 13.8889 8.33333 13.8889Z" fill="#E9F3D0"/>
</svg>
