<svg xmlns="http://www.w3.org/2000/svg" width="220" height="220" fill="none" viewBox="0 0 220 220">
  <path fill="#fff" d="M157.718 220c34.397 0 62.282-2.657 62.282-5.934 0-3.278-27.885-5.934-62.282-5.934-34.398 0-62.282 2.656-62.282 5.934 0 3.277 27.884 5.934 62.282 5.934Z"/>
  <path fill="#292A2E" d="M157.718 220c34.397 0 62.282-2.657 62.282-5.934 0-3.278-27.885-5.934-62.282-5.934-34.398 0-62.282 2.656-62.282 5.934 0 3.277 27.884 5.934 62.282 5.934Z" opacity=".1"/>
  <path fill="#0F8235" d="M54.327 125.819H34.474v5.965h19.853v-5.965Z"/>
  <path fill="#292A2E" d="M39.741 125.819h-2.6v5.965h2.6v-5.965Z" opacity=".05"/>
  <path fill="#fff" d="M51.79 127.115H40.974v3.535H51.79v-3.535Z"/>
  <path fill="#0F8235" d="m70.162 126.597-18.447-8.319-2.312 5.466 18.447 8.319 2.312-5.466Z"/>
  <path fill="#292A2E" d="m70.162 126.597-18.447-8.319-2.312 5.466 18.447 8.319 2.312-5.466Z" opacity=".05"/>
  <path fill="#fff" d="m67.685 125.48-2.417-1.09-2.312 5.466 2.417 1.09 2.312-5.466Zm-4.065-.418-10.05-4.533-1.37 3.239 10.05 4.533 1.37-3.239Z"/>
  <path fill="#292A2E" d="M70.197 201.379h-4.99v3.44h4.99v-3.44Zm-51.007 0H14.2v3.44h4.99v-3.44Z" opacity=".05"/>
  <path fill="#0F8235" d="M74.77 132.063H9.627v69.199H74.77v-69.199Z"/>
  <path fill="#292A2E" d="M74.77 132.063H9.627v69.199H74.77v-69.199Z" opacity=".03"/>
  <path fill="#0F8235" d="M86.842 132.063H21.699v69.199h65.143v-69.199Z"/>
  <path fill="#292A2E" d="M82.269 201.379h-4.99v3.44h4.99v-3.44Zm-51.008 0h-4.989v3.44h4.99v-3.44Z" opacity=".05"/>
  <path fill="#fff" d="M84.397 135.304H24.145v13.295h60.252v-13.295Zm0 16.549H24.145v13.294h60.252v-13.294Zm0 16.548H24.145v13.295h60.252v-13.295Z" opacity=".7"/>
  <path fill="#292A2E" d="M54.27 143.812c.996 0 1.802-.833 1.802-1.86 0-1.028-.806-1.86-1.801-1.86-.995 0-1.802.832-1.802 1.86 0 1.027.807 1.86 1.802 1.86Zm0 16.548c.996 0 1.802-.833 1.802-1.86 0-1.027-.806-1.86-1.801-1.86-.995 0-1.802.833-1.802 1.86 0 1.027.807 1.86 1.802 1.86Zm0 16.549c.996 0 1.802-.833 1.802-1.86 0-1.028-.806-1.86-1.801-1.86-.995 0-1.802.832-1.802 1.86 0 1.027.807 1.86 1.802 1.86Z" opacity=".05"/>
  <path fill="#fff" d="M84.397 185.323H24.145v13.294h60.252v-13.294Z" opacity=".7"/>
  <path fill="#292A2E" d="M54.27 193.83c.996 0 1.802-.833 1.802-1.86 0-1.027-.806-1.86-1.801-1.86-.995 0-1.802.833-1.802 1.86 0 1.027.807 1.86 1.802 1.86Z" opacity=".05"/>
  <path fill="#0F8235" d="M32.752 63.38H71.27V11.61H32.75v51.77Z"/>
  <path fill="#0F8235" d="M32.752 11.61h-1.25v51.77h1.25V11.61Z"/>
  <path fill="#292A2E" d="M32.752 11.61h-1.25v51.77h1.25V11.61Zm7.017 42.34h24.485V21.04H39.77v32.91Z" opacity=".05"/>
  <path fill="#292A2E" d="M39.769 53.95h1.276V21.04h-1.276v32.91Z" opacity=".03"/>
  <path fill="#0F8235" d="M1.25 108.939h31.502V76.112H1.249v32.827Z"/>
  <path fill="#292A2E" d="M6.988 102.959h20.025V82.092H6.988v20.867Z" opacity=".05"/>
  <path fill="#0F8235" d="M1.25 76.112H0v32.827h1.25V76.112Z"/>
  <path fill="#292A2E" d="M1.25 76.112H0v32.827h1.25V76.112Z" opacity=".05"/>
  <path fill="#292A2E" d="M6.988 102.959h1.276V82.092H6.988v20.867Z" opacity=".03"/>
  <path fill="#0F8235" d="M193.347 11.486h-80.384V94.49h80.384V11.486Zm-80.384 0h-.921V94.49h.921V11.486Z"/>
  <path fill="#292A2E" d="M112.963 11.486h-.921V94.49h.921V11.486Zm19.473 57.196V46.966h17.228v12.616h26.685v22.34h11.342v12.567H116.83V68.682h15.606Z" opacity=".05"/>
  <path fill="#FFFFFA" d="M147.452 49.323h-12.545v2.358h12.545v-2.358Zm0 4.887h-12.545v2.357h12.545V54.21Zm0 4.886h-12.545v2.358h12.545v-2.358ZM121.367 70.97h-2.313v2.358h2.313V70.97Zm0 4.887h-2.313v2.357h2.313v-2.357Zm0 4.886h-2.313V83.1h2.313v-2.357Zm4.277-9.773h-2.312v2.358h2.312V70.97Zm0 4.887h-2.312v2.357h2.312v-2.357Zm0 4.886h-2.312V83.1h2.312v-2.357Zm4.162-9.773h-2.312v2.358h2.312V70.97Zm0 4.887h-2.312v2.357h2.312v-2.357Zm0 4.886h-2.312V83.1h2.312v-2.357Z" opacity=".34"/>
  <path fill="#fff" d="M112.963 52.522h16.175V11.486h1.337v41.036h43.689V11.486h1.338v41.036h17.845v1.381h-17.845v40.586h-1.338V53.903h-43.689v40.586h-1.337V53.903h-16.175v-1.381Z"/>
  <path fill="#0F8235" d="M196.549 94.388h-86.788v2.76h86.788v-2.76Z"/>
  <path fill="#292A2E" d="M196.549 94.388h-86.788v2.76h86.788v-2.76Zm-86.788 0h-1.253v2.76h1.253v-2.76Z" opacity=".1"/>
  <path fill="#292A2E" d="M109.761 94.388h-1.253v2.76h1.253v-2.76Z" opacity=".1"/>
  <path fill="#3CA794" d="M179.563 108.608c-12.306 0-22.283 3.467-22.283 7.743v9.218h44.565v-9.218c0-4.276-9.976-7.743-22.282-7.743Z"/>
  <path fill="#fff" d="M179.563 108.608c-12.306 0-22.283 3.467-22.283 7.743v9.218h44.565v-9.218c0-4.276-9.976-7.743-22.282-7.743Z" opacity=".49"/>
  <path fill="#fff" d="M195.775 116.352v9.217H157.28v-9.217c0-3.92 8.378-7.158 19.247-7.67 10.871.512 19.248 3.75 19.248 7.67Z" opacity=".49"/>
  <path fill="#292A2E" d="M201.845 215.139h.748l-.748-90.387-.741.772.528 63.138-26.399.463-.532-63.608-.742.007.533 63.614-15.936.28-.535-63.901-.741-.759.748 90.381.735-.006-.201-24.949 15.936-.28.203 25.235.741-.006-.202-25.242 26.399-.464.206 25.712Z"/>
  <path fill="#3CA794" d="M134.633 201.607s-1.325 7.092-7.757 7.488c-6.431.395-5.037 5.686-5.037 5.686h24.578v-12.68l-11.784-.494Zm14.023-21.334s1.843 6.968-3.759 10.254c-5.602 3.287-2.089 7.398-2.089 7.398l22.054-11.203-5.421-11.377-10.785 4.928Z"/>
  <path fill="#262626" d="m146.322 184.878-16.617-64.742c-1.261-7.152.637-10.253 3.561-13.264 5.137-5.291 26.425-16.553 26.425-16.553l25.538-.072c6.772 0 13.428 6.895 13.428 13.887 0 6.992-6.883 12.922-13.655 12.922l-31.448 3.241 8.525 59.28-15.757 5.301Z"/>
  <path fill="#0C0C0C" d="m162.078 179.577-3.356-23.338-17.002 10.709 4.602 17.93 15.756-5.301Zm3.854-76.157s-10.735 2.471-21.368 13.45c-6.446 6.656-5.918 18.702-4.95 41.87l10.56-16.106 11.582-21.57 4.176-17.644Z"/>
  <path fill="#262626" d="m203.103 90.24-17.343-.085-.007.236h-5.251s-13.156 12.499-23.746 20.375c-7.704 5.729-12.404 11.191-12.81 17.144-.991 14.511-12.172 76.399-12.172 76.399l16.826 2.631 14.767-73.961s23.089-10.992 28.43-14.816c5.029-3.602 8.581-4.994 10.245-8.925 2.874-6.788 1.061-18.998 1.061-18.998Z"/>
  <path fill="#292A2E" d="m183.646 94.75-28.136.385 15.783 9.734 13.133-7.003c.316-.175.566-.455.71-.795.144-.34.174-.72.084-1.078a1.663 1.663 0 0 0-.579-.902 1.574 1.574 0 0 0-.995-.34Z"/>
  <path fill="#fff" d="m183.646 94.75-28.136.385 15.783 9.734 13.133-7.003c.316-.175.566-.455.71-.795.144-.34.174-.72.084-1.078a1.663 1.663 0 0 0-.579-.902 1.574 1.574 0 0 0-.995-.34Z" opacity=".2"/>
  <path fill="#3CA794" d="m155.671 42.63-7.958 26.626-15.94 21.55 9.311 11.037 18.964-21.855a6.752 6.752 0 0 0 1.986-2.706l.295-.738 10.954-27.366-17.612-6.548Z"/>
  <path fill="#0C0C0C" d="M167.931 14.368s-3.207-2.501-4.001-8.253c-.616-4.454 3.363-1.569 3.363-1.569s-.412-3.212 1.854-2.893c2.266.319 3.534 3.693 3.534 3.693m8.178-3.316s11.244 1.244 7.18 16.977l-.995.068-2.02.14"/>
  <path fill="#E98862" d="M169.814 35.437c.049-.007.598 9.392 11.171 8.573 7.321-.566 9.931-8.586 10.099-8.586-.789-.173-1.765-.436-2.152-.526a4.246 4.246 0 0 1-2.194-1.329 4.476 4.476 0 0 1-1.074-2.38c-.214-1.332.149-8.148.038-9.496l-11.236 2.59c.157 2.847 1.256 9.446-2.595 10.614a33.3 33.3 0 0 1-2.057.54Z"/>
  <path fill="#0C0C0C" d="M174.308 32.2c.176-.586.289-1.19.338-1.8a19.75 19.75 0 0 0-.074-4.19 12.13 12.13 0 0 0 6.211-2.808c.209.796 1.357 4.273 1.038 5.028-.6 1.429-3.422 3.77-7.513 3.77Z" opacity=".52"/>
  <path fill="#E98862" d="M176.627 30.34c4.434-.41 9.74-3.303 9.816-9.517l.069-5.607c.077-6.213-3.022-11.292-8.688-11.367-5.666-.074-9.963 4.908-10.04 11.122l-.03 2.482c.004.852.064 1.704.18 2.547.29 2.234.741 5.628 2.209 7.925 1.386 2.168 3.652 2.677 6.484 2.415Z"/>
  <path fill="#0C0C0C" d="M174.571 24.66a5.683 5.683 0 0 1-2.662-.525.148.148 0 0 1-.073-.192.145.145 0 0 1 .077-.079.139.139 0 0 1 .108 0c1.799.792 3.433.676 4.725-.336a.957.957 0 0 1 .081-.06.14.14 0 0 1 .104-.006.145.145 0 0 1 .081.067.15.15 0 0 1 .015.106.142.142 0 0 1-.058.089 4.206 4.206 0 0 1-2.398.936Zm.041 1.4c-.165.01-.331.007-.495-.012a.137.137 0 0 1-.096-.054.14.14 0 0 1-.026-.051.14.14 0 0 1-.005-.058.142.142 0 0 1 .157-.131c.99.109 1.463-.36 1.483-.38a.139.139 0 0 1 .202 0 .15.15 0 0 1 0 .209c-.341.3-.772.468-1.22.477Z" opacity=".52"/>
  <path fill="#0C0C0C" d="M169.656 18.648a.71.71 0 0 0 .698-.721.71.71 0 0 0-.698-.72.71.71 0 0 0-.698.72c0 .398.312.72.698.72Zm6.818-.442a.71.71 0 0 0 .698-.72.71.71 0 0 0-.698-.721.71.71 0 0 0-.698.72c0 .398.313.72.698.72Z"/>
  <path fill="#E98862" d="M186.068 22.713c1.722.023 3.141-1.861 3.164-3.64.022-1.777-1.362-2.776-3.084-2.798l-.902 1.18-.658 5.239 1.48.02Z"/>
  <path fill="#0C0C0C" d="M184.355 19.855s-.581-8.793-3.164-9.336c-1.719-.361-5.89 2.158-9.752 1.397-1.69-.332-3.294.099-3.457.923-.065.326-1.118-4.364 1.528-7.923 2.107-2.832 9.002-3.634 12.139-2.705 8.686 2.573 4.853 14.45 4.853 14.45l-.387 3.03-1.76.164Z"/>
  <path fill="#0C0C0C" d="M173.53 22.585a.1.1 0 0 1-.011 0c-.555-.005-1.485-.079-1.482-.507.004-.356.983-4.18 1.095-4.614a.144.144 0 0 1 .065-.089.139.139 0 0 1 .194.053.152.152 0 0 1 .014.11c-.435 1.694-1.083 4.301-1.085 4.543.054.102.627.207 1.201.213a.141.141 0 0 1 .138.142.14.14 0 0 1-.036.102.138.138 0 0 1-.093.048Z" opacity=".52"/>
  <path fill="#0C0C0C" d="M171.637 14.02a3.26 3.26 0 0 0-1.783 0 2.92 2.92 0 0 0-.81.366c-.248.16-.476.352-.677.57a.218.218 0 0 0-.004.294.201.201 0 0 0 .284.018l.012-.011c.187-.179.394-.332.618-.457a2.44 2.44 0 0 1 .701-.264 2.72 2.72 0 0 1 1.453.084l.019.007c.077.025.16.019.233-.018a.327.327 0 0 0 .143-.42.31.31 0 0 0-.17-.165l-.019-.005Zm4.129.361c.444-.223.937-.32 1.429-.283.249.017.495.072.728.165a3 3 0 0 1 .671.368l.013.009a.202.202 0 0 0 .28-.056.215.215 0 0 0 .035-.154.21.21 0 0 0-.077-.137 3.441 3.441 0 0 0-.745-.472 2.887 2.887 0 0 0-.851-.252 3.26 3.26 0 0 0-1.766.244.307.307 0 0 0-.164.177.322.322 0 0 0 .004.245.313.313 0 0 0 .289.192c.041 0 .081-.01.118-.027l.018-.008.018-.011Zm-.283-9.424c.392-1.937-.323-3.73-1.598-4.006-1.275-.275-2.625 1.073-3.017 3.01-.392 1.937.323 3.73 1.598 4.005 1.274.275 2.625-1.072 3.017-3.01Z"/>
  <path fill="#3CA794" d="M156.676 56.094c.333 4.04 2.694 29.248 3.015 34.226h43.393c.25-4.49 1.369-24.117 2.315-32.896.902-8.377 2.167-12.188 1.128-14.791-1.834-4.591-7.669-6.641-11.621-7.194-2.413-.337-6.043-.579-6.043-.579s-.307 6.42-7.635 6.777c-9.975.485-9.308-6.777-9.358-6.777-1.616 0-10.412 1.214-12.611 2.694-3.107 2.09-4.025 4.94-4.061 7.557-.042 3.015 1.101 6.4 1.478 10.983Z"/>
  <path fill="#0C0C0C" d="M158.876 80.385a.122.122 0 0 1-.084-.033.13.13 0 0 1-.04-.083l-1.644-19.416a.135.135 0 0 1 .029-.093.122.122 0 0 1 .205.023.158.158 0 0 1 .013.048l1.644 19.416a.135.135 0 0 1-.029.093.122.122 0 0 1-.094.045Z"/>
  <path fill="#E98862" d="m162.023 91.663 5.958-4.991-1.003.293a1.29 1.29 0 0 1-.967-.121 1.36 1.36 0 0 1-.627-.77 1.358 1.358 0 0 1 .118-1.036 1.3 1.3 0 0 1 .81-.624l12.517-3.144 1.077 4.117a6.85 6.85 0 0 1-.123 3.885 6.642 6.642 0 0 1-2.205 3.15l-4.638 3.614a1.282 1.282 0 0 1-1.656-.033 1.355 1.355 0 0 1-.318-1.531.113.113 0 0 1-.052-.034.12.12 0 0 1-.025-.053.133.133 0 0 1 .002-.06l-.854.668a1.299 1.299 0 0 1-1.806-.154 1.348 1.348 0 0 1-.005-1.698.115.115 0 0 1-.038-.014l-.351.275a1.284 1.284 0 0 1-.834.288 1.287 1.287 0 0 1-.822-.321 1.351 1.351 0 0 1-.142-1.827.108.108 0 0 1-.012-.024l-2.482 2.079a1.19 1.19 0 0 1-.884.271 1.176 1.176 0 0 1-.45-.143 1.221 1.221 0 0 1-.362-.31 1.273 1.273 0 0 1 .177-1.753l-.003.001Z"/>
  <path fill="#0A0A0A" d="M166.175 91.592a.109.109 0 0 0 .036-.02l2.388-2.049a.119.119 0 0 0 .029-.037.126.126 0 0 0 .014-.047.155.155 0 0 0-.005-.048.134.134 0 0 0-.059-.073.118.118 0 0 0-.133.015l-2.387 2.047a.124.124 0 0 0-.042.074.128.128 0 0 0 .014.083.123.123 0 0 0 .063.055c.027.01.056.01.082 0Zm2.104 1.548a.123.123 0 0 0 .036-.022l1.888-1.594c.025-.02.04-.05.044-.084a.129.129 0 0 0-.027-.09.118.118 0 0 0-.169-.018l-1.888 1.594a.13.13 0 0 0-.043.074.13.13 0 0 0 .014.084.12.12 0 0 0 .063.055c.026.01.056.01.082 0Zm2.764 1.336a.12.12 0 0 0 .038-.022l.875-.775a.121.121 0 0 0 .041-.085.112.112 0 0 0-.005-.048.132.132 0 0 0-.023-.042.119.119 0 0 0-.129-.037.115.115 0 0 0-.04.024l-.875.774a.118.118 0 0 0-.04.074.126.126 0 0 0 .014.083.12.12 0 0 0 .144.054Z" opacity=".2"/>
  <path fill="#3CA794" d="m214.684 79.437-.046-.21-7.921-36.172-15.669 3.657 6.182 28.236-24.764 6.283 3.048 14.429 33.001-6.5a7.71 7.71 0 0 0 3.05-1.338 7.993 7.993 0 0 0 2.103-2.287 8.233 8.233 0 0 0 1.095-2.945 8.362 8.362 0 0 0-.079-3.153Z"/>
  <path fill="#0C0C0C" d="M172.345 81.258a.129.129 0 0 1 .016-.094.124.124 0 0 1 .075-.056l24.654-6.252-4.008-18.282a.127.127 0 0 1 .012-.1.126.126 0 0 1 .079-.059.122.122 0 0 1 .149.103l4.036 18.404a.134.134 0 0 1-.015.096.126.126 0 0 1-.076.057l-24.656 6.252s.165.745.212.996a.124.124 0 0 1-.025.091.118.118 0 0 1-.169.02.127.127 0 0 1-.045-.083c-.057-.275-.239-1.093-.239-1.093Z"/>
  <path fill="#292A2E" d="m173.311 101.407-9.521-30.222a2.645 2.645 0 0 0-.931-1.322 2.51 2.51 0 0 0-1.505-.505h-38.792c-.404 0-.803.099-1.163.288-.36.19-.672.465-.91.803a2.731 2.731 0 0 0-.363 2.373l9.522 30.221c.167.531.493.994.931 1.322a2.5 2.5 0 0 0 1.505.505h38.791a2.49 2.49 0 0 0 1.163-.288c.36-.19.672-.465.91-.802a2.73 2.73 0 0 0 .363-2.373Z"/>
  <path fill="#fff" d="m173.311 101.407-9.521-30.222a2.645 2.645 0 0 0-.931-1.322 2.51 2.51 0 0 0-1.505-.505h-38.792c-.404 0-.803.099-1.163.288-.36.19-.672.465-.91.803a2.731 2.731 0 0 0-.363 2.373l9.522 30.221c.167.531.493.994.931 1.322a2.5 2.5 0 0 0 1.505.505h38.791a2.49 2.49 0 0 0 1.163-.288c.36-.19.672-.465.91-.802a2.73 2.73 0 0 0 .363-2.373Z" opacity=".2"/>
  <path fill="#fff" d="M145.601 91.315c2.247 0 4.069-1.88 4.069-4.2 0-2.321-1.822-4.202-4.069-4.202s-4.068 1.881-4.068 4.201c0 2.32 1.821 4.201 4.068 4.201Z"/>
  <path fill="#292A2E" d="M107.302 3.194h-76.99c-3.568 0-6.459 2.985-6.459 6.668v96.511c0 3.683 2.891 6.668 6.458 6.668h76.991c3.567 0 6.458-2.985 6.458-6.668V9.863c0-3.684-2.891-6.67-6.458-6.67Z"/>
  <path fill="#fff" d="M110.148.255H33.157c-3.567 0-6.458 2.986-6.458 6.669v96.51c0 3.683 2.891 6.669 6.458 6.669h76.991c3.567 0 6.458-2.986 6.458-6.669V6.924c0-3.683-2.891-6.669-6.458-6.669Z"/>
  <path fill="#292A2E" d="M110.148 110.358h-76.99a6.607 6.607 0 0 1-4.74-2.03 7.047 7.047 0 0 1-1.966-4.894V6.924a7.048 7.048 0 0 1 1.966-4.894A6.607 6.607 0 0 1 33.158 0h76.99a6.607 6.607 0 0 1 4.739 2.03 7.048 7.048 0 0 1 1.966 4.894v96.51a7.048 7.048 0 0 1-1.966 4.894 6.606 6.606 0 0 1-4.739 2.03ZM33.158.51a6.12 6.12 0 0 0-4.39 1.881 6.528 6.528 0 0 0-1.822 4.533v96.51a6.53 6.53 0 0 0 1.821 4.533 6.118 6.118 0 0 0 4.39 1.88h76.991a6.118 6.118 0 0 0 4.39-1.88 6.533 6.533 0 0 0 1.821-4.533V6.924a6.53 6.53 0 0 0-1.821-4.533 6.121 6.121 0 0 0-4.39-1.88h-76.99Z"/>
  <path fill="#292A2E" d="M25.662 123.912c8.855 0 16.034-7.412 16.034-16.556 0-9.144-7.179-16.557-16.034-16.557-8.856 0-16.035 7.412-16.035 16.557 0 9.144 7.18 16.556 16.035 16.556Z"/>
  <path fill="#fff" d="M22.333 105.195a.784.784 0 0 1-.563-.241.836.836 0 0 1-.233-.581v-3.979c0-2.2 1.85-3.99 4.125-3.99 2.274 0 4.124 1.79 4.124 3.99v3.706a.843.843 0 0 1-.228.591.803.803 0 0 1-.567.245.803.803 0 0 1-.74-.517.845.845 0 0 1-.056-.319v-3.706c0-1.294-1.137-2.346-2.533-2.346s-2.533 1.052-2.533 2.346v3.98a.835.835 0 0 1-.233.58.784.784 0 0 1-.563.241Z"/>
  <path fill="#fff" d="M30.74 103.685H20.584c-.593 0-1.073.496-1.073 1.108v9.877c0 .612.48 1.108 1.073 1.108H30.74c.592 0 1.072-.496 1.072-1.108v-9.877c0-.612-.48-1.108-1.072-1.108Z"/>
  <path fill="#292A2E" d="M24.65 108.754c0 .196.054.387.154.554.1.166.245.299.415.385v1.604c0 .121.046.237.13.323a.436.436 0 0 0 .624 0 .466.466 0 0 0 .129-.323v-1.604c.162-.081.3-.206.4-.361a1.07 1.07 0 0 0-.305-1.463.988.988 0 0 0-1.407.355c-.092.16-.14.343-.14.53Z"/>
  <path fill="#fff" d="M103.425 55.066H39.88c-1.517 0-2.746 1.27-2.746 2.836v9.199c0 1.566 1.23 2.836 2.746 2.836h63.545c1.517 0 2.746-1.27 2.746-2.836v-9.199c0-1.566-1.229-2.836-2.746-2.836Z"/>
  <path fill="#292A2E" d="M103.424 70.192H39.88a2.95 2.95 0 0 1-2.116-.907 3.148 3.148 0 0 1-.878-2.185v-9.198c.002-.82.317-1.605.878-2.185a2.95 2.95 0 0 1 2.116-.907h63.544a2.95 2.95 0 0 1 2.116.907c.562.58.877 1.365.878 2.185V67.1a3.144 3.144 0 0 1-.878 2.185 2.949 2.949 0 0 1-2.116.907ZM39.88 55.32c-.662 0-1.298.273-1.766.757a2.627 2.627 0 0 0-.733 1.824V67.1c0 .685.264 1.34.733 1.825a2.463 2.463 0 0 0 1.766.756h63.544a2.46 2.46 0 0 0 1.767-.757c.469-.483.732-1.14.733-1.824v-9.198a2.627 2.627 0 0 0-.733-1.824 2.464 2.464 0 0 0-1.767-.757H39.88Z"/>
  <path fill="#fff" d="M103.425 76.318H39.88c-1.517 0-2.746 1.27-2.746 2.836v9.198c0 1.567 1.23 2.837 2.746 2.837h63.545c1.517 0 2.746-1.27 2.746-2.837v-9.198c0-1.566-1.229-2.836-2.746-2.836Z"/>
  <path fill="#292A2E" d="M103.424 91.443H39.88a2.95 2.95 0 0 1-2.116-.906 3.147 3.147 0 0 1-.878-2.186v-9.197c.002-.82.317-1.605.878-2.185a2.95 2.95 0 0 1 2.116-.906h63.544c.794 0 1.555.326 2.116.906.562.58.877 1.365.878 2.185v9.197c0 .82-.316 1.606-.877 2.186a2.953 2.953 0 0 1-2.117.906ZM39.88 76.573c-.662 0-1.298.273-1.766.757a2.627 2.627 0 0 0-.733 1.824v9.197c0 .685.264 1.34.733 1.825a2.463 2.463 0 0 0 1.766.756h63.544c.663 0 1.298-.273 1.767-.756.469-.484.732-1.14.733-1.825v-9.197a2.627 2.627 0 0 0-.733-1.824 2.463 2.463 0 0 0-1.767-.757H39.88Z"/>
  <path fill="#fff" d="M71.652 44.005c8.148 0 14.754-6.82 14.754-15.234S79.8 13.536 71.652 13.536 56.9 20.358 56.9 28.771s6.605 15.234 14.753 15.234Z"/>
  <path fill="#292A2E" d="M71.652 44.26c-2.966 0-5.867-.908-8.334-2.61a15.394 15.394 0 0 1-5.524-6.952 15.958 15.958 0 0 1-.854-8.95 15.651 15.651 0 0 1 4.105-7.93 14.86 14.86 0 0 1 7.68-4.24c2.91-.597 5.927-.29 8.668.882a15.116 15.116 0 0 1 6.732 5.705 15.85 15.85 0 0 1 2.528 8.606c-.005 4.106-1.586 8.043-4.399 10.947-2.812 2.904-6.625 4.537-10.602 4.542Zm0-30.468c-2.869 0-5.673.878-8.059 2.524a14.885 14.885 0 0 0-5.343 6.722 15.432 15.432 0 0 0-.825 8.655 15.136 15.136 0 0 0 3.97 7.67 14.372 14.372 0 0 0 7.427 4.099c2.814.578 5.731.281 8.382-.853a14.618 14.618 0 0 0 6.51-5.517 15.328 15.328 0 0 0 2.445-8.321c-.005-3.972-1.534-7.779-4.254-10.587-2.72-2.808-6.407-4.388-10.253-4.392Z"/>
  <path fill="#3CA794" d="M86.078 28.77c.004 3.527-1.207 6.94-3.418 9.627a14.553 14.553 0 0 0-4.95-3.857 14.117 14.117 0 0 0-6.059-1.368c-2.09 0-4.157.468-6.057 1.37a14.555 14.555 0 0 0-4.95 3.859 15.088 15.088 0 0 1-3.064-6.345c-.512-2.339-.47-4.77.123-7.089a15.046 15.046 0 0 1 3.283-6.227 14.41 14.41 0 0 1 5.699-3.955 14 14 0 0 1 6.824-.787c2.302.31 4.5 1.187 6.403 2.56a14.76 14.76 0 0 1 4.532 5.326 15.287 15.287 0 0 1 1.634 6.887Z" opacity=".5"/>
  <path fill="#fff" d="M82.66 38.397a14.487 14.487 0 0 1-4.94 3.887c-1.902.91-3.972 1.382-6.067 1.382s-4.165-.47-6.066-1.38a14.485 14.485 0 0 1-4.942-3.885 14.555 14.555 0 0 1 4.949-3.859c1.9-.902 3.966-1.37 6.057-1.37 2.092 0 4.158.467 6.058 1.368 1.9.902 3.59 2.218 4.95 3.857Zm-11.007-8.004c3.22 0 5.83-2.696 5.83-6.021 0-3.325-2.61-6.021-5.83-6.021s-5.832 2.696-5.832 6.02c0 3.326 2.611 6.022 5.832 6.022Z"/>
  <path fill="#292A2E" d="M42.483 85.564c.968 0 1.753-.81 1.753-1.81 0-1.001-.785-1.812-1.753-1.812-.969 0-1.754.811-1.754 1.811 0 1 .785 1.811 1.754 1.811Zm5.486 0c.968 0 1.753-.81 1.753-1.81 0-1.001-.785-1.812-1.753-1.812-.969 0-1.754.811-1.754 1.811 0 1 .785 1.811 1.754 1.811Zm5.486 0c.968 0 1.753-.81 1.753-1.81 0-1.001-.785-1.812-1.753-1.812-.969 0-1.754.811-1.754 1.811 0 1 .785 1.811 1.754 1.811Zm5.485 0c.97 0 1.754-.81 1.754-1.81 0-1.001-.785-1.812-1.753-1.812-.969 0-1.754.811-1.754 1.811 0 1 .785 1.811 1.754 1.811Zm5.486 0c.969 0 1.754-.81 1.754-1.81 0-1.001-.785-1.812-1.754-1.812-.968 0-1.753.811-1.753 1.811 0 1 .785 1.811 1.753 1.811Zm5.486 0c.969 0 1.754-.81 1.754-1.81 0-1.001-.785-1.812-1.754-1.812-.968 0-1.753.811-1.753 1.811 0 1 .785 1.811 1.753 1.811Zm5.486 0c.969 0 1.754-.81 1.754-1.81 0-1.001-.785-1.812-1.754-1.812-.968 0-1.753.811-1.753 1.811 0 1 .785 1.811 1.753 1.811Z" opacity=".4"/>
  <path fill="#000" d="M44.222 62.392v.613H41.97v-.613h2.252Zm2.799 0v.613h-2.252v-.613h2.252Zm2.799 0v.613h-2.253v-.613h2.253Zm2.798 0v.613h-2.252v-.613h2.252Zm2.8 0v.613h-2.253v-.613h2.253Zm5.051 3.456a3.236 3.236 0 0 1-1.622.377c-1.496 0-2.763-1.13-2.763-2.938 0-1.94 1.304-3.615 3.328-3.615 1.587 0 2.654 1.148 2.654 2.72 0 1.413-.767 2.242-1.624 2.242-.364 0-.702-.255-.674-.829h-.037c-.118.249-.3.458-.528.604a1.4 1.4 0 0 1-.757.225c-.53 0-.985-.443-.985-1.186a2.287 2.287 0 0 1 .162-.856 2.23 2.23 0 0 1 .469-.725c.2-.207.44-.372.702-.483.263-.112.544-.17.828-.168a2.33 2.33 0 0 1 .976.198l-.31 1.704c-.137.715-.027 1.046.273 1.055.466.009.985-.632.985-1.724 0-1.365-.793-2.344-2.206-2.344-1.487 0-2.736 1.215-2.736 3.126 0 1.572.994 2.542 2.343 2.542a2.76 2.76 0 0 0 1.377-.33l.145.405Zm-.502-4.068a1.527 1.527 0 0 0-.456-.066c-.802 0-1.45.782-1.45 1.695 0 .414.201.715.602.715.53 0 1.012-.697 1.113-1.281l.191-1.063Zm4.969.612v.613h-2.253v-.613h2.253Zm2.799 0v.613h-2.253v-.613h2.253Zm2.799 0v.613H68.28v-.613h2.252Z" opacity=".3"/>
</svg>
