<svg xmlns="http://www.w3.org/2000/svg" width="34" height="26" fill="none" viewBox="0 0 34 26">
  <path fill="#000" d="M6.101 25.18v-1.622c0-.622-.404-1.028-1.067-1.028-.348 0-.72.109-.98.457-.202-.297-.488-.457-.923-.457a1.035 1.035 0 0 0-.47.091.967.967 0 0 0-.366.288v-.326h-.548v2.596h.548v-1.486c0-.457.288-.676.692-.676.404 0 .635.244.635.676v1.488h.548v-1.488c0-.457.288-.676.692-.676.404 0 .635.244.635.676v1.488H6.1Zm9.001-2.569h-1.01v-.783h-.547v.783h-.576v.457h.576v1.22c0 .595.23.947.923.947.263-.005.52-.07.75-.19l-.174-.456a.997.997 0 0 1-.52.135c-.288 0-.433-.163-.433-.433v-1.244h1.01v-.433l.001-.003Zm5.135-.08a.91.91 0 0 0-.428.096.843.843 0 0 0-.322.282v-.326h-.548v2.596h.548V23.72c0-.433.23-.704.606-.704.127.005.252.023.375.055l.173-.488a2.064 2.064 0 0 0-.404-.054Zm-7.76.27c-.289-.19-.693-.27-1.125-.27-.692 0-1.125.297-1.125.811 0 .433.318.676.923.758l.288.026c.318.054.52.163.52.298 0 .19-.23.326-.664.326a1.592 1.592 0 0 1-.923-.27l-.288.406c.404.27.894.326 1.184.326.808 0 1.24-.351 1.24-.838 0-.457-.348-.676-.952-.758l-.288-.026c-.26-.027-.488-.109-.488-.27 0-.19.23-.327.549-.327.348 0 .692.135.865.216l.284-.408Zm8.366 1.082c0 .783.548 1.352 1.443 1.352.404 0 .692-.08.98-.298l-.288-.405c-.204.155-.458.24-.721.243-.488 0-.866-.351-.866-.865s.374-.863.866-.863c.263.003.517.089.721.244l.288-.405c-.288-.217-.576-.298-.98-.298-.866-.055-1.443.514-1.443 1.298v-.003Zm-3.866-1.353c-.808 0-1.356.541-1.356 1.353 0 .811.577 1.352 1.413 1.352.407.008.805-.116 1.125-.351l-.288-.379a1.436 1.436 0 0 1-.808.27c-.375 0-.779-.216-.836-.675h2.049v-.217c0-.811-.52-1.352-1.299-1.352Zm-.028.487c.404 0 .692.244.72.65h-1.5c.087-.38.35-.65.78-.65Zm-7.472.866v-1.299h-.548v.327c-.202-.244-.488-.379-.895-.379-.778 0-1.356.568-1.356 1.353 0 .784.577 1.352 1.356 1.352.404 0 .693-.135.895-.379v.327h.548v-1.302Zm-2.221 0c0-.488.317-.866.865-.866.52 0 .836.38.836.866 0 .514-.348.865-.836.865-.548.027-.865-.379-.865-.865Zm21.32-1.353a.91.91 0 0 0-.429.097.843.843 0 0 0-.322.282v-.326h-.548v2.596h.547V23.72c0-.433.231-.704.606-.704.127.005.253.023.375.055l.174-.488a2.064 2.064 0 0 0-.404-.054Zm-2.136 1.353v-1.299h-.548v.327c-.202-.244-.487-.379-.894-.379-.779 0-1.356.568-1.356 1.353 0 .784.576 1.352 1.356 1.352.404 0 .692-.135.894-.379v.327h.549v-1.302Zm-2.22 0c0-.488.317-.866.865-.866.52 0 .836.38.836.866 0 .514-.348.865-.836.865-.548.027-.866-.379-.866-.865Zm7.789 0v-2.326h-.549v1.352c-.201-.243-.487-.379-.894-.379-.779 0-1.356.568-1.356 1.353 0 .784.577 1.352 1.356 1.352.404 0 .693-.135.895-.379v.327h.548v-1.3Zm-2.222 0c0-.488.318-.866.866-.866.52 0 .836.38.836.866 0 .514-.348.865-.836.865-.549.027-.866-.378-.866-.865Z"/>
  <path fill="#FF5F00" d="M11.842 2.895h10.011v15.308h-10.01V2.895Z"/>
  <path fill="#EB001B" d="M12.852 10.549c0-1.473.356-2.926 1.04-4.252a9.905 9.905 0 0 1 2.913-3.402 10.774 10.774 0 0 0-5.31-2.027 10.994 10.994 0 0 0-5.648.923c-1.753.799-3.23 2.043-4.265 3.592A9.292 9.292 0 0 0 0 10.55c0 1.827.548 3.617 1.582 5.166 1.034 1.548 2.512 2.793 4.265 3.591a10.995 10.995 0 0 0 5.648.924 10.774 10.774 0 0 0 5.31-2.027 9.904 9.904 0 0 1-2.912-3.402 9.263 9.263 0 0 1-1.04-4.252Z"/>
  <path fill="#F79E1B" d="M33.624 10.55a9.282 9.282 0 0 1-1.578 5.162c-1.032 1.548-2.508 2.793-4.26 3.591a10.982 10.982 0 0 1-5.643.924 10.762 10.762 0 0 1-5.306-2.024 9.901 9.901 0 0 0 2.913-3.402 9.256 9.256 0 0 0 1.04-4.252 9.257 9.257 0 0 0-1.04-4.252 9.9 9.9 0 0 0-2.913-3.402A10.763 10.763 0 0 1 22.143.871a10.983 10.983 0 0 1 5.644.924c1.75.799 3.227 2.043 4.26 3.591a9.282 9.282 0 0 1 1.577 5.163Z"/>
</svg>
