<svg width="25" height="25" viewBox="0 0 25 25" fill="none" xmlns="http://www.w3.org/2000/svg">
<path d="M8.22736 25C9.18918 25 9.96889 24.1876 9.96889 23.1855C9.96889 22.1834 9.18918 21.371 8.22736 21.371C7.26555 21.371 6.48584 22.1834 6.48584 23.1855C6.48584 24.1876 7.26555 25 8.22736 25Z" fill="#E9F3D0"/>
<path d="M18.8079 25C19.7697 25 20.5495 24.1876 20.5495 23.1855C20.5495 22.1834 19.7697 21.371 18.8079 21.371C17.8461 21.371 17.0664 22.1834 17.0664 23.1855C17.0664 24.1876 17.8461 25 18.8079 25Z" fill="#E9F3D0"/>
<path d="M15.3793 4.83873C15.344 4.57147 15.3259 4.30206 15.3251 4.03228C15.3259 3.76251 15.344 3.49309 15.3793 3.22583H6.80322L7.30633 4.83873H15.3793Z" fill="#E9F3D0"/>
<path d="M21.13 10.0807H20.8049L19.8374 14.5162H8.22719L4.68997 2.8468C4.65171 2.72298 4.58526 2.61064 4.49631 2.51936C4.40736 2.42808 4.29853 2.36058 4.17912 2.32261L1.00568 1.30648C0.908097 1.27524 0.805568 1.26433 0.703942 1.27437C0.602316 1.28441 0.503584 1.31521 0.413383 1.36501C0.231213 1.46559 0.09485 1.63744 0.0342923 1.84277C-0.0262654 2.0481 -0.00605734 2.27008 0.0904708 2.45989C0.186999 2.64969 0.35194 2.79177 0.54901 2.85487L3.32771 3.74196L6.88042 15.4355L5.61104 16.5162L5.51042 16.621C5.19643 16.998 5.01846 17.4773 5.00715 17.9763C4.99585 18.4753 5.15193 18.9628 5.4485 19.3549C5.65946 19.6222 5.92754 19.8343 6.23128 19.9744C6.53503 20.1144 6.86601 20.1784 7.19776 20.1613H20.116C20.3213 20.1613 20.5182 20.0764 20.6633 19.9251C20.8085 19.7739 20.89 19.5688 20.89 19.3549C20.89 19.141 20.8085 18.9359 20.6633 18.7846C20.5182 18.6334 20.3213 18.5484 20.116 18.5484H7.07392C6.98479 18.5452 6.89795 18.5182 6.82179 18.4698C6.74563 18.4215 6.68273 18.3535 6.63915 18.2724C6.59558 18.1913 6.57281 18.0999 6.57304 18.007C6.57327 17.9141 6.5965 17.8228 6.64047 17.742L8.50584 16.1291H20.4566C20.6355 16.1336 20.8104 16.0734 20.9515 15.9587C21.0926 15.8441 21.1913 15.6819 21.2306 15.5L22.4458 9.92745C22.0142 10.0306 21.5727 10.082 21.13 10.0807Z" fill="#E9F3D0"/>
<path d="M21.1298 8.06452C23.2672 8.06452 24.9999 6.25921 24.9999 4.03226C24.9999 1.8053 23.2672 0 21.1298 0C18.9924 0 17.2598 1.8053 17.2598 4.03226C17.2598 6.25921 18.9924 8.06452 21.1298 8.06452Z" fill="#E9F3D0"/>
</svg>
