<svg width="25" height="25" viewBox="0 0 25 25" fill="none" xmlns="http://www.w3.org/2000/svg">
<path d="M9.375 3.125C10.1476 3.125 10.9028 3.3541 11.5452 3.78332C12.1876 4.21255 12.6883 4.82262 12.9839 5.53639C13.2796 6.25017 13.3569 7.03558 13.2062 7.79332C13.0555 8.55106 12.6834 9.24709 12.1371 9.79339C11.5908 10.3397 10.8948 10.7117 10.1371 10.8624C9.37934 11.0132 8.59392 10.9358 7.88015 10.6402C7.16637 10.3445 6.5563 9.84383 6.12707 9.20145C5.69785 8.55907 5.46875 7.80383 5.46875 7.03125C5.46875 5.99525 5.8803 5.00168 6.61287 4.26911C7.34543 3.53655 8.339 3.125 9.375 3.125ZM9.375 1.5625C8.29339 1.5625 7.23606 1.88324 6.33673 2.48415C5.4374 3.08506 4.73645 3.93917 4.32254 4.93845C3.90862 5.93773 3.80032 7.03732 4.01133 8.09815C4.22235 9.15898 4.74319 10.1334 5.50801 10.8982C6.27283 11.6631 7.24727 12.1839 8.3081 12.3949C9.36894 12.6059 10.4685 12.4976 11.4678 12.0837C12.4671 11.6698 13.3212 10.9689 13.9221 10.0695C14.523 9.17019 14.8438 8.11287 14.8438 7.03125C14.8438 5.58085 14.2676 4.18985 13.242 3.16426C12.2164 2.13867 10.8254 1.5625 9.375 1.5625Z" fill="#E9F3D0"/>
<path d="M17.1875 23.4375H15.625V19.5312C15.625 18.4952 15.2134 17.5017 14.4809 16.7691C13.7483 16.0366 12.7548 15.625 11.7188 15.625H7.03125C5.99525 15.625 5.00168 16.0366 4.26911 16.7691C3.53655 17.5017 3.125 18.4952 3.125 19.5312V23.4375H1.5625V19.5312C1.5625 18.0808 2.13867 16.6898 3.16426 15.6643C4.18985 14.6387 5.58085 14.0625 7.03125 14.0625H11.7188C13.1692 14.0625 14.5602 14.6387 15.5857 15.6643C16.6113 16.6898 17.1875 18.0808 17.1875 19.5312V23.4375Z" fill="#E9F3D0"/>
<path d="M17.1875 3.125H25V4.6875H17.1875V3.125Z" fill="#E9F3D0"/>
<path d="M17.1875 7.03125H25V8.59375H17.1875V7.03125Z" fill="#E9F3D0"/>
<path d="M17.1875 10.9375H22.6562V12.5H17.1875V10.9375Z" fill="#E9F3D0"/>
</svg>
