<svg width="25" height="25" viewBox="0 0 25 25" fill="none" xmlns="http://www.w3.org/2000/svg">
<g clip-path="url(#clip0_977_1327)">
<path d="M8.33346 0H2.77782C1.24367 0 0 1.24365 0 2.77777V8.33332C0 9.86745 1.24367 11.1111 2.77782 11.1111H8.33346C9.86761 11.1111 11.1113 9.86745 11.1113 8.33332V2.77777C11.1113 1.24365 9.86761 0 8.33346 0Z" fill="#E9F3D0"/>
<path d="M22.3252 0H16.7695C15.2354 0 13.9917 1.24365 13.9917 2.77777V8.33332C13.9917 9.86745 15.2354 11.1111 16.7695 11.1111H22.3252C23.8593 11.1111 25.103 9.86745 25.103 8.33332V2.77777C25.103 1.24365 23.8593 0 22.3252 0Z" fill="#E9F3D0"/>
<path d="M22.3252 13.991H16.7695C15.2354 13.991 13.9917 15.2346 13.9917 16.7687V22.3243C13.9917 23.8584 15.2354 25.1021 16.7695 25.1021H22.3252C23.8593 25.1021 25.103 23.8584 25.103 22.3243V16.7687C25.103 15.2346 23.8593 13.991 22.3252 13.991Z" fill="#E9F3D0"/>
<path d="M8.33346 13.991H2.77782C1.24367 13.991 0 15.2346 0 16.7687V22.3243C0 23.8584 1.24367 25.1021 2.77782 25.1021H8.33346C9.86761 25.1021 11.1113 23.8584 11.1113 22.3243V16.7687C11.1113 15.2346 9.86761 13.991 8.33346 13.991Z" fill="#E9F3D0"/>
</g>
<defs>
<clipPath id="clip0_977_1327">
<rect width="25" height="25" fill="white"/>
</clipPath>
</defs>
</svg>
