<svg width="25" height="25" viewBox="0 0 25 25" fill="none" xmlns="http://www.w3.org/2000/svg">
<path d="M18.7825 17.3094L23.2439 21.7698L21.77 23.2438L17.3095 18.7823C15.6499 20.1128 13.5856 20.8364 11.4585 20.8334C6.2835 20.8334 2.0835 16.6334 2.0835 11.4584C2.0835 6.28337 6.2835 2.08337 11.4585 2.08337C16.6335 2.08337 20.8335 6.28337 20.8335 11.4584C20.8365 13.5855 20.1129 15.6498 18.7825 17.3094ZM16.6929 16.5365C18.0149 15.177 18.7531 13.3547 18.7502 11.4584C18.7502 7.42921 15.4866 4.16671 11.4585 4.16671C7.42933 4.16671 4.16683 7.42921 4.16683 11.4584C4.16683 15.4865 7.42933 18.75 11.4585 18.75C13.3548 18.753 15.1771 18.0147 16.5366 16.6927L16.6929 16.5365ZM12.6856 7.47504C12.3784 7.61379 12.1095 7.82499 11.9019 8.09051C11.6943 8.35604 11.5543 8.66797 11.4937 8.99953C11.4332 9.33109 11.454 9.67239 11.5544 9.99414C11.6548 10.3159 11.8317 10.6085 12.0701 10.8468C12.3084 11.0851 12.601 11.2621 12.9227 11.3624C13.2445 11.4628 13.5858 11.4836 13.9173 11.4231C14.2489 11.3626 14.5608 11.2225 14.8264 11.0149C15.0919 10.8074 15.3031 10.5384 15.4418 10.2313C15.7156 11.1205 15.6838 12.0757 15.3517 12.9448C15.0196 13.8138 14.4061 14.5467 13.6091 15.0267C12.8121 15.5067 11.8773 15.7061 10.9538 15.5931C10.0303 15.4802 9.1712 15.0614 8.51333 14.4035C7.85545 13.7457 7.43669 12.8865 7.32375 11.963C7.21082 11.0395 7.41021 10.1048 7.89017 9.30779C8.37012 8.51077 9.10302 7.89732 9.97209 7.56517C10.8412 7.23302 11.7964 7.20129 12.6856 7.47504Z" fill="#E9F3D0"/>
</svg>
