<svg width="20" height="20" viewBox="0 0 20 20" fill="none" xmlns="http://www.w3.org/2000/svg">
<path d="M19.6156 14.152C18.7531 13.341 17.1393 12.1211 17.1393 8.125C17.1393 5.34009 15.0917 3.06493 12.2207 2.24821C11.7673 2.11923 11.4277 1.7214 11.4277 1.25C11.4277 0.559766 10.7884 0 10 0C9.21161 0 8.57233 0.559766 8.57233 1.25C8.57233 1.7214 8.23273 2.11923 7.77932 2.24821C4.90835 3.06493 2.86074 5.34009 2.86074 8.125C2.86074 12.1211 1.2469 13.341 0.384405 14.152C0.116548 14.4039 -0.00220127 14.7051 3.08654e-05 15C0.00494156 15.6406 0.579493 16.25 1.43306 16.25H18.5669C19.4205 16.25 19.9955 15.6406 20 15C20.0022 14.7051 19.8835 14.4035 19.6156 14.152ZM9.698 14.375C7.08331 14.375 4.99883 10.7623 5.00269 8.14766C5.00269 8.13984 5.00002 8.13281 5.00002 8.125C5.00002 5.70859 7.2384 3.75 10 3.75C12.7616 3.75 15 5.70859 15 8.125C15 8.13281 14.9973 8.13984 14.9973 8.14766C15.0012 10.762 12.9163 14.375 10.302 14.375H9.698ZM10 20C10.4745 20 10.922 19.8987 11.3158 19.7194C12.7512 19.0658 11.5772 17.5 10 17.5C8.42279 17.5 7.24881 19.0658 8.68424 19.7194C9.07804 19.8987 9.52554 20 10 20Z" fill="white"/>
</svg>
