<svg width="20" height="20" viewBox="0 0 20 20" fill="none" xmlns="http://www.w3.org/2000/svg">
<path d="M5.51033 17.5614V0H4.01377V17.5614L1.05807 14.74L0 15.75L4.23301 19.7907C4.37334 19.9246 4.56363 19.9998 4.76205 19.9998C4.96046 19.9998 5.15076 19.9246 5.29108 19.7907L9.52409 15.75L8.46603 14.74L5.51033 17.5614ZM20 4.25L15.767 0.209286C15.6267 0.0753778 15.4364 0.000152588 15.238 0.000152588C15.0395 0.000152588 14.8492 0.0753778 14.7089 0.209286L10.4759 4.25L11.534 5.26L14.4897 2.43857V20H15.9862V2.43857L18.9419 5.26L20 4.25Z" fill="white"/>
</svg>
