<svg width="30" height="30" viewBox="0 0 30 30" fill="none" xmlns="http://www.w3.org/2000/svg">
<path d="M9.10707 6H20.8928C21.4821 6 21.9642 5.55 21.9642 5V3C21.9642 1.35 20.5178 0 18.7499 0H11.2499C9.48207 0 8.03564 1.35 8.03564 3V5C8.03564 5.55 8.51779 6 9.10707 6Z" fill="black"/>
<path d="M26.7857 2.5H25.7143C25.3929 2.5 25.1786 2.7 25.1786 3V5C25.1786 7.2 23.25 9 20.8929 9H9.10714C6.75 9 4.82143 7.2 4.82143 5V3C4.82143 2.7 4.60714 2.5 4.28571 2.5H3.21429C1.44643 2.5 0 3.85 0 5.5V27C0 28.65 1.44643 30 3.21429 30H26.7857C28.5536 30 30 28.65 30 27V5.5C30 3.85 28.5536 2.5 26.7857 2.5ZM24 14.5L13.7143 24.1C13.4464 24.35 13.125 24.5 12.75 24.5C12.375 24.5 12 24.35 11.7321 24.1L6 18.75C5.73214 18.5 5.73214 18.2 6 17.95L7.125 16.9C7.39286 16.65 7.71429 16.65 7.98214 16.9L12.6964 21.3L21.9643 12.65C22.2321 12.4 22.5536 12.4 22.8214 12.65L23.9464 13.7C24.2143 13.95 24.2143 14.3 24 14.5V14.5Z" fill="black"/>
</svg>
