<svg xmlns="http://www.w3.org/2000/svg" width="35" height="35" fill="none" viewBox="0 0 35 35">
  <path stroke="#fff" stroke-linecap="round" stroke-linejoin="round" d="M17.5 33.177c8.658 0 15.677-7.019 15.677-15.677S26.158 1.823 17.5 1.823 1.823 8.842 1.823 17.5 8.842 33.177 17.5 33.177Z"/>
  <path stroke="#fff" stroke-linecap="round" stroke-linejoin="round" d="m16.77 19.852 1.551 1.5h1.921v2.062h2.035v2.005h3.054v-2.887l-5.483-5.814.04-.078a5.34 5.34 0 0 0-2.2-6.266 5.216 5.216 0 0 0-6.53.814 5.355 5.355 0 0 0-.627 6.619 5.226 5.226 0 0 0 6.26 2.051l-.02-.006Z"/>
  <path stroke="#fff" stroke-linecap="round" stroke-linejoin="round" d="M13.062 14.255c.703 0 1.273-.574 1.273-1.283s-.57-1.284-1.273-1.284c-.704 0-1.274.575-1.274 1.284 0 .709.57 1.283 1.274 1.283Z"/>
</svg>
