<svg width="40" height="40" viewBox="0 0 40 40" fill="none" xmlns="http://www.w3.org/2000/svg">
<g clip-path="url(#clip0_1044_841)">
<path d="M21.5544 5.74225C21.3591 5.80475 21.0388 6.00007 20.8435 6.17194C20.0857 6.836 19.8982 7.836 20.3591 8.73444L20.6091 9.211L20.4138 9.39069C19.8513 9.90632 19.6638 11.0313 20.031 11.7501L20.2185 12.1251L19.9294 12.4141C19.2107 13.1329 19.0857 14.2423 19.6326 15.0626L19.8904 15.4376L19.6326 15.7657C18.8513 16.7891 19.2263 18.2891 20.4216 18.9298C20.7263 19.0938 20.8435 19.1016 22.9919 19.1251C24.6873 19.1485 25.2341 19.1719 25.2107 19.2423C25.1873 19.2969 25.0388 19.6329 24.8826 20.0001C24.3123 21.3126 23.8982 23.5548 24.0232 24.6016C24.1716 25.8204 24.9138 26.6173 25.9763 26.7032C26.4138 26.7344 26.5388 26.711 26.906 26.5313C27.6404 26.1719 28.0154 25.5548 28.2732 24.2813C28.4685 23.3516 28.6482 22.8751 29.0154 22.3126C29.5076 21.5782 30.2419 20.9766 31.1716 20.5313C32.9451 19.6954 33.3591 19.3829 33.9607 18.461C34.4294 17.7344 34.6638 17.5782 35.2498 17.586C35.5623 17.586 35.6013 17.6094 35.8201 17.9454C36.1169 18.4141 36.6794 18.7891 37.2263 18.9063C38.3591 19.1407 39.5544 18.4298 39.8826 17.3126C40.0154 16.8673 40.0466 15.1485 39.9216 14.9298C39.8826 14.8516 39.7498 14.7423 39.6169 14.6954C39.4294 14.6173 39.3513 14.6173 39.156 14.7188C39.031 14.7813 38.906 14.8985 38.8748 14.961C38.8513 15.0313 38.8279 15.4923 38.8279 15.9923C38.8279 17.0157 38.7263 17.3438 38.3279 17.586C37.9294 17.8282 37.6248 17.8516 37.2263 17.6563C36.9763 17.5391 36.8201 17.3907 36.7185 17.1798C36.5701 16.8907 36.5623 16.7032 36.5623 12.4532C36.5623 7.56256 36.5544 7.68757 37.0623 7.32038C37.3904 7.086 38.0232 7.07819 38.3357 7.31257C38.8044 7.65632 38.8279 7.7735 38.8279 10.3204C38.8279 12.5469 38.8357 12.6407 38.9919 12.8438C39.2107 13.1251 39.6169 13.1251 39.8357 12.8438C39.9919 12.6407 39.9998 12.5469 39.9998 10.2657C39.9998 8.03913 39.9919 7.86725 39.8357 7.45319C39.6326 6.90632 39.2341 6.461 38.7185 6.18757C38.3826 6.01569 38.2185 5.97663 37.6951 5.97663C37.1716 5.97663 37.0076 6.01569 36.6794 6.18757C36.281 6.3985 35.9138 6.74225 35.6794 7.12507C35.5544 7.32038 35.4998 7.34382 35.0935 7.34382C34.4373 7.34382 33.8044 7.1485 33.2654 6.78913C32.6873 6.39069 31.9373 6.04694 31.2107 5.836C30.6951 5.67975 30.4294 5.67194 26.2888 5.65632C22.656 5.63288 21.8513 5.6485 21.5544 5.74225ZM30.3435 6.87507C31.1248 7.00007 31.5779 7.16413 32.2654 7.57819C33.4373 8.2735 33.6951 8.36725 34.5779 8.461L35.3904 8.54694V12.4688V16.3829L34.9373 16.4219C34.1248 16.5001 33.4685 16.9454 33.0076 17.7501C32.7107 18.2735 32.1169 18.7813 31.4138 19.1094C29.8748 19.8282 29.5466 20.0391 28.8201 20.7423C27.9685 21.5782 27.3748 22.6954 27.156 23.9219C26.9998 24.7735 26.8669 25.086 26.5623 25.3438C26.2966 25.5626 26.031 25.6016 25.7576 25.461C25.2498 25.1876 25.1013 24.5938 25.2263 23.3673C25.3591 22.1016 25.6404 21.1329 26.2107 19.9219C26.6873 18.9298 26.7107 18.8516 26.6326 18.5704C26.5779 18.3673 26.4685 18.2266 26.3044 18.1251C26.0701 17.9766 25.8904 17.9688 23.6482 17.9688C20.9763 17.9688 20.8279 17.9454 20.5466 17.4844C20.3669 17.1798 20.3513 16.9688 20.4998 16.6173C20.656 16.2344 20.9451 16.086 21.6169 16.0391C22.2732 15.9844 22.4998 15.8516 22.4998 15.5001C22.4998 15.0548 22.1794 14.8438 21.5076 14.8438C20.8826 14.8438 20.4685 14.4688 20.4685 13.9063C20.4685 13.3282 20.9294 12.9688 21.6638 12.9688C22.2107 12.9688 22.4998 12.7657 22.4998 12.3829C22.4998 12.0938 22.2107 11.7969 21.9373 11.7969C21.156 11.7969 20.7107 10.8048 21.2341 10.2266C21.4294 10.0079 21.531 9.96882 21.9607 9.91413C22.3591 9.86725 22.4919 9.81257 22.6326 9.6485C22.7341 9.53913 22.8123 9.38288 22.8123 9.30475C22.8123 9.05475 22.5232 8.7735 22.2107 8.711C21.7576 8.62507 21.5154 8.46882 21.3669 8.15632C21.2185 7.84382 21.2498 7.53913 21.4607 7.21882C21.7263 6.80475 21.7654 6.80475 25.9763 6.79694C28.1326 6.79694 30.0857 6.82819 30.3435 6.87507Z" fill="#0E5B28"/>
<path d="M13.0625 13.4844C12.3594 13.8359 11.9844 14.4609 11.7266 15.7188C11.5312 16.6484 11.3516 17.125 10.9844 17.6875C10.4922 18.4219 9.75781 19.0234 8.82812 19.4688C7.05469 20.3047 6.64062 20.6172 6.03906 21.5391C5.57031 22.2656 5.33594 22.4219 4.75 22.4141C4.4375 22.4141 4.39844 22.3906 4.17969 22.0547C3.52344 21.0313 2.13281 20.75 1.07812 21.4219C0.328125 21.8984 0 22.6094 0 23.7578C0 24.5859 0.117187 24.7969 0.585937 24.7969C1.04687 24.7969 1.17187 24.5859 1.17187 23.7734C1.17187 22.7813 1.44531 22.3516 2.16406 22.2188C2.54687 22.1484 3.09375 22.4375 3.28125 22.8203C3.42969 23.1094 3.4375 23.2969 3.4375 27.5547C3.4375 32.4531 3.45312 32.3203 2.94531 32.6875C2.64062 32.9141 1.96875 32.9141 1.66406 32.6875C1.1875 32.3359 1.17187 32.25 1.17187 29.3906V26.7891L0.976562 26.6016C0.734375 26.3516 0.4375 26.3516 0.195312 26.6016L0 26.7891V29.4453C0 31.9609 0.0078125 32.125 0.164062 32.5469C0.367187 33.0938 0.765625 33.5391 1.28125 33.8125C1.61719 33.9844 1.78125 34.0234 2.30469 34.0234C2.82812 34.0234 2.99219 33.9844 3.32031 33.8125C3.71875 33.6016 4.08594 33.2578 4.32031 32.8672C4.44531 32.6797 4.5 32.6563 4.90625 32.6563C5.5625 32.6563 6.19531 32.8516 6.73437 33.2109C7.32031 33.6094 8.07031 33.9609 8.78906 34.1641C9.25781 34.2969 9.64062 34.3281 11.4297 34.3516C13.7109 34.3906 13.9062 34.3672 14.0625 33.9922C14.1641 33.7422 14.0625 33.4063 13.8516 33.2969C13.7734 33.25 12.7656 33.2031 11.6016 33.1797C8.99219 33.1406 8.75 33.0781 7.34375 32.2031C6.5625 31.7188 6.17187 31.5938 5.27344 31.5156L4.60937 31.4609V27.5391V23.6172L5.0625 23.5781C5.875 23.5 6.53125 23.0547 6.99219 22.25C7.28906 21.7266 7.88281 21.2188 8.58594 20.8906C10.125 20.1719 10.4531 19.9609 11.1797 19.2578C12.0312 18.4219 12.625 17.3047 12.8437 16.0781C13 15.2266 13.1328 14.9141 13.4375 14.6563C13.7031 14.4375 13.9687 14.3984 14.2422 14.5391C14.75 14.8125 14.8984 15.4063 14.7734 16.6328C14.6406 17.8984 14.3594 18.8672 13.7891 20.0781C13.3125 21.0703 13.2891 21.1484 13.3672 21.4297C13.4219 21.6328 13.5312 21.7734 13.6953 21.875C13.9297 22.0234 14.1094 22.0313 16.3516 22.0313C19.0234 22.0313 19.1719 22.0547 19.4531 22.5156C19.6406 22.8203 19.6562 23.125 19.5 23.4297C19.3281 23.7578 19.0859 23.875 18.4531 23.9375C17.7812 23.9922 17.5937 24.0781 17.5312 24.3359C17.4062 24.8516 17.7578 25.1563 18.4766 25.1563C19.1172 25.1563 19.5312 25.5234 19.5312 26.0938C19.5312 26.6719 19.0703 27.0313 18.3359 27.0313C17.7891 27.0313 17.5 27.2344 17.5 27.6172C17.5 27.9063 17.7891 28.2031 18.0625 28.2031C18.8437 28.2031 19.2891 29.1953 18.7656 29.7734C18.5703 29.9922 18.4687 30.0313 18.0391 30.0859C17.6406 30.1328 17.5078 30.1875 17.3672 30.3516C17.2656 30.4609 17.1875 30.6172 17.1875 30.6953C17.1875 30.8672 17.4766 31.25 17.6016 31.25C17.8672 31.25 18.3047 31.4375 18.4766 31.625C18.75 31.9141 18.7969 32.2656 18.625 32.6328C18.3984 33.0938 18.1016 33.2031 17.0234 33.2031C16.2187 33.2031 16.0937 33.2188 15.9062 33.3672C15.6641 33.5625 15.6406 33.8828 15.8516 34.1484C15.9922 34.3281 16.0625 34.3359 16.9844 34.3594C18.1484 34.3906 18.6406 34.2734 19.1406 33.8516C19.8984 33.2031 20.1016 32.1641 19.6406 31.2656L19.3906 30.7891L19.5859 30.6094C20.1562 30.0938 20.3359 28.9688 19.9609 28.2422L19.7734 27.8594L20.0312 27.6172C20.7812 26.9375 20.9141 25.6875 20.3281 24.875L20.1094 24.5703L20.3672 24.2344C21.1641 23.1875 20.75 21.625 19.5312 21.0625C19.2031 20.9141 19.0156 20.8984 16.9687 20.875C15.2891 20.8594 14.7656 20.8281 14.7891 20.7578C14.8125 20.7031 14.9609 20.3672 15.1172 20C15.6875 18.6797 16.0937 16.5234 15.9766 15.4063C15.8047 13.7969 14.3594 12.8359 13.0625 13.4844Z" fill="#0E5B28"/>
</g>
<defs>
<clipPath id="clip0_1044_841">
<rect width="40" height="40" fill="white"/>
</clipPath>
</defs>
</svg>
