<svg width="40" height="40" viewBox="0 0 40 40" fill="none" xmlns="http://www.w3.org/2000/svg">
<g clip-path="url(#clip0_1044_839)">
<path d="M18.7421 0.0676117C12.2187 0.78669 6.94245 5.49198 5.63937 11.7448C5.14372 14.1288 5.25564 15.8874 6.04708 18.2713C7.66194 23.1329 12.4905 30.777 18.87 38.6087C20.373 40.4455 20.309 40.4455 21.8119 38.6087C28.2154 30.7458 33.028 23.1094 34.6349 18.2713C35.2584 16.4032 35.4423 15.0667 35.2904 13.5035C34.8507 8.7591 32.3085 4.6791 28.2554 2.18577C25.5453 0.520943 21.9319 -0.284115 18.7421 0.0676117ZM21.684 1.38853C27.0403 1.94347 31.4931 5.39818 33.2439 10.3692C33.8115 11.9637 34.0993 14.074 33.9314 15.4184C33.4437 19.3186 29.9822 25.6262 23.7945 33.8644C22.4755 35.623 20.4209 38.2023 20.341 38.2023C20.261 38.2023 18.1985 35.6152 16.8874 33.8644C11.0915 26.1421 7.78985 20.3269 6.8625 16.1844C6.67064 15.3246 6.68663 13.5973 6.90247 12.4014C8.04567 6.0391 13.6177 1.40416 20.2211 1.326C20.6208 1.31818 21.2763 1.34945 21.684 1.38853Z" fill="#0E5B28"/>
<path d="M19.9252 5.47637C19.5015 5.76556 11.2913 11.9403 11.0515 12.1591C10.8916 12.2998 10.8276 12.4405 10.8276 12.6281C10.8276 13.2299 11.0915 13.3472 12.5144 13.3472H13.5457V17.138V20.9366L13.7456 21.1242L13.9374 21.3196H20.3409H26.7444L26.9363 21.1242L27.1361 20.9366V17.138V13.3472H28.1674C29.5904 13.3472 29.8542 13.2377 29.8542 12.6125C29.8542 12.3858 29.7902 12.292 29.4385 11.995C28.9109 11.5729 21.1963 5.77338 20.7806 5.49982C20.4049 5.2497 20.277 5.2497 19.9252 5.47637ZM23.7625 9.40005C25.5692 10.76 27.0722 11.9012 27.0962 11.9481C27.1281 11.9872 26.9602 12.0184 26.7044 12.0184C25.7291 12.0184 25.7771 11.8074 25.7771 16.2782V19.9908H24.418H23.059V17.5288V15.0589L22.8591 14.8713L22.6673 14.6759H20.3409H18.0146L17.8227 14.8713L17.6228 15.0589V17.5288V19.9908H16.2638H14.9048V16.2782C14.9048 11.8074 14.9527 12.0184 13.9614 12.0184C13.5697 12.0184 13.5297 12.0028 13.6257 11.9012C13.9694 11.5651 20.3169 6.86763 20.3889 6.89108C20.4369 6.90671 21.9558 8.04005 23.7625 9.40005ZM21.7 17.9977V19.9908H20.3409H18.9819V17.9977V16.0046H20.3409H21.7V17.9977Z" fill="#0E5B28"/>
</g>
<defs>
<clipPath id="clip0_1044_839">
<rect width="40" height="40" fill="white"/>
</clipPath>
</defs>
</svg>
