<svg width="40" height="40" viewBox="0 0 40 40" fill="none" xmlns="http://www.w3.org/2000/svg">
<path d="M24.875 37H4.45833C3.58333 37 3 36.4167 3 35.5417V3.45833C3 2.58333 3.58333 2 4.45833 2H24.875C25.75 2 26.3333 2.58333 26.3333 3.45833V13.6667C26.3333 14.5417 25.75 15.125 24.875 15.125C24 15.125 23.4167 14.5417 23.4167 13.6667V4.91667H5.91667V34.0833H23.4167V25.3333C23.4167 24.4583 24 23.875 24.875 23.875C25.75 23.875 26.3333 24.4583 26.3333 25.3333V35.5417C26.3333 36.4167 25.75 37 24.875 37Z" fill="#0E5B28"/>
<path d="M36.5413 20.9582H14.6663C13.7913 20.9582 13.208 20.3748 13.208 19.4998C13.208 18.6248 13.7913 18.0415 14.6663 18.0415H36.5413C37.4163 18.0415 37.9997 18.6248 37.9997 19.4998C37.9997 20.3748 37.4163 20.9582 36.5413 20.9582Z" fill="#0E5B28"/>
<path d="M36.5417 20.9585C36.1042 20.9585 35.8125 20.8127 35.5208 20.521L29.6875 14.6877C29.1042 14.1043 29.1042 13.2293 29.6875 12.646C30.2708 12.0627 31.1458 12.0627 31.7292 12.646L37.5625 18.4793C38.1458 19.0627 38.1458 19.9377 37.5625 20.521C37.2708 20.8127 36.9792 20.9585 36.5417 20.9585Z" fill="#0E5B28"/>
<path d="M30.7083 26.7915C30.2708 26.7915 29.9792 26.6457 29.6875 26.354C29.1042 25.7707 29.1042 24.8957 29.6875 24.3123L35.5208 18.479C36.1042 17.8957 36.9792 17.8957 37.5625 18.479C38.1458 19.0623 38.1458 19.9373 37.5625 20.5207L31.7292 26.354C31.4375 26.6457 31.1458 26.7915 30.7083 26.7915Z" fill="#0E5B28"/>
</svg>
