<svg width="40" height="40" viewBox="0 0 40 40" fill="none" xmlns="http://www.w3.org/2000/svg">
<path d="M12.7423 1.95312C5.43758 2.875 0.531329 9.92969 2.22664 17.0703C2.41414 17.875 2.77352 18.9141 3.03133 19.4297L3.18758 19.7266L2.5157 22.8828C1.8907 25.7969 1.85164 26.0469 1.96102 26.2344C2.17977 26.6328 2.25008 26.6328 5.58602 25.9219L8.69539 25.2656L9.3907 25.5625C10.2501 25.9297 11.461 26.2734 12.3438 26.3984C13.6407 26.5781 13.4845 26.4844 13.5391 27.1484C13.6876 28.8672 14.4063 30.8984 15.4141 32.4375C18.0391 36.4688 22.672 38.6328 27.3438 38.0156C28.6329 37.8438 30.0548 37.4375 30.9376 36.9922L31.297 36.8125L34.3751 37.4688C36.0626 37.8281 37.5157 38.125 37.5938 38.125C37.8204 38.125 38.1251 37.7734 38.1251 37.5234C38.1251 37.3984 37.8282 35.9531 37.4766 34.3047L36.8204 31.3125L37.1251 30.6094C37.8126 29.0078 38.0782 27.6719 38.086 25.7812C38.086 24.1875 37.961 23.3516 37.5001 21.9531C36.297 18.2656 33.3829 15.3125 29.7345 14.1016C28.8516 13.8047 27.5157 13.5156 27.047 13.5156C26.8751 13.5156 26.6798 13.4688 26.6173 13.4062C26.5548 13.3438 26.4845 13.0469 26.4532 12.7109C26.3438 11.5312 25.8751 9.95312 25.2735 8.75C23.5391 5.29688 20.3516 2.85938 16.5782 2.10156C15.6876 1.92188 13.6173 1.84375 12.7423 1.95312ZM16.4141 3.35156C20.797 4.26562 24.1407 7.61719 25.0938 12.0547C25.336 13.1953 25.336 15.2422 25.0938 16.3828C24.3595 19.7734 22.2579 22.5469 19.2423 24.0859C16.3751 25.5469 12.9923 25.6953 10.1016 24.4922C8.66414 23.8906 9.1407 23.8828 6.10945 24.5312C4.6407 24.8438 3.41414 25.0781 3.38289 25.0547C3.35945 25.0234 3.59383 23.7969 3.90633 22.3281C4.55477 19.2969 4.54695 19.7734 3.94539 18.3359C2.31258 14.4141 3.18758 9.78906 6.14852 6.64062C7.94539 4.73438 10.5079 3.45312 13.086 3.17188C13.797 3.09375 15.6798 3.19531 16.4141 3.35156ZM28.2032 14.9688C31.8516 15.7734 34.9766 18.5547 36.2423 22.1328C37.1251 24.6328 37.0548 27.4922 36.0548 29.8984C35.4532 31.3359 35.4454 30.8594 36.0938 33.8906C36.4063 35.3594 36.6407 36.5859 36.6173 36.6094C36.5938 36.6406 35.3673 36.4062 33.8907 36.0938C30.8595 35.4453 31.3438 35.4531 29.8985 36.0547C27.4923 37.0547 24.6329 37.125 22.1329 36.2422C18.4766 34.9531 15.7032 31.7734 14.9298 28C14.6954 26.8281 14.6798 26.5625 14.8282 26.5625C15.1954 26.5547 16.6876 26.3203 17.2423 26.1797C17.9688 25.9922 18.9766 25.6328 19.461 25.3906L19.7813 25.2188L19.6563 25.3984C19.4766 25.6641 19.5001 25.9922 19.7266 26.2109L19.9141 26.4062H25.7813H31.6485L31.836 26.2109C31.961 26.0938 32.0313 25.9297 32.0313 25.7812C32.0313 25.6328 31.961 25.4688 31.836 25.3516L31.6485 25.1562H25.8126H19.9766L20.672 24.7188C21.0548 24.4766 21.5626 24.1406 21.797 23.9609C22.3751 23.5156 23.4923 22.4062 23.8985 21.8516L24.2345 21.4062H27.9688H31.711L31.8673 21.2031C32.086 20.9297 32.0704 20.6797 31.8438 20.4141L31.6563 20.1953L28.3673 20.1719C26.5548 20.1641 25.0782 20.1328 25.0782 20.1094C25.0782 20.0938 25.2032 19.8281 25.3595 19.5234C25.9063 18.4375 26.3985 16.6328 26.5235 15.2266L26.5704 14.7188L27.0938 14.7812C27.3829 14.8125 27.8829 14.8984 28.2032 14.9688Z" fill="#0E5B28"/>
<path d="M12.9298 8.28906C11.422 8.50781 10.1252 9.77344 9.79704 11.3594C9.60954 12.2578 9.78141 12.6562 10.3673 12.6562C10.7189 12.6562 10.9064 12.4219 10.9611 11.9297C11.0548 11.1719 11.2423 10.7812 11.7502 10.2734C12.3283 9.70312 12.8283 9.5 13.6095 9.50781C14.5314 9.52344 15.3673 10.0391 15.8205 10.875C16.008 11.2188 16.0548 11.4062 16.0783 11.9609C16.1095 12.5234 16.0861 12.6875 15.9377 13.0312C15.7267 13.5312 15.2345 13.9922 14.3439 14.5234C13.7189 14.9062 13.2267 15.3438 13.0548 15.6797C12.9064 15.9688 12.8595 16.7656 12.9689 17.0312C13.0861 17.3125 13.258 17.4219 13.5861 17.4219C13.9533 17.4219 14.1408 17.1875 14.1408 16.7266C14.1408 16.5156 14.1642 16.2812 14.1955 16.2109C14.2189 16.1328 14.547 15.8828 14.9142 15.6484C16.3908 14.7031 16.8986 14.1562 17.1877 13.2188C17.383 12.6016 17.3908 11.6094 17.2189 11.0078C16.797 9.57031 15.5236 8.47656 14.0548 8.28125C13.7345 8.24219 13.4611 8.21094 13.4377 8.21875C13.4142 8.21875 13.1877 8.25 12.9298 8.28906Z" fill="#0E5B28"/>
<path d="M13.2423 18.4531C12.922 18.625 12.8048 18.9766 12.9376 19.3359C13.0001 19.4844 13.3673 19.6875 13.5939 19.6875C13.8361 19.6875 14.2189 19.2734 14.2189 19.0234C14.2189 18.7656 13.8282 18.3594 13.5782 18.3594C13.4767 18.3594 13.3282 18.4062 13.2423 18.4531Z" fill="#0E5B28"/>
<path d="M19.7268 30.3516C19.469 30.6094 19.4768 30.8984 19.7581 31.1797L19.9846 31.4062H25.7815H31.5784L31.805 31.1797C32.0862 30.8984 32.094 30.6094 31.8362 30.3516L31.6487 30.1562H25.7815H19.9143L19.7268 30.3516Z" fill="#0E5B28"/>
</svg>
