<svg width="40" height="40" viewBox="0 0 40 40" fill="none" xmlns="http://www.w3.org/2000/svg">
<g clip-path="url(#clip0_1044_840)">
<path d="M9.55872 5.01822C9.41792 5.07321 9.18326 5.2146 9.03464 5.33242C8.47926 5.78015 8.41668 5.95296 7.86131 8.64719C7.57971 10.0297 7.32158 11.2236 7.30593 11.2943C7.26682 11.4278 7.06344 11.4357 4.38043 11.4357H1.50187L1.08729 11.6556C0.617958 11.8991 0.203382 12.3861 0.0782268 12.8339C-0.0312839 13.2345 -0.0312839 33.1231 0.0782268 33.5237C0.211204 33.9871 0.617958 34.4663 1.08729 34.7019L1.51751 34.9219H16.1841C30.2171 34.9219 30.8742 34.914 31.1714 34.7726C31.6329 34.5684 31.9615 34.2542 32.1492 33.8615C32.2431 33.6651 32.3604 33.508 32.3995 33.508C32.4465 33.508 32.8454 33.5865 33.2913 33.6808C34.0031 33.83 34.1517 33.8379 34.535 33.7515C35.1216 33.618 35.5753 33.2645 35.8413 32.7225C36.0056 32.3847 36.4749 30.2325 38.0628 22.5504C40.2061 12.1348 40.1591 12.4254 39.8228 11.7656C39.635 11.3964 39.111 10.9251 38.7668 10.8151C38.5634 10.7445 32.6889 9.51909 16.935 6.24359C15.6913 5.98438 14.2599 5.68589 13.7671 5.58378C10.4113 4.86898 10.0906 4.82971 9.55872 5.01822ZM24.3036 8.76502C31.9928 10.3674 38.3835 11.7106 38.5087 11.7577C38.7511 11.8599 38.9858 12.1583 39.0562 12.4568C39.0953 12.6218 38.6416 15.1589 38.5556 15.2453C38.5321 15.261 37.3275 15.0254 35.8648 14.7269C34.402 14.4284 33.0175 14.1456 32.7985 14.0985L32.3839 14.02V13.6036C32.3839 12.6846 31.9928 12.0012 31.2731 11.6399L30.8664 11.4357H25.3595H19.8527L16.5987 10.768C10.6382 9.5348 8.80779 9.14991 8.7765 9.11849C8.72957 9.07136 9.23019 6.72274 9.35535 6.43211C9.46486 6.15719 9.87161 5.8587 10.1454 5.8587C10.2393 5.8587 16.6065 7.17047 24.3036 8.76502ZM11.6238 10.7287C13.2977 11.0744 14.7057 11.3728 14.7448 11.3886C14.7918 11.4121 13.3525 11.4278 11.5456 11.4278L8.27588 11.4357L8.33064 11.1372C8.42451 10.6109 8.54184 10.1004 8.55748 10.1004C8.57313 10.1004 9.94983 10.3831 11.6238 10.7287ZM31.0463 12.6453C31.1793 12.7789 31.3279 13.0067 31.367 13.1559C31.4687 13.5408 31.4687 32.8168 31.367 33.2016C31.3279 33.3509 31.1793 33.5787 31.0463 33.7122L30.8116 33.94L16.3015 33.9636C-0.0156395 33.9793 1.37671 34.0343 1.08729 33.398C0.94649 33.0917 0.938668 32.644 0.938668 23.1788C0.938668 13.7293 0.94649 13.2659 1.08729 12.9595C1.37671 12.3233 -0.0234617 12.3783 16.2858 12.4018L30.8116 12.4176L31.0463 12.6453ZM37.7734 16.1172L38.3444 16.2429L38.2975 16.5257C38.274 16.6906 38.141 17.3504 38.008 17.9945L37.7655 19.1806L35.0747 18.6622L32.3839 18.1516V16.5728V15.0018L34.7931 15.4967C36.1151 15.7637 37.4527 16.0465 37.7734 16.1172ZM35.0825 19.6519C36.3732 19.8954 37.4605 20.1232 37.4918 20.1546C37.57 20.2253 35.1529 31.9606 34.9887 32.314C34.84 32.6204 34.4959 32.8246 34.1126 32.8168C33.9561 32.8089 33.5181 32.7382 33.127 32.6597L32.423 32.5104L32.3995 25.8102L32.3839 19.1178L32.556 19.1571C32.6577 19.1806 33.7919 19.4006 35.0825 19.6519Z" fill="#0E5B28"/>
<path d="M20.8848 14.8918V15.5988H21.3541H21.8234V14.8918V14.1849H21.3541H20.8848V14.8918Z" fill="#0E5B28"/>
<path d="M22.8398 14.8918V15.5988H23.3092H23.7785V14.8918V14.1849H23.3092H22.8398V14.8918Z" fill="#0E5B28"/>
<path d="M25.1875 14.8918V15.5988H25.6568H26.1262V14.8918V14.1849H25.6568H25.1875V14.8918Z" fill="#0E5B28"/>
<path d="M27.1436 14.8918V15.5988H27.6129H28.0822V14.8918V14.1849H27.6129H27.1436V14.8918Z" fill="#0E5B28"/>
<path d="M4.6384 15.481C4.1456 15.693 4.06738 15.9522 4.06738 17.3347C4.06738 18.458 4.08303 18.5758 4.23165 18.7722C4.54454 19.1728 4.72445 19.212 6.24195 19.212C7.57172 19.212 7.65777 19.2042 7.90808 19.0314C8.32265 18.7486 8.36959 18.5915 8.36959 17.2876C8.36959 15.4495 8.2679 15.3631 6.20284 15.3631C5.25636 15.371 4.81831 15.4024 4.6384 15.481ZM7.41528 17.3033L7.43875 18.2694H6.21849H5.00605V17.3426C5.00605 16.832 5.02951 16.3843 5.0608 16.3528C5.09209 16.3293 5.624 16.3136 6.24977 16.3214L7.39181 16.345L7.41528 17.3033Z" fill="#0E5B28"/>
<path d="M2.75394 28.4966L2.7774 28.9915H3.4814H4.1854V28.5202V28.0489L3.45793 28.0253L2.73047 28.0017L2.75394 28.4966Z" fill="#0E5B28"/>
<path d="M5.09964 28.4966L5.12311 28.9914L5.81146 29.015L6.49199 29.0386V28.5201V28.0096H5.78799H5.07617L5.09964 28.4966Z" fill="#0E5B28"/>
<path d="M7.44632 28.4966L7.46978 28.9915H8.17378H8.87778L8.90125 28.4966L8.92471 28.0096H8.17378H7.42285L7.44632 28.4966Z" fill="#0E5B28"/>
<path d="M9.79397 28.4966L9.81744 28.9915H10.5214H11.2254V28.5202V28.0489L10.498 28.0253L9.77051 28.0017L9.79397 28.4966Z" fill="#0E5B28"/>
<path d="M12.1566 28.1196C12.1331 28.1745 12.1253 28.3945 12.141 28.6066L12.1644 28.9915H12.8684H13.5724L13.5959 28.4966L13.6193 28.0096H12.9075C12.3756 28.0096 12.1879 28.0332 12.1566 28.1196Z" fill="#0E5B28"/>
<path d="M2.73828 31.7013V32.1726H8.1747H13.6111V31.7013V31.23H8.1747H2.73828V31.7013Z" fill="#0E5B28"/>
</g>
<defs>
<clipPath id="clip0_1044_840">
<rect width="40" height="40" fill="white"/>
</clipPath>
</defs>
</svg>
