<svg width="40" height="40" viewBox="0 0 40 40" fill="none" xmlns="http://www.w3.org/2000/svg">
<path d="M17.9545 3.28819C14.3636 3.54933 10.9146 4.91466 8.10008 7.19023C7.28634 7.84678 5.8231 9.3688 5.18107 10.2268C3.42667 12.5621 2.29192 15.2927 1.82159 18.2845C1.63495 19.4708 1.63495 22.015 1.81412 23.2087C2.05302 24.7456 2.73985 27.148 3.03847 27.4763C3.26243 27.73 3.75516 27.6032 3.88207 27.2749C3.93433 27.1331 3.88953 26.9242 3.68797 26.3647C3.04593 24.5964 2.73985 22.7984 2.73985 20.8212C2.73985 19.2321 2.86676 18.1801 3.24004 16.6879C4.88991 10.1746 10.4293 5.29517 17.1707 4.44463C19.1341 4.19096 21.7769 4.38494 23.591 4.89974C26.3234 5.69059 28.8915 7.16784 30.6459 8.95845L31.1685 9.49564L30.7952 9.45087C27.9957 9.12259 27.5477 9.09275 27.3611 9.21212C27.1073 9.38372 27.0923 9.87614 27.3462 10.0328C27.4507 10.1074 28.3839 10.2343 30.0711 10.4208L32.6392 10.6968L32.8109 10.5178C32.9677 10.3536 33.005 10.1522 33.2588 7.77217C33.4679 5.84727 33.5127 5.16087 33.4529 5.03404C33.3186 4.7356 32.7139 4.6983 32.5571 4.98927C32.5197 5.05642 32.4003 5.96665 32.2809 6.99624L32.0718 8.88384L31.3253 8.15268C27.8015 4.7356 22.8445 2.93753 17.9545 3.28819Z" fill="#0E5B28"/>
<path d="M14.6695 12.4875C12.288 13.6439 10.0932 14.7033 9.79456 14.8376C9.49594 14.9794 9.20479 15.1659 9.1376 15.2629C9.04801 15.4047 9.03308 16.1507 9.04801 20.7317C9.07041 25.9319 9.07041 26.0438 9.21972 26.1856C9.40636 26.3647 18.9995 30.968 19.1862 30.968C19.4176 30.968 28.9884 26.3497 29.175 26.1483L29.3393 25.9618V20.6496C29.3318 16.4193 29.3169 15.3151 29.2347 15.2107C29.1078 15.0391 19.3803 10.376 19.1712 10.3835C19.0742 10.3835 17.051 11.3385 14.6695 12.4875ZM21.0451 12.3532C21.9857 12.8008 22.7323 13.1962 22.7099 13.2186C22.68 13.2485 20.7987 14.1587 18.5292 15.248L14.4008 17.2326L12.6091 16.3596L10.8099 15.4867L14.0872 13.9199C15.8864 13.0545 17.7453 12.1592 18.2157 11.9279C18.686 11.6966 19.1339 11.5101 19.2011 11.5175C19.2683 11.525 20.097 11.898 21.0451 12.3532ZM25.8006 14.6436C26.7562 15.1062 27.5177 15.5016 27.4878 15.5315C27.4057 15.6061 19.3056 19.4932 19.2235 19.5007C19.1862 19.5007 18.35 19.1202 17.3721 18.6501L15.5953 17.8071L16.7748 17.24C17.4243 16.9341 19.2832 16.0388 20.9032 15.248C22.5232 14.4646 23.8969 13.8155 23.9492 13.8155C24.0089 13.808 24.8376 14.1885 25.8006 14.6436ZM14.58 18.5084L18.6636 20.4706V25.0441V29.6176L18.35 29.4833C18.1709 29.4012 16.2522 28.4835 14.0723 27.4316L10.1156 25.5216L10.0932 20.9332L10.0783 16.3373L10.2798 16.4417C10.3993 16.5014 12.3254 17.4265 14.58 18.5084ZM28.2941 20.9182V25.4992L24.0611 27.536C21.7244 28.6551 19.7983 29.5878 19.7685 29.6027C19.7312 29.6176 19.7088 27.5733 19.7088 25.0516V20.4706L23.9865 18.4114C26.3307 17.2773 28.2642 16.3522 28.2792 16.3522C28.2866 16.3447 28.2941 18.4039 28.2941 20.9182Z" fill="#0E5B28"/>
<path d="M12.5045 20.6346C12.2731 20.8584 12.2656 21.1196 12.4896 21.321C12.7434 21.5523 15.4459 22.8356 15.6848 22.8356C15.8192 22.8356 15.9461 22.7684 16.0432 22.6416C16.2373 22.3954 16.2373 22.2312 16.073 22.0298C15.9312 21.8657 13.0047 20.4481 12.8031 20.4481C12.7359 20.4481 12.6016 20.5302 12.5045 20.6346Z" fill="#0E5B28"/>
<path d="M34.5804 13.8528C34.3415 14.0169 34.3713 14.2631 34.7446 15.3524C35.3867 17.24 35.6256 18.68 35.633 20.672C35.633 22.8282 35.2747 24.7755 34.5281 26.6855C32.2735 32.4229 27.1074 36.3846 20.9484 37.0934C19.9779 37.2053 17.4172 37.1382 16.5363 36.9815C13.0797 36.3548 10.325 34.9745 7.72696 32.5721C7.09986 31.9902 6.98041 32.02 9.22006 32.2662C10.3175 32.393 10.8326 32.4229 10.9446 32.3707C11.2731 32.214 11.3253 31.7514 11.0267 31.5052C10.9297 31.4231 6.48769 30.8934 5.90538 30.8934C5.45745 30.8934 5.42759 31.0128 5.12897 33.7957C4.91993 35.7131 4.86767 36.3771 4.9274 36.4965C5.10657 36.8173 5.64409 36.8248 5.81579 36.504C5.86059 36.4294 5.98003 35.5341 6.09202 34.5268L6.29359 32.6915L6.97295 33.3331C9.68292 35.8922 12.7811 37.444 16.4317 38.0633C17.7681 38.2871 20.4034 38.3095 21.7248 38.1006C25.5023 37.5112 28.8693 35.8325 31.4598 33.251C32.4378 32.2737 33.05 31.5276 33.789 30.4085C36.8275 25.7976 37.5218 19.8812 35.633 14.7033C35.2896 13.7707 35.0134 13.5469 34.5804 13.8528Z" fill="#0E5B28"/>
</svg>
