<svg width="40" height="40" viewBox="0 0 40 40" fill="none" xmlns="http://www.w3.org/2000/svg">
<path d="M15.152 2.7686C14.8552 2.86932 14.2851 3.39616 11.4033 6.24729L7.99816 9.60976H6.06131C4.76486 9.60976 4.01512 9.64075 3.79644 9.70273C3.3669 9.82669 2.71867 10.4697 2.59372 10.8959C2.46095 11.3607 2.46095 28.9324 2.59372 29.3972C2.71867 29.8233 3.3669 30.4664 3.79644 30.5903C4.03855 30.6601 5.663 30.6833 10.2396 30.6833H16.3547L19.7598 34.0458C22.8057 37.0596 23.1962 37.416 23.5398 37.5322C24.024 37.6872 24.2271 37.6872 24.766 37.5322C25.1721 37.416 25.3361 37.2688 28.585 34.0458L31.9901 30.6833H33.9426C36.2543 30.6833 36.4418 30.6446 36.965 30.0635C37.1525 29.8621 37.3477 29.5522 37.3946 29.3817C37.5273 28.9401 37.5273 11.353 37.3946 10.9114C37.3477 10.7409 37.1525 10.431 36.965 10.2296C36.3793 9.57877 36.7463 9.60976 29.7643 9.60976H23.6335L20.2284 6.24729C17.1826 3.23346 16.7921 2.87706 16.4485 2.76085C15.9799 2.6059 15.6128 2.61365 15.152 2.7686ZM18.9398 6.74313L21.8295 9.60976H15.8159H9.80224L12.6919 6.74313C15.1911 4.27164 15.6206 3.87651 15.8159 3.87651C16.0111 3.87651 16.4406 4.27164 18.9398 6.74313ZM28.7412 13.1892V15.5367L28.2648 14.6922C27.4213 13.2047 26.6482 12.6468 25.5548 12.7321C23.8835 12.856 22.876 14.576 23.6101 16.048L23.7976 16.4277H13.7697H3.74958V13.8322V11.229L3.94483 11.0431L4.13226 10.8494H16.4406H28.7412V13.1892ZM36.0435 11.0431L36.2387 11.229V13.8322V16.4277H35.5749H34.9188L35.1219 16.017C35.6842 14.9246 35.1687 13.4991 34.0051 12.9335C33.4428 12.6623 32.529 12.6701 31.9823 12.9567C31.3575 13.2821 30.9592 13.7625 30.3422 14.8936L29.9908 15.5367V13.1892V10.8494H32.9195H35.856L36.0435 11.0431ZM26.2108 14.0956C26.5232 14.2816 26.9293 14.7852 27.2808 15.4282C27.5853 15.9628 28.2882 17.5201 28.2492 17.5588C28.2414 17.5743 27.929 17.4504 27.5619 17.2877C25.3049 16.296 24.641 15.7846 24.641 15.0331C24.641 14.2196 25.5313 13.685 26.2108 14.0956ZM33.4584 14.0569C33.7708 14.1886 34.0207 14.514 34.091 14.8859C34.2081 15.5057 33.7317 16.017 32.404 16.6988C31.6309 17.094 30.5141 17.5976 30.4828 17.5588C30.4438 17.5201 30.8499 16.5826 31.1779 15.9318C32.076 14.1654 32.6227 13.7083 33.4584 14.0569ZM26.3123 18.0547C26.7419 18.2639 27.1089 18.4421 27.1324 18.4421C27.148 18.4421 27.4057 18.5505 27.6947 18.6745L28.2258 18.9147L26.6872 20.4409C25.3752 21.7503 25.1487 22.0137 25.1487 22.2074C25.1565 22.6025 25.5392 22.9124 25.914 22.8195C26.0312 22.7885 26.6716 22.2229 27.4291 21.4791L28.7412 20.193V24.8184V29.4437H16.4406H4.13226L3.94483 29.25L3.74958 29.0641V23.3618V17.6673H14.6366H25.5313L26.3123 18.0547ZM36.2387 23.3618V29.0641L36.0435 29.25L35.856 29.4437H32.9195H29.9908V24.8184V20.1853L31.2638 21.4404C32.8492 22.9977 32.9351 23.0519 33.3569 22.6335C33.7864 22.2074 33.7473 22.1377 32.0448 20.4409C31.2013 19.6042 30.5219 18.8992 30.5453 18.8837C30.5609 18.8682 30.928 18.7132 31.3575 18.5273C31.7871 18.3491 32.365 18.0857 32.6462 17.9385L33.1538 17.675L34.7002 17.6673H36.2387V23.3618ZM27.2964 33.5499C24.7972 36.0214 24.3677 36.4166 24.1724 36.4166C23.9772 36.4166 23.5476 36.0214 21.0485 33.5499L18.1588 30.6833H24.1724H30.186L27.2964 33.5499Z" fill="#0E5B28"/>
</svg>
