<svg width="25" height="27" viewBox="0 0 25 27" fill="none" xmlns="http://www.w3.org/2000/svg">
<path d="M12.7661 22.2693H14.8076V26.8562H12.7661V22.2693Z" fill="#70CC40"/>
<path d="M14.8073 27H12.7659C12.7284 27 12.6924 26.9848 12.6659 26.9578C12.6394 26.9308 12.6245 26.8942 12.6245 26.8561V22.2735C12.6245 22.2354 12.6394 22.1988 12.6659 22.1718C12.6924 22.1448 12.7284 22.1296 12.7659 22.1296H14.8073C14.8448 22.1296 14.8808 22.1448 14.9073 22.1718C14.9338 22.1988 14.9487 22.2354 14.9487 22.2735V26.8604C14.9476 26.8978 14.9322 26.9333 14.9058 26.9594C14.8795 26.9854 14.8441 27 14.8073 27ZM12.9073 26.7122H14.666V22.4174H12.9073V26.7122Z" fill="#093F68"/>
<path d="M4.58165 22.2734C4.72303 22.377 6.17071 23.5813 6.17071 23.5813C6.17071 23.5813 6.37147 25.0949 6.17071 25.3697C5.96996 25.6445 5.05809 26.4373 4.85592 26.233C4.65375 26.0287 5.42142 25.2359 5.42142 25.2359C5.20157 25.2446 4.98237 25.2062 4.77804 25.1232C4.57371 25.0401 4.38879 24.9143 4.23528 24.7539C3.7334 24.2029 3.7334 23.3007 3.7334 23.3007L4.58165 22.2734Z" fill="#FFC9B0"/>
<path d="M4.94921 26.4043C4.91353 26.4056 4.87795 26.3996 4.84465 26.3865C4.81135 26.3734 4.78103 26.3535 4.75552 26.3281C4.54487 26.1137 4.8248 25.6878 5.11179 25.3554C4.7377 25.3033 4.39217 25.1232 4.13206 24.8447C3.59624 24.2691 3.59766 23.3397 3.59766 23.2994C3.59792 23.2663 3.60941 23.2343 3.63017 23.2088L4.47843 22.1771C4.50139 22.1489 4.53407 22.1307 4.5698 22.1261C4.60553 22.1216 4.64162 22.1311 4.6707 22.1527C4.81207 22.2577 6.20745 23.4159 6.26683 23.4649C6.29412 23.4881 6.3118 23.521 6.31631 23.5569C6.36579 23.9267 6.50716 25.1526 6.29086 25.4518C6.12686 25.6763 5.37192 26.3741 4.98314 26.4029L4.94921 26.4043ZM5.4214 25.0849C5.44805 25.085 5.47413 25.0928 5.49664 25.1073C5.51916 25.1218 5.53718 25.1425 5.54864 25.1669C5.56107 25.1936 5.56516 25.2235 5.56036 25.2525C5.55555 25.2816 5.54209 25.3085 5.52178 25.3295C5.2263 25.6331 4.97324 25.9928 4.95627 26.118C5.15137 26.118 5.8427 25.5684 6.05193 25.2806C6.1509 25.1367 6.1198 24.3411 6.03214 23.6519C5.60095 23.2936 4.87711 22.6937 4.59718 22.4678L3.87617 23.3512C3.88465 23.5397 3.93979 24.2231 4.3314 24.6461C4.47095 24.7896 4.63825 24.9021 4.82271 24.9763C5.00717 25.0506 5.20477 25.0852 5.40302 25.0777L5.4214 25.0849Z" fill="#093F68"/>
<path d="M18.5131 9.33461C17.088 8.47134 12.9457 6.82967 12.4778 6.64551L11.5093 9.20944C12.3859 9.55475 14.3976 10.3749 15.8383 11.0396C14.7482 11.7806 5.44432 14.7229 3.82133 15.5646C1.81097 16.612 -0.190902 17.9228 0.189398 19.7054C0.262913 20.0507 0.781761 21.8967 3.73368 24.2031L5.38071 22.0233C4.39108 21.2507 3.27704 20.0939 2.92784 19.3846C3.37742 18.9155 4.65686 18.1659 6.17948 17.458V23.7686H12.6234V15.8682C13.2864 15.5358 19.3401 12.8755 19.3373 10.8468C19.3443 10.5429 19.2716 10.2427 19.1267 9.97691C18.9819 9.71113 18.7701 9.48943 18.5131 9.33461Z" fill="#68E1FD"/>
<path d="M3.73358 24.3469C3.70251 24.3472 3.6722 24.3371 3.64734 24.3181C0.657253 21.9815 0.127095 20.0909 0.050752 19.7355C-0.350754 17.8565 1.69919 16.5083 3.7562 15.4364C4.52105 15.0379 6.91877 14.1991 9.45646 13.3113C11.9942 12.4236 14.6082 11.5071 15.5172 11.0524C14.1035 10.415 12.2656 9.66542 11.4513 9.34313C11.4339 9.33629 11.418 9.32602 11.4045 9.31289C11.391 9.29977 11.3802 9.28407 11.3727 9.26668C11.3652 9.24929 11.3612 9.23057 11.3608 9.21159C11.3605 9.19261 11.3638 9.17374 11.3707 9.15609L12.3462 6.59072C12.3598 6.5553 12.3866 6.52679 12.4207 6.51142C12.4549 6.49605 12.4937 6.49508 12.5286 6.50871C12.9979 6.69431 17.1487 8.34029 18.5851 9.20932C18.8618 9.3774 19.0896 9.61735 19.2451 9.90457C19.4006 10.1918 19.4783 10.516 19.4701 10.8438C19.4701 12.1488 17.3495 13.7876 12.9739 15.8551L12.7562 15.9573V23.767C12.7562 23.8052 12.7413 23.8418 12.7148 23.8688C12.6882 23.8958 12.6523 23.9109 12.6148 23.9109H6.1709C6.1334 23.9109 6.09744 23.8958 6.07093 23.8688C6.04442 23.8418 6.02952 23.8052 6.02952 23.767V17.6809C4.67797 18.3255 3.56252 18.9845 3.10163 19.4075C3.46497 20.0593 4.4758 21.134 5.46543 21.9052C5.49499 21.9286 5.51427 21.9628 5.51904 22.0006C5.52381 22.0384 5.51368 22.0765 5.49088 22.1067L3.84386 24.2879C3.83112 24.3056 3.81456 24.3202 3.79545 24.3304C3.77633 24.3406 3.75517 24.3463 3.73358 24.3469ZM11.686 9.12731C12.6176 9.49708 14.5219 10.2783 15.8905 10.9085C15.9133 10.9192 15.933 10.9359 15.9474 10.9568C15.9618 10.9778 15.9705 11.0023 15.9725 11.0278C15.9745 11.0533 15.9698 11.0789 15.9589 11.1019C15.9479 11.125 15.9311 11.1446 15.9103 11.1589C15.3151 11.5632 12.5172 12.5444 9.54836 13.5833C7.13084 14.4293 4.63273 15.3098 3.88486 15.6925C1.92398 16.7141 -0.0326586 17.9946 0.327849 19.6737C0.398537 20.0075 0.893351 21.7671 3.70814 24.0016L5.18268 22.0491C4.27788 21.3196 3.16808 20.1945 2.80192 19.4492C2.78848 19.4225 2.78358 19.3922 2.78788 19.3626C2.79219 19.3329 2.8055 19.3053 2.82595 19.2838C3.27977 18.8118 4.53942 18.0622 6.11435 17.327C6.13579 17.3172 6.1593 17.313 6.18275 17.3147C6.2062 17.3165 6.22885 17.3242 6.24865 17.3371C6.26856 17.3501 6.28495 17.3679 6.29631 17.3891C6.30767 17.4102 6.31365 17.4338 6.31369 17.4579V23.6246H12.4748V15.8681C12.475 15.8413 12.4826 15.8152 12.4965 15.7926C12.5105 15.77 12.5304 15.7518 12.554 15.74C12.6134 15.7098 12.7166 15.6609 12.8551 15.5961C15.7463 14.2307 19.1902 12.2984 19.1888 10.8481C19.1963 10.5701 19.1312 10.2951 19 10.0511C18.8689 9.80718 18.6764 9.60307 18.4423 9.45967C17.1162 8.65682 13.4093 7.16911 12.5597 6.83243L11.686 9.12731Z" fill="#093F68"/>
<path d="M8.88672 13.9185V23.7684H10.456V14.1357L8.88672 13.9185Z" fill="white"/>
<path d="M10.4558 23.9124H8.88649C8.849 23.9124 8.81304 23.8973 8.78652 23.8703C8.76001 23.8433 8.74512 23.8067 8.74512 23.7685V13.9186C8.74514 13.8981 8.74944 13.8779 8.75773 13.8593C8.76602 13.8407 8.7781 13.8241 8.79318 13.8107C8.80831 13.7971 8.8261 13.7871 8.84536 13.7811C8.86462 13.7752 8.88491 13.7735 8.90487 13.7761L10.4756 13.9934C10.5095 13.9983 10.5406 14.0156 10.563 14.042C10.5853 14.0685 10.5975 14.1024 10.5971 14.1373V23.77C10.5968 23.8079 10.5817 23.8441 10.5552 23.8708C10.5288 23.8975 10.493 23.9124 10.4558 23.9124ZM9.02787 23.6247H10.3144V14.2624L9.02787 14.0826V23.6247Z" fill="#093F68"/>
<path d="M8.82317 13.5852L10.2198 13.3197L10.3701 14.1386C10.3995 14.2988 10.3652 14.4643 10.2747 14.5987C10.1842 14.7331 10.0449 14.8254 9.88756 14.8553L9.67632 14.8955C9.51894 14.9254 9.35633 14.8904 9.22425 14.7983C9.09218 14.7062 9.00147 14.5645 8.97207 14.4043L8.82178 13.5854L8.82317 13.5852Z" fill="#FFC9B0"/>
<path d="M9.56658 15.0463C9.39294 15.0462 9.22479 14.9844 9.09129 14.8714C8.95779 14.7584 8.86736 14.6014 8.83567 14.4276L8.68157 13.6104C8.67818 13.5918 8.67843 13.5727 8.68231 13.5541C8.68619 13.5356 8.69363 13.5181 8.70419 13.5025C8.71463 13.4869 8.728 13.4735 8.74352 13.4631C8.75905 13.4527 8.77643 13.4456 8.79467 13.442L10.1915 13.1759C10.2097 13.1723 10.2285 13.1725 10.2468 13.1764C10.265 13.1803 10.2823 13.1878 10.2977 13.1984C10.313 13.2091 10.3262 13.2228 10.3363 13.2387C10.3465 13.2546 10.3535 13.2723 10.3569 13.291L10.5067 14.1096C10.5427 14.3073 10.5003 14.5113 10.3887 14.6772C10.2772 14.843 10.1056 14.9571 9.91153 14.9945L9.70089 15.0334C9.65658 15.0417 9.61163 15.046 9.56658 15.0463ZM8.98977 13.701L9.11418 14.3787C9.13717 14.5009 9.20667 14.609 9.30755 14.6793C9.40843 14.7496 9.53252 14.7766 9.65282 14.7542L9.86347 14.7139C9.98401 14.6912 10.0907 14.6207 10.1602 14.5179C10.2297 14.4151 10.2562 14.2884 10.2339 14.1658L10.1095 13.4881L8.98977 13.701Z" fill="#093F68"/>
<path d="M3.92871 10.6928C3.78733 10.2612 3.38724 10.0712 3.15114 9.70147C2.8299 9.18349 2.71889 8.55877 2.84153 7.95909C2.43377 7.6805 2.13656 7.26351 2.00294 6.78254C1.86932 6.30157 1.90798 5.78793 2.11203 5.33329C2.21164 5.15952 2.29996 4.97928 2.3764 4.79375C2.44232 4.53508 2.4709 4.26802 2.46123 4.00097C2.48526 3.43409 2.61674 2.84994 2.95746 2.40535C3.29817 1.96076 3.87923 1.66869 4.42211 1.79674C4.57479 1.14497 5.20815 0.743544 5.809 0.468735C6.20909 0.286008 6.63463 0.123424 7.0729 0.139251C7.51116 0.155078 8.13463 0.801096 8.13463 0.801096C8.13463 0.801096 9.53707 0.317661 10.2227 0.547868C10.9084 0.778075 11.734 2.0327 11.734 2.0327C11.734 2.0327 12.1709 2.15788 12.2995 2.17658C12.5998 2.23622 12.8815 2.36847 13.1209 2.56218C13.9282 3.20964 14.3085 4.81389 13.6483 5.68004C13.6483 5.68004 13.9494 6.25556 13.9692 6.31743C14.051 6.55947 14.0804 6.81666 14.0554 7.07136C14.0031 7.60659 13.7727 8.13463 13.7812 8.67849L12.8877 8.69C11.6464 8.70439 10.2015 9.28854 8.99419 9.55328L6.01682 10.218C5.52908 10.3259 4.60307 10.7417 4.1026 10.6496C4.04275 10.6545 3.98405 10.6691 3.92871 10.6928Z" fill="#725858"/>
<path d="M3.92854 10.8351C3.89891 10.8352 3.86999 10.8258 3.84589 10.8083C3.82179 10.7907 3.80372 10.7659 3.79424 10.7373C3.70891 10.5225 3.57122 10.3333 3.39415 10.1877C3.25748 10.065 3.13595 9.92582 3.03222 9.77331C2.70913 9.2555 2.58529 8.63452 2.68444 8.02949C2.2744 7.72138 1.98055 7.27951 1.85191 6.77758C1.72328 6.27565 1.76763 5.744 1.97756 5.27133C2.00867 5.20802 2.04401 5.14471 2.07794 5.08141C2.14046 4.97642 2.193 4.86561 2.23487 4.75048C2.29288 4.55405 2.32147 4.34985 2.31969 4.14475V4.00087C2.34797 3.30881 2.52469 2.74337 2.84561 2.3218C3.0144 2.08975 3.23846 1.90524 3.49668 1.78568C3.7549 1.66611 4.03878 1.61542 4.32157 1.63837C4.54777 0.96214 5.23768 0.577982 5.75087 0.343458C6.16086 0.154977 6.59913 -0.0148012 7.07698 0.0010255C7.48696 0.0168522 7.99026 0.467194 8.17264 0.642727C8.49214 0.540573 9.63587 0.211089 10.2678 0.424031C10.9224 0.648482 11.6618 1.68729 11.823 1.92038C11.9403 1.95203 12.2315 2.03404 12.3347 2.05418C12.652 2.11478 12.9505 2.2514 13.2056 2.45273C14.0256 3.10882 14.4539 4.73178 13.8149 5.69001C13.9236 5.87767 14.0181 6.07343 14.0977 6.2756C14.1859 6.53657 14.2173 6.81397 14.1896 7.08852C14.1613 7.32695 14.1164 7.56303 14.0553 7.79497C13.9735 8.08309 13.926 8.38017 13.9139 8.67983C13.9139 8.71799 13.899 8.75458 13.8725 8.78156C13.846 8.80855 13.81 8.82371 13.7725 8.82371L12.8762 8.83522C12.059 8.84385 11.1443 9.10859 10.2608 9.36469C9.8239 9.49131 9.4125 9.61217 9.01382 9.69993L6.03504 10.3647C5.89366 10.3963 5.70422 10.4582 5.50488 10.5229C5.00724 10.6841 4.44315 10.8668 4.06568 10.7934C4.04975 10.8007 4.03318 10.8065 4.0162 10.8107C3.99274 10.8197 3.96864 10.827 3.9441 10.8323L3.92854 10.8351ZM4.08688 10.5085C4.10099 10.5071 4.1152 10.5071 4.1293 10.5085C4.43891 10.569 4.98886 10.392 5.42995 10.2481C5.63636 10.1805 5.83146 10.1172 5.98556 10.0827L8.96434 9.42081C9.35312 9.33448 9.7617 9.21506 10.1943 9.08988C11.0963 8.82802 12.0322 8.55897 12.8804 8.5489L13.6396 8.53883C13.6628 8.26458 13.7101 7.99299 13.781 7.72735C13.8388 7.50814 13.8813 7.28505 13.9082 7.05975C13.9317 6.82547 13.9047 6.58881 13.8291 6.36625C13.8079 6.30726 13.5718 5.84253 13.5294 5.76915C13.5237 5.76084 13.5185 5.75219 13.5138 5.74325C13.5039 5.71988 13.5002 5.69425 13.5032 5.66898C13.5062 5.6437 13.5157 5.61968 13.5308 5.59937C14.1443 4.79508 13.7669 3.27428 13.0289 2.68294C12.8081 2.50732 12.5493 2.38794 12.2739 2.33475C12.1326 2.30741 11.7084 2.19087 11.6901 2.1808C11.6578 2.17175 11.6298 2.15136 11.6109 2.12325C11.6109 2.11173 10.8036 0.911782 10.1717 0.694524C9.53974 0.477266 8.19243 0.936241 8.17405 0.940557C8.14962 0.948371 8.12357 0.949286 8.09867 0.943205C8.07377 0.937123 8.05096 0.924273 8.03267 0.906027C7.86868 0.737688 7.37811 0.298855 7.06567 0.287345C6.65285 0.271518 6.24428 0.431224 5.86539 0.60388C5.08641 0.9607 4.67077 1.35205 4.55767 1.83405C4.54894 1.871 4.5262 1.90294 4.49441 1.92289C4.46263 1.94283 4.42438 1.94917 4.38802 1.94052C3.93279 1.83405 3.39839 2.05706 3.06757 2.49733C2.78482 2.86998 2.62648 3.37931 2.60103 4.01094V4.15482C2.60667 4.38776 2.5771 4.6202 2.51338 4.844C2.46576 4.97507 2.40612 5.10128 2.33524 5.22097C2.30273 5.27996 2.27021 5.33895 2.24052 5.39938C2.05046 5.82279 2.01435 6.30114 2.13864 6.74913C2.26293 7.19712 2.53953 7.58561 2.91912 7.84533C2.94235 7.8604 2.96074 7.88204 2.97204 7.9076C2.98334 7.93316 2.98706 7.96152 2.98274 7.98921C2.86525 8.55117 2.96933 9.13761 3.27256 9.62224C3.36433 9.75618 3.4716 9.8784 3.59207 9.98625C3.76513 10.1344 3.90904 10.3145 4.0162 10.5172C4.0394 10.5118 4.06309 10.5089 4.08688 10.5085Z" fill="#093F68"/>
<path d="M5.07125 11.7096C5.82112 11.567 6.33116 10.9183 6.21045 10.2606C6.08974 9.60291 5.38399 9.1853 4.63412 9.32784C3.88426 9.47038 3.37422 10.1191 3.49493 10.7768C3.61564 11.4345 4.32138 11.8521 5.07125 11.7096Z" fill="#FFC9B0"/>
<path d="M4.77548 11.8784C4.4954 11.8806 4.21975 11.8072 3.97671 11.6655C3.81649 11.5777 3.67759 11.4546 3.57023 11.3051C3.46287 11.1556 3.38976 10.9836 3.35627 10.8016C3.32278 10.6195 3.32976 10.4322 3.3767 10.2533C3.42363 10.0744 3.50934 9.90849 3.62752 9.7677C3.87848 9.46399 4.2251 9.25817 4.60838 9.18524C4.99167 9.11232 5.38794 9.1768 5.72977 9.36772C5.88853 9.45704 6.0262 9.58057 6.13316 9.72968C6.24012 9.8788 6.31378 10.0499 6.34899 10.231C6.4833 10.9648 5.92487 11.6899 5.09782 11.8468C4.99154 11.8672 4.88365 11.8778 4.77548 11.8784ZM4.92958 9.44253C4.83898 9.44265 4.74859 9.45132 4.65956 9.46843C4.34131 9.52379 4.05326 9.69386 3.84806 9.94755C3.75548 10.056 3.68818 10.1844 3.65119 10.3231C3.6142 10.4618 3.60847 10.6072 3.63443 10.7484C3.66039 10.8897 3.71738 11.0231 3.80113 11.1388C3.88488 11.2545 3.99323 11.3495 4.11809 11.4166C4.40064 11.5751 4.72939 11.6261 5.04551 11.5604C5.71704 11.4324 6.17652 10.8583 6.07048 10.2799C6.04277 10.1392 5.98512 10.0064 5.90159 9.89085C5.81806 9.77527 5.71068 9.67971 5.58698 9.61087C5.38622 9.49686 5.15945 9.4388 4.92958 9.44253Z" fill="#093F68"/>
<path d="M12.9838 10.2049C13.7337 10.0624 14.2438 9.41367 14.123 8.75597C14.0023 8.09827 13.2966 7.68066 12.5467 7.8232C11.7969 7.96574 11.2868 8.61447 11.4075 9.27217C11.5282 9.92987 12.234 10.3475 12.9838 10.2049Z" fill="#FFC9B0"/>
<path d="M12.6896 10.3747C12.409 10.3762 12.1329 10.3023 11.8894 10.1603C11.7305 10.0712 11.5927 9.94772 11.4857 9.79857C11.3787 9.64942 11.3052 9.47821 11.2702 9.297C11.1288 8.56321 11.6943 7.83806 12.5214 7.68123C12.9045 7.60344 13.3024 7.66829 13.6425 7.86396C13.8013 7.95343 13.939 8.07699 14.0462 8.22606C14.1534 8.37513 14.2274 8.54614 14.2631 8.72724C14.4045 9.46102 13.839 10.1862 13.0105 10.343C12.9048 10.3641 12.7974 10.3747 12.6896 10.3747ZM12.8437 7.93734C12.7531 7.93746 12.6627 7.94613 12.5737 7.96324C11.9022 8.08985 11.4427 8.66537 11.5473 9.24376C11.5754 9.38431 11.6333 9.51691 11.7171 9.63224C11.8009 9.74757 11.9084 9.84284 12.0322 9.91136C12.3143 10.0699 12.6426 10.1209 12.9582 10.0552C13.6312 9.92719 14.0892 9.35311 13.9846 8.77472C13.9567 8.63394 13.8988 8.50111 13.815 8.38553C13.7312 8.26995 13.6236 8.17443 13.4997 8.10568C13.2995 7.99166 13.0731 7.93358 12.8437 7.93734Z" fill="#093F68"/>
<path d="M9.55843 13.6409C9.02084 13.7434 8.4687 13.737 7.93352 13.6222C7.39835 13.5075 6.89065 13.2865 6.43941 12.972C5.98817 12.6575 5.60225 12.2555 5.30368 11.7892C5.00512 11.3228 4.79976 10.8012 4.69935 10.254L4.32612 8.22099C4.3035 8.09869 4.21443 7.8728 4.23988 7.7505C4.28653 7.51598 4.46184 7.50159 4.66401 7.33181C5.14591 6.8925 5.49008 6.31855 5.65364 5.68152C6.06233 5.79891 6.49814 5.77093 6.88909 5.6022C7.28005 5.43348 7.60277 5.13409 7.80396 4.7535C7.97008 4.95562 8.18394 5.11148 8.42546 5.20645C8.66699 5.30141 8.92826 5.33237 9.18476 5.29641C9.44126 5.26046 9.68458 5.15877 9.89189 5.00088C10.0992 4.843 10.2637 4.63411 10.3699 4.3938C10.4353 4.57003 10.5407 4.72801 10.6775 4.8548C10.8144 4.98159 10.9789 5.07359 11.1574 5.12327C11.4175 5.19233 11.9547 5.02543 12.1597 5.14773C12.3011 5.22974 12.2898 5.40815 12.3223 5.57936C12.4029 6.02683 12.4863 6.47429 12.5683 6.92176L12.8949 8.69867C12.9949 9.24615 12.9878 9.80832 12.8743 10.353C12.7607 10.8978 12.5427 11.4144 12.2329 11.8734C11.923 12.3323 11.5273 12.7247 11.0685 13.028C10.6096 13.3312 10.0964 13.5395 9.55843 13.6409Z" fill="#FFC9B0"/>
<path d="M8.78373 13.8539C7.78057 13.8512 6.80979 13.4923 6.03886 12.839C5.26794 12.1858 4.74521 11.2792 4.56084 10.2756L4.18761 8.24262C4.18054 8.20953 4.16923 8.16637 4.15509 8.12032C4.10844 7.99116 4.0901 7.85317 4.10137 7.71602C4.12009 7.63252 4.15734 7.55448 4.21027 7.4879C4.2632 7.42131 4.33041 7.36793 4.40674 7.33187C4.4635 7.29739 4.51782 7.25893 4.56932 7.21676C5.03005 6.79557 5.35772 6.2448 5.51088 5.63409C5.51588 5.6156 5.52445 5.5983 5.5361 5.58323C5.54776 5.56816 5.56226 5.55561 5.57874 5.54632C5.59541 5.53694 5.61378 5.53109 5.63273 5.52911C5.65168 5.52713 5.67082 5.52907 5.68902 5.53481C6.06525 5.64255 6.46633 5.6166 6.82612 5.46124C7.18592 5.30588 7.48296 5.03038 7.66827 4.68017C7.6789 4.65894 7.69453 4.64073 7.71378 4.62717C7.73303 4.61361 7.75528 4.60512 7.77855 4.60247C7.80176 4.59975 7.82527 4.60293 7.84698 4.61172C7.86869 4.6205 7.88792 4.63463 7.90296 4.65283C8.05365 4.83697 8.24784 4.97913 8.46731 5.06595C8.68678 5.15278 8.92434 5.18143 9.15767 5.14921C9.391 5.11699 9.61246 5.02496 9.80127 4.88176C9.99007 4.73856 10.14 4.54889 10.2371 4.33054C10.249 4.30318 10.2691 4.2803 10.2944 4.26508C10.3198 4.24986 10.3491 4.24307 10.3784 4.24565C10.4065 4.24682 10.4336 4.25648 10.4563 4.27339C10.479 4.2903 10.4961 4.31371 10.5057 4.34061C10.5624 4.49529 10.6546 4.63394 10.7746 4.74505C10.8946 4.85616 11.0389 4.93651 11.1956 4.97944C11.3334 5.00013 11.4734 5.00013 11.6112 4.97944C11.853 4.95642 12.082 4.93484 12.2333 5.02404C12.3006 5.07319 12.3553 5.13803 12.393 5.21312C12.4306 5.28821 12.45 5.37138 12.4496 5.45568C12.4496 5.48733 12.4581 5.52042 12.4637 5.55208L13.0292 8.66994C13.1333 9.23605 13.1268 9.8175 13.0099 10.381C12.8931 10.9446 12.6683 11.4791 12.3483 11.9542C12.0283 12.4292 11.6195 12.8354 11.1451 13.1495C10.6708 13.4636 10.1403 13.6795 9.58391 13.7849C9.31982 13.8327 9.05197 13.8559 8.78373 13.8539ZM5.74415 5.85135C5.56533 6.46231 5.22261 7.0104 4.75452 7.43402C4.6932 7.48698 4.62798 7.53508 4.55943 7.5779C4.4435 7.65272 4.40109 7.68293 4.38271 7.77645C4.38533 7.86728 4.40203 7.95711 4.43219 8.04263C4.44774 8.09874 4.46188 8.15054 4.46895 8.18651L4.84218 10.2181C5.03689 11.2854 5.64009 12.2304 6.51918 12.8453C7.39827 13.4602 8.4813 13.6946 9.53019 13.4971C10.5791 13.2977 11.5072 12.6824 12.1104 11.7866C12.7135 10.8908 12.9423 9.7878 12.7465 8.7203L12.181 5.60244L12.164 5.49309C12.147 5.36072 12.1329 5.29597 12.0863 5.26864C12.0142 5.22547 11.8035 5.24562 11.6339 5.26864C11.4639 5.29691 11.2906 5.29691 11.1207 5.26864C10.8078 5.18263 10.5373 4.9817 10.3615 4.70463C10.2264 4.90964 10.049 5.08221 9.84169 5.21031C9.63437 5.33841 9.4021 5.41897 9.16106 5.44636C8.92002 5.47376 8.676 5.44733 8.44602 5.36893C8.21604 5.29052 8.00563 5.16202 7.82944 4.99239C7.60364 5.32868 7.28527 5.58961 6.91428 5.74243C6.5433 5.89524 6.13622 5.93313 5.74415 5.85135Z" fill="#093F68"/>
<path d="M6.78635 9.61786C6.9995 9.61786 7.1723 9.442 7.1723 9.22507C7.1723 9.00813 6.9995 8.83228 6.78635 8.83228C6.57319 8.83228 6.40039 9.00813 6.40039 9.22507C6.40039 9.442 6.57319 9.61786 6.78635 9.61786Z" fill="#093F68"/>
<path d="M10.6965 8.8742C10.9097 8.8742 11.0825 8.69835 11.0825 8.48141C11.0825 8.26448 10.9097 8.08862 10.6965 8.08862C10.4833 8.08862 10.3105 8.26448 10.3105 8.48141C10.3105 8.69835 10.4833 8.8742 10.6965 8.8742Z" fill="#093F68"/>
<path d="M8.54079 10.3459C8.50329 10.3459 8.46733 10.3308 8.44082 10.3038C8.41431 10.2768 8.39941 10.2402 8.39941 10.202C8.39941 10.1639 8.41431 10.1273 8.44082 10.1003C8.46733 10.0733 8.50329 10.0582 8.54079 10.0582C8.7249 10.0551 8.90748 10.0236 9.08226 9.96465C9.06812 9.83803 8.85464 9.4697 8.60158 9.14022C8.58848 9.12559 8.57848 9.10836 8.57222 9.08961C8.56596 9.07087 8.56356 9.05101 8.56518 9.03129C8.56681 9.01156 8.57241 8.99238 8.58165 8.97496C8.59089 8.95754 8.60356 8.94224 8.61888 8.93003C8.63419 8.91782 8.65181 8.90896 8.67065 8.904C8.68948 8.89904 8.70912 8.89809 8.72833 8.90121C8.74754 8.90433 8.76591 8.91144 8.78229 8.92212C8.79868 8.93279 8.81272 8.94679 8.82354 8.96324C9.00591 9.19921 9.42297 9.7776 9.35653 10.0539C9.34903 10.0887 9.33362 10.1213 9.31153 10.1491C9.28944 10.1768 9.26127 10.1989 9.22929 10.2136C9.01012 10.2982 8.77803 10.343 8.54362 10.3459H8.54079Z" fill="#093F68"/>
<path d="M5.55776 8.28709C5.48277 8.28843 5.41033 8.25939 5.35638 8.20637C5.30242 8.15335 5.27138 8.08069 5.27006 8.00437C5.26875 7.92805 5.29728 7.85433 5.34938 7.79942C5.40148 7.74451 5.47287 7.71291 5.54787 7.71157L7.42109 7.63963C7.45822 7.63812 7.49528 7.64407 7.53015 7.65713C7.56503 7.6702 7.59703 7.69013 7.62434 7.71578C7.65164 7.74143 7.67372 7.7723 7.6893 7.80664C7.70488 7.84097 7.71367 7.87809 7.71515 7.91588C7.71664 7.95367 7.71079 7.99139 7.69796 8.02688C7.68512 8.06237 7.66554 8.09494 7.64033 8.12273C7.61513 8.15052 7.58479 8.17299 7.55105 8.18884C7.51732 8.2047 7.48084 8.21364 7.44371 8.21515L5.56907 8.28853L5.55776 8.28709Z" fill="#093F68"/>
<path d="M9.65448 7.74181C9.57949 7.7483 9.50504 7.7242 9.44751 7.67482C9.38998 7.62544 9.35407 7.55483 9.3477 7.47851C9.34133 7.40219 9.365 7.32642 9.41352 7.26787C9.46204 7.20932 9.53143 7.17278 9.60642 7.16629L11.6691 6.80515C11.7062 6.79873 11.7442 6.79981 11.7809 6.80834C11.8177 6.81686 11.8524 6.83267 11.8831 6.85485C11.9138 6.87702 11.9399 6.90514 11.96 6.9376C11.98 6.97005 11.9936 7.0062 11.9999 7.04399C12.0062 7.08178 12.0052 7.12047 11.9968 7.15784C11.9884 7.19521 11.9729 7.23053 11.9511 7.2618C11.9293 7.29306 11.9017 7.31965 11.8698 7.34005C11.8379 7.36044 11.8024 7.37425 11.7652 7.38067L9.70255 7.74181H9.65448Z" fill="#093F68"/>
<path d="M10.1721 12.284C10.1502 12.284 10.1285 12.2788 10.1089 12.2688C10.0893 12.2588 10.0722 12.2443 10.059 12.2265C9.19521 11.0495 7.85497 11.6366 7.79701 11.661C7.77986 11.6707 7.76091 11.6767 7.74137 11.6785C7.72183 11.6804 7.70213 11.6781 7.68352 11.6717C7.6649 11.6654 7.64779 11.6552 7.63326 11.6418C7.61873 11.6284 7.60711 11.612 7.59913 11.5938C7.59115 11.5755 7.58699 11.5558 7.58692 11.5358C7.58684 11.5159 7.59085 11.4961 7.59869 11.4778C7.60653 11.4595 7.61803 11.443 7.63246 11.4295C7.64689 11.416 7.66393 11.4056 7.68249 11.3992C7.69804 11.3992 9.28428 10.6913 10.2852 12.0538C10.2963 12.069 10.3043 12.0863 10.3088 12.1046C10.3133 12.123 10.3142 12.1421 10.3114 12.1608C10.3087 12.1795 10.3023 12.1975 10.2927 12.2137C10.2831 12.2299 10.2705 12.244 10.2555 12.2552C10.2319 12.2744 10.2024 12.2846 10.1721 12.284Z" fill="#093F68"/>
<path d="M6.1709 23.7683H12.6106V26.8545H6.1709V23.7683Z" fill="#093F68"/>
<path d="M12.6122 26.9999H6.17116C6.13367 26.9999 6.09771 26.9848 6.07119 26.9578C6.04468 26.9308 6.02979 26.8942 6.02979 26.856V23.7684C6.02979 23.7302 6.04468 23.6936 6.07119 23.6667C6.09771 23.6397 6.13367 23.6245 6.17116 23.6245H12.6122C12.6497 23.6245 12.6857 23.6397 12.7122 23.6667C12.7387 23.6936 12.7536 23.7302 12.7536 23.7684V26.856C12.7536 26.8942 12.7387 26.9308 12.7122 26.9578C12.6857 26.9848 12.6497 26.9999 12.6122 26.9999ZM6.31254 26.7122H12.4709V23.9123H6.31254V26.7122Z" fill="#093F68"/>
<path d="M5.66455 14.54L13.115 24.9799L13.689 23.7684L6.75597 14.1616L5.66455 14.54Z" fill="#FFBC0E"/>
<path d="M13.115 25.1238C13.0927 25.1238 13.0707 25.1185 13.0508 25.1083C13.0309 25.098 13.0137 25.0831 13.0005 25.0648L5.55002 14.6249C5.53711 14.6066 5.52859 14.5855 5.52515 14.5633C5.52172 14.541 5.52346 14.5183 5.53023 14.4969C5.537 14.4755 5.54857 14.4561 5.56404 14.4401C5.5795 14.4241 5.59843 14.412 5.6193 14.4048L6.7093 14.0249C6.73788 14.0151 6.7688 14.0148 6.79754 14.0241C6.82628 14.0334 6.85134 14.0519 6.86906 14.0767L13.7965 23.6835C13.8111 23.7041 13.8201 23.7283 13.8226 23.7535C13.8251 23.7788 13.8209 23.8043 13.8106 23.8274L13.2366 25.0375C13.2262 25.0601 13.2101 25.0795 13.19 25.0939C13.1699 25.1083 13.1465 25.1171 13.1221 25.1195L13.115 25.1238ZM5.89215 14.6134L13.091 24.7008L13.5236 23.7843L6.70223 14.3314L5.89215 14.6134Z" fill="#093F68"/>
<path d="M14.8076 22.2693H15.3675V24.8102H14.8076V22.2693Z" fill="#70CC40"/>
<path d="M15.3658 24.954H14.8074C14.7699 24.954 14.7339 24.9388 14.7074 24.9118C14.6809 24.8849 14.666 24.8483 14.666 24.8101V22.2735C14.666 22.2354 14.6809 22.1988 14.7074 22.1718C14.7339 22.1448 14.7699 22.1296 14.8074 22.1296H15.3658C15.4033 22.1296 15.4393 22.1448 15.4658 22.1718C15.4923 22.1988 15.5072 22.2354 15.5072 22.2735V24.8144C15.5061 24.8518 15.4907 24.8873 15.4643 24.9134C15.4379 24.9394 15.4026 24.954 15.3658 24.954ZM14.9488 24.6662H15.2244V22.4174H14.9488V24.6662Z" fill="#093F68"/>
<path d="M16.4576 18.1931C16.4576 18.1715 16.4576 18.1485 16.4576 18.1269C15.6513 17.782 15.0071 17.1335 14.6593 16.3169C14.648 16.2895 14.6463 16.2589 14.6546 16.2304C14.6628 16.2019 14.6804 16.1772 14.7044 16.1603C14.7284 16.1434 14.7574 16.1355 14.7866 16.1378C14.8157 16.1401 14.8431 16.1525 14.8643 16.173C15.4298 16.7111 16.1635 16.901 16.6329 16.9658C16.9375 15.9307 17.6158 15.0513 18.5314 14.5042C19.447 13.9572 20.5321 13.7831 21.5687 14.0169C22.6052 14.2507 23.5165 14.875 24.1192 15.7645C24.722 16.654 24.9717 17.7427 24.8181 18.8119C24.6645 19.881 24.1191 20.8514 23.2913 21.5281C22.4635 22.2047 21.4148 22.5374 20.3558 22.4594C19.2969 22.3814 18.3062 21.8985 17.5828 21.1076C16.8594 20.3167 16.4569 19.2765 16.4562 18.1959L16.4576 18.1931Z" fill="white"/>
<path d="M20.6563 22.6117C19.5103 22.6102 18.4112 22.1481 17.5983 21.326C16.7855 20.5039 16.3246 19.3882 16.316 18.222C15.516 17.8533 14.8794 17.1947 14.5305 16.3746C14.5075 16.3177 14.504 16.2546 14.5206 16.1955C14.5372 16.1363 14.5729 16.0846 14.6219 16.0487C14.671 16.0128 14.7305 15.9947 14.7908 15.9974C14.8512 16.0002 14.9089 16.0236 14.9546 16.0638C15.3985 16.4627 15.9475 16.7208 16.5337 16.8062C16.785 16.0332 17.2412 15.346 17.852 14.8201C18.4628 14.2943 19.2044 13.9504 19.995 13.8263C20.7857 13.7022 21.5947 13.8028 22.3327 14.1169C23.0707 14.4311 23.7092 14.9466 24.1776 15.6066C24.6461 16.2665 24.9263 17.0454 24.9873 17.8572C25.0484 18.669 24.888 19.4822 24.5238 20.207C24.1595 20.9319 23.6056 21.5403 22.9232 21.9652C22.2407 22.39 21.4563 22.6147 20.6563 22.6146V22.6117ZM14.8189 16.3228C15.1565 17.0782 15.7627 17.6755 16.5154 17.9946C16.5414 18.0055 16.5637 18.0241 16.5793 18.0479C16.5949 18.0718 16.6032 18.0998 16.603 18.1284V18.1932C16.6035 19.2362 16.9919 20.2405 17.6901 21.0041C18.3882 21.7677 19.3445 22.2341 20.3667 22.3096C21.3889 22.3852 22.4013 22.0642 23.2005 21.4112C23.9998 20.7583 24.5266 19.8217 24.6751 18.7896C24.8237 17.7576 24.583 16.7066 24.0013 15.8478C23.4197 14.9889 22.5403 14.3859 21.5398 14.1599C20.5392 13.9339 19.4917 14.1016 18.6076 14.6293C17.7236 15.157 17.0685 16.0057 16.7741 17.0048C16.7643 17.0377 16.7432 17.066 16.7147 17.0845C16.6861 17.1029 16.652 17.1104 16.6186 17.1055C15.9562 17.0301 15.3302 16.7579 14.8189 16.3228Z" fill="#093F68"/>
<path d="M22.4816 17.1587C22.4837 17.3049 22.4636 17.4504 22.4222 17.5904C22.3831 17.7134 22.3269 17.8302 22.2554 17.9371C22.1799 18.046 22.0921 18.1455 21.9938 18.2335C21.8935 18.327 21.7775 18.4234 21.6489 18.5213C21.5697 18.5875 21.5075 18.645 21.4524 18.6954C21.4038 18.7399 21.3623 18.7918 21.3294 18.8493C21.2999 18.9008 21.2784 18.9566 21.2658 19.0148C21.2523 19.083 21.2461 19.1524 21.2474 19.222V19.4176H20.0938V19.1299C20.0925 19.0123 20.1049 18.8949 20.1305 18.7803C20.1535 18.6792 20.1911 18.5822 20.2422 18.4925C20.2942 18.4036 20.3548 18.3202 20.4232 18.2436C20.5034 18.1558 20.5889 18.0732 20.6791 17.9961L20.9222 17.763C21.0016 17.6916 21.0736 17.612 21.1371 17.5256C21.1967 17.4384 21.2274 17.334 21.2248 17.2278C21.2285 17.1575 21.2178 17.0872 21.1935 17.0214C21.1691 16.9555 21.1317 16.8955 21.0834 16.8451C20.9588 16.7411 20.7995 16.6903 20.6389 16.7034C20.4783 16.7166 20.329 16.7926 20.2224 16.9156C20.1199 17.057 20.0608 17.2263 20.0528 17.4019L18.8779 17.2738C18.9011 17.0234 18.9696 16.7795 19.0801 16.5544C19.1804 16.3566 19.3206 16.1826 19.4915 16.0437C19.6595 15.9067 19.8513 15.8032 20.057 15.7386C20.2754 15.6701 20.5028 15.6357 20.7314 15.6365C20.9505 15.6359 21.1687 15.6649 21.3803 15.7228C21.5843 15.7755 21.7763 15.8678 21.9458 15.9947C22.1099 16.1189 22.2443 16.2792 22.3388 16.4638C22.4427 16.6797 22.4918 16.9186 22.4816 17.1587ZM21.3958 20.4838C21.3976 20.5785 21.38 20.6725 21.3442 20.7599C21.3085 20.8473 21.2553 20.9262 21.188 20.9917C21.1209 21.0587 21.0413 21.1114 20.9539 21.1467C20.8665 21.1821 20.7731 21.1993 20.6791 21.1974C20.5855 21.1995 20.4924 21.1826 20.4053 21.1478C20.3182 21.113 20.2387 21.0609 20.1715 20.9946C20.1053 20.93 20.0516 20.8534 20.0132 20.7687C19.9731 20.6818 19.9528 20.5869 19.9538 20.491C19.9536 20.3965 19.9724 20.303 20.0089 20.2162C20.0449 20.1299 20.0978 20.0521 20.1644 19.9874C20.232 19.9212 20.3111 19.8685 20.3977 19.832C20.4873 19.7942 20.5835 19.7751 20.6805 19.7759C20.7775 19.7747 20.8738 19.7938 20.9632 19.832C21.0474 19.8688 21.1249 19.9199 21.1922 19.9831C21.2587 20.0468 21.3116 20.1237 21.3478 20.209C21.382 20.2963 21.3984 20.3898 21.3958 20.4838Z" fill="#F56132"/>
</svg>
