<svg width="30" height="30" viewBox="0 0 30 30" fill="none" xmlns="http://www.w3.org/2000/svg">
<g clip-path="url(#clip0_1097_1013)">
<path d="M13.9454 0.0585938C11.7364 0.363281 9.87316 1.35352 8.39074 3.02344C7.37707 4.1543 6.63879 5.67773 6.35168 7.23633C6.18762 8.10352 6.2052 9.65625 6.38098 10.4883C6.79699 12.4512 7.70519 14.0215 9.19934 15.3691C10.3068 16.3711 11.7189 17.0742 13.3009 17.4082C14.1857 17.6016 15.8146 17.6016 16.6993 17.4082C20.256 16.6523 22.8634 14.0449 23.6193 10.4883C23.7306 9.97852 23.754 9.69141 23.754 8.78906C23.754 7.88672 23.7306 7.59961 23.6193 7.08984C22.8634 3.54492 20.2384 0.914062 16.7286 0.175781C16.0607 0.0351562 14.5665 -0.0292969 13.9454 0.0585938ZM16.3946 1.89844C18.545 2.36719 20.3146 3.73242 21.2931 5.67188C21.7853 6.65625 22.0021 7.59961 22.0021 8.78906C22.0021 9.70898 21.9318 10.1719 21.6739 10.9688C21.1056 12.7207 19.7989 14.2324 18.1173 15.082C17.1329 15.5742 16.1896 15.791 15.0001 15.791C14.0802 15.791 13.6173 15.7207 12.8204 15.4629C11.7775 15.123 10.8634 14.5605 10.0431 13.7461C9.02941 12.7324 8.36144 11.4844 8.08019 10.0488C7.95715 9.44531 7.97473 8.00391 8.10949 7.38281C8.40832 6.00586 9.05285 4.82227 10.0431 3.83203C11.2032 2.68359 12.4806 2.05664 14.2091 1.79297C14.5665 1.74023 15.9786 1.81055 16.3946 1.89844Z" fill="white"/>
<path d="M14.3848 3.59766C13.3008 3.87305 12.5391 4.72852 12.3867 5.84766L12.3457 6.15234H13.2363C13.9922 6.15234 14.1211 6.14062 14.1211 6.06445C14.1211 5.71289 14.6133 5.27344 14.9941 5.27344C15.293 5.27344 15.627 5.47852 15.7617 5.74219C15.9961 6.20508 15.8496 6.65625 15.3516 6.97266C14.9883 7.20703 14.584 7.65234 14.4141 7.99805C14.1855 8.47266 14.1211 8.83594 14.1211 9.70898V10.5469H15H15.8789V9.78516C15.8789 8.85938 15.9492 8.67188 16.4062 8.37891C17.8359 7.46484 18.0469 5.50781 16.8457 4.30078C16.1895 3.63867 15.2695 3.375 14.3848 3.59766Z" fill="white"/>
<path d="M14.1211 13.1836V14.0625H15H15.8789V13.1836V12.3047H15H14.1211V13.1836Z" fill="white"/>
<path d="M3.7793 19.5352C3.28711 19.6582 2.91797 19.8691 2.54297 20.2441C1.74023 21.041 1.54688 22.2012 2.0332 23.2441C2.33789 23.9004 3.15234 24.5391 3.80859 24.6445C3.94336 24.668 4.03711 24.6914 4.03125 24.7031C4.01953 24.7148 3.80273 24.7617 3.54492 24.8145C2.67188 24.9961 1.97461 25.3711 1.32422 26.0039C0.416016 26.8887 0 27.9434 0 29.3555V30H4.39453H8.78906V29.3555C8.78906 28.2832 8.57227 27.5039 8.05664 26.7188C7.41211 25.7344 6.41016 25.0547 5.24414 24.8145C4.98633 24.7617 4.76953 24.7148 4.75781 24.7031C4.75195 24.6914 4.85156 24.668 4.98633 24.6445C5.63086 24.5391 6.35742 23.9883 6.69727 23.332C7.25391 22.2715 7.07812 21.082 6.24023 20.2383C5.58398 19.5762 4.66406 19.3125 3.7793 19.5352ZM4.80469 21.3281C5.06836 21.4629 5.27344 21.7969 5.27344 22.0898C5.27344 22.5352 4.83984 22.9688 4.38867 22.9688C4.11914 22.9688 3.75586 22.7402 3.62695 22.4883C3.41016 22.0664 3.54492 21.6035 3.96094 21.3516C4.24219 21.1816 4.5 21.1758 4.80469 21.3281ZM5.02148 26.5664C5.47266 26.6895 5.81836 26.8711 6.14648 27.1641C6.43359 27.4219 6.75 27.8613 6.82617 28.1074L6.86133 28.2422H4.39453H1.92773L1.96289 28.1074C2.03906 27.8672 2.35547 27.4219 2.63086 27.1699C3.28711 26.584 4.21289 26.3496 5.02148 26.5664Z" fill="white"/>
<path d="M14.3848 19.5352C13.8926 19.6582 13.5234 19.8691 13.1484 20.2441C12.3457 21.041 12.1523 22.2012 12.6387 23.2441C12.9434 23.9004 13.7578 24.5391 14.4141 24.6445C14.5488 24.668 14.6426 24.6914 14.6367 24.7031C14.625 24.7148 14.4082 24.7617 14.1504 24.8145C13.2773 24.9961 12.5801 25.3711 11.9297 26.0039C11.0215 26.8887 10.6055 27.9434 10.6055 29.3555V30H15H19.3945V29.3555C19.3945 28.2832 19.1777 27.5039 18.6621 26.7188C18.0176 25.7344 17.0156 25.0547 15.8496 24.8145C15.5918 24.7617 15.375 24.7148 15.3633 24.7031C15.3574 24.6914 15.457 24.668 15.5918 24.6445C16.2363 24.5391 16.9629 23.9883 17.3027 23.332C17.8594 22.2715 17.6836 21.082 16.8457 20.2383C16.1895 19.5762 15.2695 19.3125 14.3848 19.5352ZM15.4102 21.3281C15.6738 21.4629 15.8789 21.7969 15.8789 22.0898C15.8789 22.5352 15.4453 22.9688 14.9941 22.9688C14.7246 22.9688 14.3613 22.7402 14.2324 22.4883C14.0156 22.0664 14.1504 21.6035 14.5664 21.3516C14.8477 21.1816 15.1055 21.1758 15.4102 21.3281ZM15.627 26.5664C16.0781 26.6895 16.4238 26.8711 16.752 27.1641C17.0391 27.4219 17.3555 27.8613 17.4316 28.1074L17.4668 28.2422H15H12.5332L12.5684 28.1074C12.6445 27.8672 12.9609 27.4219 13.2363 27.1699C13.8926 26.584 14.8184 26.3496 15.627 26.5664Z" fill="white"/>
<path d="M24.9902 19.5352C24.498 19.6582 24.1289 19.8691 23.7539 20.2441C22.9512 21.041 22.7578 22.2012 23.2441 23.2441C23.5488 23.9004 24.3633 24.5391 25.0195 24.6445C25.1543 24.668 25.248 24.6914 25.2422 24.7031C25.2305 24.7148 25.0137 24.7617 24.7559 24.8145C23.8828 24.9961 23.1855 25.3711 22.5352 26.0039C21.627 26.8887 21.2109 27.9434 21.2109 29.3555V30H25.6055H30V29.3555C30 28.2832 29.7832 27.5039 29.2676 26.7188C28.623 25.7344 27.6211 25.0547 26.4551 24.8145C26.1973 24.7617 25.9805 24.7148 25.9688 24.7031C25.9629 24.6914 26.0625 24.668 26.1973 24.6445C26.8418 24.5391 27.5684 23.9883 27.9082 23.332C28.4648 22.2715 28.2891 21.082 27.4512 20.2383C26.7949 19.5762 25.875 19.3125 24.9902 19.5352ZM26.0156 21.3281C26.2793 21.4629 26.4844 21.7969 26.4844 22.0898C26.4844 22.5352 26.0508 22.9688 25.5996 22.9688C25.3301 22.9688 24.9668 22.7402 24.8379 22.4883C24.6211 22.0664 24.7559 21.6035 25.1719 21.3516C25.4531 21.1816 25.7109 21.1758 26.0156 21.3281ZM26.2324 26.5664C26.6836 26.6895 27.0293 26.8711 27.3574 27.1641C27.6445 27.4219 27.9609 27.8613 28.0371 28.1074L28.0723 28.2422H25.6055H23.1387L23.1738 28.1074C23.25 27.8672 23.5664 27.4219 23.8418 27.1699C24.498 26.584 25.4238 26.3496 26.2324 26.5664Z" fill="white"/>
</g>
<defs>
<clipPath id="clip0_1097_1013">
<rect width="30" height="30" fill="white"/>
</clipPath>
</defs>
</svg>
