<svg xmlns="http://www.w3.org/2000/svg" width="8" height="8" fill="none" viewBox="0 0 8 8">
  <path fill="#fff" d="M3.2 5.25c0-.253.016-.136-1.063-2.836-.221-.552-.853-.553-1.074 0C-.026 5.137 0 5.005 0 5.25 0 5.94.716 6.5 1.6 6.5c.884 0 1.6-.56 1.6-1.25Zm-1.6-2.5L2.5 5H.7l.9-2.25ZM8 5.25c0-.253.017-.136-1.063-2.836-.22-.552-.853-.553-1.074 0C4.774 5.137 4.8 5.005 4.8 5.25c0 .69.716 1.25 1.6 1.25.884 0 1.6-.56 1.6-1.25ZM5.5 5l.9-2.25L7.3 5H5.5Zm1.1 2H4.4V2.395c.294-.161.515-.492.58-.895H6.6c.11 0 .2-.112.2-.25v-.5C6.8.612 6.71.5 6.6.5H4.796C4.613.198 4.326 0 4 0c-.326 0-.613.198-.796.5H1.4c-.11 0-.2.112-.2.25v.5c0 .138.09.25.2.25h1.62c.065.403.286.734.58.895V7H1.4c-.11 0-.2.112-.2.25v.5c0 .138.09.25.2.25h5.2c.11 0 .2-.112.2-.25v-.5c0-.138-.09-.25-.2-.25Z"/>
</svg>
