<svg width="20" height="20" viewBox="0 0 20 20" fill="none" xmlns="http://www.w3.org/2000/svg">
<path d="M15.5549 14.7692L19.8373 19.0516C20.0542 19.2686 20.0542 19.6203 19.8373 19.8373C19.6203 20.0542 19.2686 20.0542 19.0516 19.8373L14.7692 15.5549C13.2022 16.9383 11.1436 17.7778 8.88889 17.7778C3.97969 17.7778 0 13.7981 0 8.88889C0 3.97969 3.97969 0 8.88889 0C13.7981 0 17.7778 3.97969 17.7778 8.88889C17.7778 11.1436 16.9383 13.2022 15.5549 14.7692ZM8.88889 16.6667C13.1844 16.6667 16.6667 13.1844 16.6667 8.88889C16.6667 4.59334 13.1844 1.11111 8.88889 1.11111C4.59334 1.11111 1.11111 4.59334 1.11111 8.88889C1.11111 13.1844 4.59334 16.6667 8.88889 16.6667Z" fill="white"/>
</svg>
