<svg xmlns="http://www.w3.org/2000/svg" width="19" height="21" fill="none" viewBox="0 0 19 21">
  <path fill="#0F8235" d="M3.762 14.725 2.01 2.083H.939a.894.894 0 0 1-.664-.305A1.103 1.103 0 0 1 0 1.042C0 .766.099.5.275.305A.894.894 0 0 1 .938 0h1.863a.877.877 0 0 1 .619.245c.177.166.293.398.325.653l.307 2.227h7.207v2.083H4.341l1.154 8.334h8.82l1.407-5.209h1.959l-1.77 6.55a1.048 1.048 0 0 1-.338.536.878.878 0 0 1-.56.206H4.705a.879.879 0 0 1-.633-.258 1.078 1.078 0 0 1-.311-.642Zm3.744 4.025c0 .552-.198 1.082-.55 1.473-.351.39-.829.61-1.326.61-.498 0-.975-.22-1.327-.61s-.55-.92-.55-1.473c0-.552.198-1.082.55-1.473a1.79 1.79 0 0 1 1.327-.61c.497 0 .975.22 1.327.61.351.39.55.92.55 1.473Zm8.445 0c0 .552-.198 1.082-.55 1.473-.352.39-.83.61-1.327.61-.498 0-.975-.22-1.327-.61s-.55-.92-.55-1.473c0-.552.198-1.082.55-1.473.352-.39.83-.61 1.327-.61.498 0 .975.22 1.327.61s.55.92.55 1.473Zm0-18.75c.248 0 .487.11.663.305.176.196.275.46.275.737v1.041h.938c.249 0 .488.11.664.306a1.1 1.1 0 0 1 .274.736c0 .276-.098.541-.274.737a.894.894 0 0 1-.664.305h-.938v1.041c0 .277-.099.542-.275.737a.894.894 0 0 1-.663.305.893.893 0 0 1-.664-.305 1.103 1.103 0 0 1-.275-.737V4.167h-.938a.894.894 0 0 1-.663-.305 1.103 1.103 0 0 1-.275-.737c0-.276.099-.541.275-.736a.894.894 0 0 1 .663-.306h.938V1.042c0-.276.1-.541.275-.737A.894.894 0 0 1 15.951 0Z"/>
</svg>
