<svg width="31" height="30" viewBox="0 0 31 30" fill="none" xmlns="http://www.w3.org/2000/svg">
<path d="M15.9801 0.866915L19.4287 8.89339C19.7636 9.67311 20.4919 10.2137 21.3358 10.2911L21.3359 10.2911L29.7336 11.0594C30.2514 11.1459 30.485 11.8116 30.0954 12.2157L23.7734 17.6354C23.7734 17.6354 23.7733 17.6354 23.7733 17.6354C23.1203 18.1952 22.8254 19.072 23.004 19.9171C23.004 19.9171 23.004 19.9172 23.004 19.9172L24.8438 28.7056C24.9331 29.2783 24.3578 29.6637 23.8977 29.4249L16.5653 25.0431C16.5653 25.0431 16.5652 25.0431 16.5651 25.043C15.8426 24.6108 14.9475 24.6108 14.2249 25.0431L6.89288 29.422C6.4332 29.6599 5.85758 29.2734 5.94647 28.703L7.78647 19.9137L7.78665 19.9128C7.96148 19.0703 7.67114 18.1935 7.01693 17.6327L7.01669 17.6325L0.692201 12.2182C0.305268 11.8165 0.53896 11.1485 1.05422 11.0621L9.45183 10.2937L9.45192 10.2937C10.2958 10.2163 11.0241 9.67575 11.359 8.89606C11.359 8.89604 11.359 8.89602 11.3591 8.896L14.8075 0.869815C15.0567 0.37551 15.7349 0.378914 15.9801 0.866915Z" stroke="#0E5B28"/>
</svg>
