<svg width="8" height="8" viewBox="0 0 8 8" fill="none" xmlns="http://www.w3.org/2000/svg">
<path d="M4.27012 0.175346L5.1675 2.31895C5.23617 2.48304 5.38485 2.59545 5.55552 2.61151L7.74164 2.8168C7.98898 2.8545 8.08766 3.1722 7.90831 3.35514L6.26156 4.80399C6.12822 4.9213 6.06755 5.10563 6.10422 5.28369L6.58291 7.63048C6.62491 7.88813 6.3669 8.08503 6.14555 7.96284L4.23745 6.79259C4.09078 6.70251 3.90943 6.70251 3.76276 6.79259L1.85466 7.96214C1.63398 8.08364 1.3753 7.88743 1.4173 7.62978L1.89599 5.28299C1.932 5.10494 1.87199 4.9206 1.73865 4.8033L0.0912305 3.35584C-0.0874457 3.1736 0.0112262 2.8552 0.257906 2.81749L2.44402 2.61221C2.6147 2.59615 2.76337 2.48373 2.83204 2.31965L3.72942 0.176044C3.84076 -0.058565 4.15945 -0.058565 4.27012 0.175346V0.175346Z" fill="white"/>
</svg>
