<svg width="30" height="30" viewBox="0 0 30 30" fill="none" xmlns="http://www.w3.org/2000/svg">
<path d="M20.7864 10.291L20.7865 10.291L28.9678 11.0592C29.4492 11.1429 29.7004 11.8052 29.3103 12.2201L23.1506 17.6396C23.1506 17.6396 23.1506 17.6396 23.1506 17.6396C22.5124 18.201 22.2283 19.0754 22.401 19.9144C22.4011 19.9145 22.4011 19.9146 22.4011 19.9147L24.1938 28.7034C24.2856 29.3039 23.7098 29.647 23.296 29.4275L16.1521 25.0461C15.4416 24.6098 14.5592 24.6098 13.8487 25.0461L6.70518 29.4247C6.29165 29.6432 5.71557 29.2989 5.80699 28.7008L7.59989 19.9111L7.60006 19.9103C7.76921 19.0737 7.48948 18.1994 6.8502 17.637L6.84997 17.6367L0.687877 12.2226C0.300454 11.8101 0.551647 11.1455 1.03057 11.0618L9.21183 10.2936L9.21193 10.2936C10.0452 10.2152 10.7563 9.66846 11.0814 8.89176C11.0814 8.89174 11.0814 8.89172 11.0814 8.89171L14.4415 0.865336C14.6812 0.37694 15.3209 0.38047 15.5567 0.862438L18.9169 8.88909C18.9169 8.88911 18.9169 8.88912 18.9169 8.88914C19.242 9.66584 19.9531 10.2126 20.7864 10.291Z" stroke="white"/>
</svg>
