<svg width="60" height="40" viewBox="0 0 60 40" fill="none" xmlns="http://www.w3.org/2000/svg">
<path opacity="0.8" d="M54.7244 0H5.27563C2.36198 0 0 3.82236 0 8.5375V31.4625C0 36.1776 2.36198 40 5.27563 40H54.7244C57.638 40 60 36.1776 60 31.4625V8.5375C60 3.82236 57.638 0 54.7244 0Z" fill="#0F8235"/>
<path d="M28.1169 26.1651C27.9232 26.1652 27.7357 26.0962 27.5885 25.9705L22.2842 21.4324C22.1204 21.2924 22.0191 21.0932 22.0024 20.8786C21.9858 20.664 22.0552 20.4516 22.1955 20.2881C22.3357 20.1246 22.5352 20.0234 22.7502 20.0068C22.9652 19.9902 23.178 20.0595 23.3417 20.1995L28.0484 24.2266L39.0008 12.2639C39.1462 12.1051 39.3488 12.0105 39.5641 12.0008C39.7793 11.9911 39.9897 12.0672 40.1487 12.2124C40.3078 12.3575 40.4026 12.5597 40.4123 12.7746C40.422 12.9896 40.3458 13.1995 40.2004 13.3583L28.7179 25.9007C28.6416 25.9841 28.5488 26.0507 28.4454 26.0962C28.3419 26.1418 28.23 26.1652 28.1169 26.1651Z" fill="white"/>
</svg>
